G75*
%MOIN*%
%OFA0B0*%
%FSLAX24Y24*%
%IPPOS*%
%LPD*%
%AMOC8*
5,1,8,0,0,1.08239X$1,22.5*
%
%ADD10C,0.0060*%
%ADD11C,0.0080*%
D10*
X002852Y003050D02*
X002795Y003107D01*
X002852Y003050D02*
X002965Y003050D01*
X003022Y003107D01*
X003022Y003220D01*
X002965Y003277D01*
X002908Y003277D01*
X002795Y003220D01*
X002795Y003390D01*
X003022Y003390D01*
X002965Y004050D02*
X002965Y004390D01*
X002795Y004220D01*
X003022Y004220D01*
X003395Y004313D02*
X003508Y004427D01*
X003735Y004427D01*
X003735Y004568D02*
X003508Y004568D01*
X003508Y004738D01*
X003565Y004795D01*
X003735Y004795D01*
X003678Y004937D02*
X003622Y004993D01*
X003622Y005163D01*
X003565Y005163D02*
X003735Y005163D01*
X003735Y004993D01*
X003678Y004937D01*
X003508Y004993D02*
X003508Y005107D01*
X003565Y005163D01*
X003735Y005305D02*
X003735Y005418D01*
X003735Y005362D02*
X003395Y005362D01*
X003395Y005305D01*
X003565Y005550D02*
X003508Y005607D01*
X003508Y005721D01*
X003565Y005777D01*
X003678Y005777D01*
X003735Y005721D01*
X003735Y005607D01*
X003678Y005550D01*
X003565Y005550D01*
X003565Y005919D02*
X003678Y005919D01*
X003735Y005976D01*
X003735Y006146D01*
X003792Y006146D02*
X003508Y006146D01*
X003508Y005976D01*
X003565Y005919D01*
X003848Y006032D02*
X003848Y006089D01*
X003792Y006146D01*
X003735Y006655D02*
X003735Y006769D01*
X003735Y006712D02*
X003395Y006712D01*
X003395Y006655D02*
X003395Y006769D01*
X003508Y006901D02*
X003508Y007071D01*
X003565Y007128D01*
X003735Y007128D01*
X003735Y006901D02*
X003508Y006901D01*
X003022Y007050D02*
X002795Y007050D01*
X002908Y007050D02*
X002908Y007390D01*
X002795Y007277D01*
X002852Y008050D02*
X002795Y008107D01*
X003022Y008334D01*
X003022Y008107D01*
X002965Y008050D01*
X002852Y008050D01*
X002795Y008107D02*
X002795Y008334D01*
X002852Y008390D01*
X002965Y008390D01*
X003022Y008334D01*
X002908Y010050D02*
X003022Y010163D01*
X003022Y010390D01*
X003163Y010390D02*
X003277Y010390D01*
X003220Y010390D02*
X003220Y010050D01*
X003163Y010050D02*
X003277Y010050D01*
X003409Y010050D02*
X003409Y010390D01*
X003636Y010050D01*
X003636Y010390D01*
X003702Y011050D02*
X003758Y011107D01*
X003758Y011334D01*
X003702Y011390D01*
X003532Y011390D01*
X003532Y011050D01*
X003702Y011050D01*
X003390Y011050D02*
X003390Y011390D01*
X003163Y011390D02*
X003163Y011050D01*
X003022Y011107D02*
X003022Y011220D01*
X002908Y011220D01*
X002795Y011107D02*
X002795Y011334D01*
X002852Y011390D01*
X002965Y011390D01*
X003022Y011334D01*
X003163Y011390D02*
X003390Y011050D01*
X003022Y011107D02*
X002965Y011050D01*
X002852Y011050D01*
X002795Y011107D01*
X002795Y010390D02*
X002795Y010163D01*
X002908Y010050D01*
X002852Y012050D02*
X002965Y012050D01*
X003022Y012107D01*
X003022Y012220D01*
X002908Y012220D01*
X002795Y012107D02*
X002852Y012050D01*
X002795Y012107D02*
X002795Y012334D01*
X002852Y012390D01*
X002965Y012390D01*
X003022Y012334D01*
X003163Y012390D02*
X003163Y012050D01*
X003390Y012050D02*
X003390Y012390D01*
X003532Y012390D02*
X003702Y012390D01*
X003758Y012334D01*
X003758Y012107D01*
X003702Y012050D01*
X003532Y012050D01*
X003532Y012390D01*
X003390Y012050D02*
X003163Y012390D01*
X003220Y013050D02*
X003163Y013107D01*
X003220Y013050D02*
X003333Y013050D01*
X003390Y013107D01*
X003390Y013220D01*
X003333Y013277D01*
X003277Y013277D01*
X003163Y013220D01*
X003163Y013390D01*
X003390Y013390D01*
X003532Y013390D02*
X003532Y013163D01*
X003645Y013050D01*
X003758Y013163D01*
X003758Y013390D01*
X003773Y014050D02*
X003716Y014107D01*
X003773Y014050D02*
X003886Y014050D01*
X003943Y014107D01*
X003943Y014163D01*
X003886Y014220D01*
X003829Y014220D01*
X003886Y014220D02*
X003943Y014277D01*
X003943Y014334D01*
X003886Y014390D01*
X003773Y014390D01*
X003716Y014334D01*
X003588Y014107D02*
X003588Y014050D01*
X003532Y014050D01*
X003532Y014107D01*
X003588Y014107D01*
X003390Y014107D02*
X003333Y014050D01*
X003220Y014050D01*
X003163Y014107D01*
X003277Y014220D02*
X003333Y014220D01*
X003390Y014163D01*
X003390Y014107D01*
X003333Y014220D02*
X003390Y014277D01*
X003390Y014334D01*
X003333Y014390D01*
X003220Y014390D01*
X003163Y014334D01*
X003022Y014220D02*
X002795Y014220D01*
X002908Y014107D02*
X002908Y014334D01*
X002795Y015050D02*
X002795Y015390D01*
X002965Y015390D01*
X003022Y015334D01*
X003022Y015220D01*
X002965Y015163D01*
X002795Y015163D01*
X002908Y015163D02*
X003022Y015050D01*
X003163Y015107D02*
X003220Y015050D01*
X003333Y015050D01*
X003390Y015107D01*
X003390Y015163D01*
X003333Y015220D01*
X003220Y015220D01*
X003163Y015277D01*
X003163Y015334D01*
X003220Y015390D01*
X003333Y015390D01*
X003390Y015334D01*
X003532Y015390D02*
X003758Y015390D01*
X003645Y015390D02*
X003645Y015050D01*
X004084Y014390D02*
X004084Y014163D01*
X004198Y014050D01*
X004311Y014163D01*
X004311Y014390D01*
X004145Y016050D02*
X004145Y016390D01*
X004372Y016390D01*
X004259Y016220D02*
X004145Y016220D01*
X004004Y016050D02*
X003777Y016050D01*
X003777Y016390D01*
X004004Y016390D01*
X003891Y016220D02*
X003777Y016220D01*
X003636Y016220D02*
X003579Y016163D01*
X003409Y016163D01*
X003409Y016050D02*
X003409Y016390D01*
X003579Y016390D01*
X003636Y016334D01*
X003636Y016220D01*
X003522Y016163D02*
X003636Y016050D01*
X003267Y016107D02*
X003267Y016334D01*
X003211Y016390D01*
X003097Y016390D01*
X003041Y016334D01*
X003041Y016107D01*
X003097Y016050D01*
X003211Y016050D01*
X003267Y016107D01*
X002908Y016050D02*
X002795Y016050D01*
X002852Y016050D02*
X002852Y016390D01*
X002908Y016390D02*
X002795Y016390D01*
X002908Y013334D02*
X002908Y013107D01*
X002795Y013220D02*
X003022Y013220D01*
X002965Y006390D02*
X002852Y006390D01*
X002795Y006334D01*
X002965Y006390D02*
X003022Y006334D01*
X003022Y006277D01*
X002795Y006050D01*
X003022Y006050D01*
X002965Y005390D02*
X002852Y005390D01*
X002795Y005334D01*
X002908Y005220D02*
X002965Y005220D01*
X003022Y005163D01*
X003022Y005107D01*
X002965Y005050D01*
X002852Y005050D01*
X002795Y005107D01*
X002965Y005220D02*
X003022Y005277D01*
X003022Y005334D01*
X002965Y005390D01*
X003565Y004427D02*
X003565Y004200D01*
X003508Y004200D02*
X003395Y004313D01*
X003508Y004200D02*
X003735Y004200D01*
X019277Y018550D02*
X019277Y018777D01*
X019390Y018890D01*
X019504Y018777D01*
X019504Y018550D01*
X019645Y018550D02*
X019645Y018890D01*
X019815Y018890D01*
X019872Y018834D01*
X019872Y018720D01*
X019815Y018663D01*
X019645Y018663D01*
X019758Y018663D02*
X019872Y018550D01*
X020013Y018550D02*
X020013Y018890D01*
X020240Y018890D01*
X020382Y018890D02*
X020382Y018550D01*
X020240Y018550D02*
X020013Y018550D01*
X020013Y018720D02*
X020127Y018720D01*
X020382Y018720D02*
X020495Y018720D01*
X020382Y018890D02*
X020609Y018890D01*
X020609Y019550D02*
X020609Y019777D01*
X020495Y019890D01*
X020382Y019777D01*
X020382Y019550D01*
X020240Y019607D02*
X020240Y019834D01*
X020184Y019890D01*
X020013Y019890D01*
X020013Y019550D01*
X020184Y019550D01*
X020240Y019607D01*
X020382Y019720D02*
X020609Y019720D01*
X019872Y019663D02*
X019872Y019607D01*
X019815Y019550D01*
X019702Y019550D01*
X019645Y019607D01*
X019702Y019720D02*
X019815Y019720D01*
X019872Y019663D01*
X019872Y019834D02*
X019815Y019890D01*
X019702Y019890D01*
X019645Y019834D01*
X019645Y019777D01*
X019702Y019720D01*
X019702Y020550D02*
X019645Y020607D01*
X019702Y020550D02*
X019815Y020550D01*
X019872Y020607D01*
X019872Y020663D01*
X019815Y020720D01*
X019702Y020720D01*
X019645Y020777D01*
X019645Y020834D01*
X019702Y020890D01*
X019815Y020890D01*
X019872Y020834D01*
X020013Y020834D02*
X020013Y020607D01*
X020070Y020550D01*
X020184Y020550D01*
X020240Y020607D01*
X020382Y020550D02*
X020382Y020890D01*
X020240Y020834D02*
X020184Y020890D01*
X020070Y020890D01*
X020013Y020834D01*
X020382Y020550D02*
X020609Y020550D01*
X019504Y018720D02*
X019277Y018720D01*
X019702Y017890D02*
X019645Y017834D01*
X019645Y017607D01*
X019702Y017550D01*
X019815Y017550D01*
X019872Y017607D01*
X019872Y017720D01*
X019758Y017720D01*
X019872Y017834D02*
X019815Y017890D01*
X019702Y017890D01*
X020013Y017890D02*
X020240Y017550D01*
X020240Y017890D01*
X020382Y017890D02*
X020382Y017550D01*
X020552Y017550D01*
X020609Y017607D01*
X020609Y017834D01*
X020552Y017890D01*
X020382Y017890D01*
X020013Y017890D02*
X020013Y017550D01*
X020127Y016890D02*
X020127Y016550D01*
X020240Y016550D02*
X020013Y016550D01*
X020013Y016777D02*
X020127Y016890D01*
X020382Y016834D02*
X020438Y016890D01*
X020552Y016890D01*
X020609Y016834D01*
X020609Y016777D01*
X020552Y016720D01*
X020609Y016663D01*
X020609Y016607D01*
X020552Y016550D01*
X020438Y016550D01*
X020382Y016607D01*
X020495Y016720D02*
X020552Y016720D01*
X020552Y015890D02*
X020438Y015890D01*
X020382Y015834D01*
X020552Y015890D02*
X020609Y015834D01*
X020609Y015777D01*
X020382Y015550D01*
X020609Y015550D01*
X020240Y015550D02*
X020013Y015550D01*
X020127Y015550D02*
X020127Y015890D01*
X020013Y015777D01*
X020127Y014890D02*
X020127Y014550D01*
X020240Y014550D02*
X020013Y014550D01*
X020013Y014777D02*
X020127Y014890D01*
X020382Y014777D02*
X020495Y014890D01*
X020495Y014550D01*
X020382Y014550D02*
X020609Y014550D01*
X020552Y013890D02*
X020438Y013890D01*
X020382Y013834D01*
X020382Y013607D01*
X020609Y013834D01*
X020609Y013607D01*
X020552Y013550D01*
X020438Y013550D01*
X020382Y013607D01*
X020240Y013550D02*
X020013Y013550D01*
X020127Y013550D02*
X020127Y013890D01*
X020013Y013777D01*
X020552Y013890D02*
X020609Y013834D01*
X020552Y012890D02*
X020438Y012890D01*
X020382Y012834D01*
X020382Y012777D01*
X020438Y012720D01*
X020609Y012720D01*
X020609Y012607D02*
X020609Y012834D01*
X020552Y012890D01*
X020609Y012607D02*
X020552Y012550D01*
X020438Y012550D01*
X020382Y012607D01*
X020438Y011890D02*
X020552Y011890D01*
X020609Y011834D01*
X020609Y011777D01*
X020552Y011720D01*
X020438Y011720D01*
X020382Y011777D01*
X020382Y011834D01*
X020438Y011890D01*
X020438Y011720D02*
X020382Y011663D01*
X020382Y011607D01*
X020438Y011550D01*
X020552Y011550D01*
X020609Y011607D01*
X020609Y011663D01*
X020552Y011720D01*
X020609Y010390D02*
X020382Y010390D01*
X020609Y010390D02*
X020609Y010334D01*
X020382Y010107D01*
X020382Y010050D01*
X020609Y009390D02*
X020495Y009334D01*
X020382Y009220D01*
X020552Y009220D01*
X020609Y009163D01*
X020609Y009107D01*
X020552Y009050D01*
X020438Y009050D01*
X020382Y009107D01*
X020382Y009220D01*
X020382Y008390D02*
X020382Y008220D01*
X020495Y008277D01*
X020552Y008277D01*
X020609Y008220D01*
X020609Y008107D01*
X020552Y008050D01*
X020438Y008050D01*
X020382Y008107D01*
X020382Y008390D02*
X020609Y008390D01*
X020552Y007390D02*
X020382Y007220D01*
X020609Y007220D01*
X020552Y007050D02*
X020552Y007390D01*
X020552Y006390D02*
X020438Y006390D01*
X020382Y006334D01*
X020495Y006220D02*
X020552Y006220D01*
X020609Y006163D01*
X020609Y006107D01*
X020552Y006050D01*
X020438Y006050D01*
X020382Y006107D01*
X020552Y006220D02*
X020609Y006277D01*
X020609Y006334D01*
X020552Y006390D01*
X020552Y005390D02*
X020438Y005390D01*
X020382Y005334D01*
X020552Y005390D02*
X020609Y005334D01*
X020609Y005277D01*
X020382Y005050D01*
X020609Y005050D01*
X020609Y004390D02*
X020382Y004050D01*
X020609Y004050D02*
X020382Y004390D01*
X020240Y004390D02*
X020013Y004390D01*
X020127Y004390D02*
X020127Y004050D01*
X020184Y003390D02*
X020240Y003334D01*
X020240Y003220D01*
X020184Y003163D01*
X020013Y003163D01*
X020013Y003050D02*
X020013Y003390D01*
X020184Y003390D01*
X020382Y003390D02*
X020609Y003050D01*
X020382Y003050D02*
X020609Y003390D01*
X020240Y003050D02*
X020127Y003163D01*
D11*
X016970Y005720D02*
X016470Y005720D01*
X013960Y005748D02*
X011480Y005748D01*
X011480Y006692D01*
X013960Y006692D01*
X013960Y005748D01*
X013960Y007748D02*
X011480Y007748D01*
X011480Y008692D01*
X013960Y008692D01*
X013960Y007748D01*
X016470Y009720D02*
X016970Y009720D01*
X012720Y013970D02*
X012720Y014470D01*
X007470Y018220D02*
X006970Y018220D01*
X006970Y021220D02*
X007470Y021220D01*
X004220Y020610D02*
X004110Y020720D01*
X003720Y020720D01*
X003330Y020720D01*
X003220Y020610D01*
X003720Y020620D02*
X003720Y020720D01*
X003720Y019870D02*
X003720Y019570D01*
X003720Y018820D02*
X003720Y018720D01*
X004110Y018720D01*
X004220Y018830D01*
X003720Y018720D02*
X003330Y018720D01*
X003220Y018830D01*
X004720Y014470D02*
X004720Y013970D01*
X003830Y008720D02*
X003720Y008610D01*
X003720Y008220D01*
X003720Y007830D01*
X003830Y007720D01*
X003820Y008220D02*
X003720Y008220D01*
X004570Y008220D02*
X004870Y008220D01*
X005620Y008220D02*
X005720Y008220D01*
X005720Y008610D01*
X005610Y008720D01*
X005720Y008220D02*
X005720Y007830D01*
X005610Y007720D01*
X009220Y002470D02*
X009220Y001970D01*
X012220Y001970D02*
X012220Y002470D01*
M02*
