G75*
%MOIN*%
%OFA0B0*%
%FSLAX24Y24*%
%IPPOS*%
%LPD*%
%AMOC8*
5,1,8,0,0,1.08239X$1,22.5*
%
%ADD10C,0.0660*%
%ADD11C,0.0740*%
%ADD12C,0.0600*%
%ADD13C,0.0320*%
%ADD14C,0.0240*%
D10*
X001890Y003220D02*
X002550Y003220D01*
X002550Y004220D02*
X001890Y004220D01*
X001890Y005220D02*
X002550Y005220D01*
X002550Y006220D02*
X001890Y006220D01*
X001890Y007220D02*
X002550Y007220D01*
X002550Y008220D02*
X001890Y008220D01*
X001890Y010220D02*
X002550Y010220D01*
X002550Y011220D02*
X001890Y011220D01*
X001890Y012220D02*
X002550Y012220D01*
X002550Y013220D02*
X001890Y013220D01*
X001890Y014220D02*
X002550Y014220D01*
X002550Y015220D02*
X001890Y015220D01*
X001890Y016220D02*
X002550Y016220D01*
X002550Y017220D02*
X001890Y017220D01*
X005220Y014550D02*
X005220Y013890D01*
X006220Y013890D02*
X006220Y014550D01*
X007220Y014550D02*
X007220Y013890D01*
X008220Y013890D02*
X008220Y014550D01*
X009220Y014550D02*
X009220Y013890D01*
X010220Y013890D02*
X010220Y014550D01*
X011220Y014550D02*
X011220Y013890D01*
X012220Y013890D02*
X012220Y014550D01*
X016390Y009220D02*
X017050Y009220D01*
X017050Y008220D02*
X016390Y008220D01*
X016390Y007220D02*
X017050Y007220D01*
X017050Y006220D02*
X016390Y006220D01*
X020890Y006220D02*
X021550Y006220D01*
X021550Y007220D02*
X020890Y007220D01*
X020890Y008220D02*
X021550Y008220D01*
X021550Y009220D02*
X020890Y009220D01*
X020890Y010220D02*
X021550Y010220D01*
X021550Y011720D02*
X020890Y011720D01*
X020890Y012720D02*
X021550Y012720D01*
X021550Y013720D02*
X020890Y013720D01*
X020890Y014720D02*
X021550Y014720D01*
X021550Y015720D02*
X020890Y015720D01*
X020890Y016720D02*
X021550Y016720D01*
X021550Y017720D02*
X020890Y017720D01*
X020890Y018720D02*
X021550Y018720D01*
X021550Y019720D02*
X020890Y019720D01*
X020890Y020720D02*
X021550Y020720D01*
X021550Y005220D02*
X020890Y005220D01*
X020890Y004220D02*
X021550Y004220D01*
X021550Y003220D02*
X020890Y003220D01*
X011720Y002550D02*
X011720Y001890D01*
X010720Y001890D02*
X010720Y002550D01*
X009720Y002550D02*
X009720Y001890D01*
X007550Y018720D02*
X006890Y018720D01*
X006890Y019720D02*
X007550Y019720D01*
X007550Y020720D02*
X006890Y020720D01*
D11*
X010720Y008220D03*
X010720Y006220D03*
X014720Y006220D03*
X014720Y008220D03*
D12*
X005270Y008520D02*
X005270Y007920D01*
X004170Y007920D02*
X004170Y008520D01*
X004020Y019170D02*
X003420Y019170D01*
X003420Y020270D02*
X004020Y020270D01*
D13*
X003720Y019170D02*
X003720Y015720D01*
X003220Y015220D01*
X002220Y015220D01*
X002220Y013220D02*
X003720Y013220D01*
X007720Y009220D01*
X007720Y003220D01*
X008720Y002220D01*
X009720Y002220D01*
X011720Y002220D02*
X020220Y002220D01*
X019470Y004720D02*
X012720Y004720D01*
X012720Y010720D01*
X008220Y010720D01*
X006220Y012720D01*
X006220Y014220D01*
X005220Y014220D02*
X005220Y020720D01*
X007220Y020720D01*
X007220Y018720D02*
X010220Y018720D01*
X013970Y022470D01*
X012470Y018720D02*
X009220Y015470D01*
X009220Y014220D01*
X010220Y014220D02*
X010220Y013220D01*
X010470Y012970D01*
X018220Y012970D01*
X020220Y010970D01*
X021220Y010220D02*
X018720Y010220D01*
X016720Y009220D01*
X016720Y008220D02*
X014720Y008220D01*
X015720Y007220D02*
X014720Y006220D01*
X015720Y007220D02*
X016720Y007220D01*
X016720Y006220D02*
X017720Y006220D01*
X018470Y006970D01*
X018470Y008470D01*
X019220Y009220D01*
X021220Y009220D01*
X021220Y008220D02*
X019470Y008220D01*
X019470Y004720D01*
X019720Y013720D02*
X021220Y013720D01*
X019720Y013720D02*
X018720Y014220D01*
X012220Y014220D01*
X011220Y014220D02*
X011220Y015220D01*
X011720Y015720D01*
X019220Y015720D01*
X020220Y016720D01*
X021220Y016720D01*
X021220Y015720D02*
X021720Y015720D01*
X016470Y018720D02*
X019220Y021470D01*
X016470Y018720D02*
X012470Y018720D01*
X004270Y008220D02*
X004170Y008220D01*
X002220Y008220D01*
D14*
X001482Y001651D02*
X008526Y001651D01*
X008601Y001620D02*
X008998Y001620D01*
X009067Y001454D01*
X009284Y001237D01*
X009567Y001120D01*
X009873Y001120D01*
X010156Y001237D01*
X010373Y001454D01*
X010490Y001737D01*
X010490Y002703D01*
X010373Y002986D01*
X010156Y003203D01*
X009873Y003320D01*
X009567Y003320D01*
X009284Y003203D01*
X009067Y002986D01*
X008998Y002820D01*
X008969Y002820D01*
X008320Y003469D01*
X008320Y009339D01*
X008229Y009560D01*
X004229Y013560D01*
X004129Y013660D01*
X004482Y013660D01*
X004567Y013454D01*
X004784Y013237D01*
X005067Y013120D01*
X005373Y013120D01*
X005620Y013222D01*
X005620Y012601D01*
X005711Y012380D01*
X005880Y012211D01*
X007880Y010211D01*
X008101Y010120D01*
X012120Y010120D01*
X012120Y004601D01*
X012211Y004380D01*
X012380Y004211D01*
X012601Y004120D01*
X019589Y004120D01*
X019660Y004149D01*
X019660Y002820D01*
X012442Y002820D01*
X012373Y002986D01*
X012156Y003203D01*
X011873Y003320D01*
X011567Y003320D01*
X011284Y003203D01*
X011067Y002986D01*
X010950Y002703D01*
X010950Y001737D01*
X011067Y001454D01*
X011284Y001237D01*
X011567Y001120D01*
X011873Y001120D01*
X012156Y001237D01*
X012373Y001454D01*
X012442Y001620D01*
X020339Y001620D01*
X020560Y001711D01*
X020729Y001880D01*
X020820Y002101D01*
X020820Y002339D01*
X020780Y002436D01*
X020780Y002450D01*
X021703Y002450D01*
X021986Y002567D01*
X022203Y002784D01*
X022320Y003067D01*
X022320Y003373D01*
X022203Y003656D01*
X022139Y003720D01*
X022203Y003784D01*
X022320Y004067D01*
X022320Y004373D01*
X022203Y004656D01*
X022139Y004720D01*
X022203Y004784D01*
X022320Y005067D01*
X022320Y005373D01*
X022203Y005656D01*
X022199Y005660D01*
X023081Y005660D01*
X023230Y005722D01*
X023230Y002423D01*
X021517Y000710D01*
X002423Y000710D01*
X000710Y002423D01*
X000710Y020043D01*
X002950Y022730D01*
X013381Y022730D01*
X009971Y019320D01*
X008039Y019320D01*
X007986Y019373D01*
X007703Y019490D01*
X006737Y019490D01*
X006454Y019373D01*
X006237Y019156D01*
X006120Y018873D01*
X006120Y018567D01*
X006237Y018284D01*
X006454Y018067D01*
X006737Y017950D01*
X007703Y017950D01*
X007986Y018067D01*
X008039Y018120D01*
X010339Y018120D01*
X010560Y018211D01*
X014259Y021910D01*
X018811Y021910D01*
X016221Y019320D01*
X012351Y019320D01*
X012130Y019229D01*
X008880Y015979D01*
X008711Y015810D01*
X008620Y015589D01*
X008620Y015218D01*
X008373Y015320D01*
X008067Y015320D01*
X007784Y015203D01*
X007567Y014986D01*
X007450Y014703D01*
X007450Y013737D01*
X007567Y013454D01*
X007784Y013237D01*
X008067Y013120D01*
X008373Y013120D01*
X008656Y013237D01*
X008720Y013301D01*
X008784Y013237D01*
X009067Y013120D01*
X009373Y013120D01*
X009620Y013222D01*
X009620Y013101D01*
X009711Y012880D01*
X009880Y012711D01*
X010130Y012461D01*
X010351Y012370D01*
X017971Y012370D01*
X019521Y010820D01*
X018817Y010820D01*
X018797Y010827D01*
X018699Y010820D01*
X018601Y010820D01*
X018580Y010812D01*
X018558Y010810D01*
X018471Y010766D01*
X018380Y010729D01*
X018365Y010713D01*
X016918Y009990D01*
X016237Y009990D01*
X015954Y009873D01*
X015737Y009656D01*
X015620Y009373D01*
X015620Y009067D01*
X015722Y008820D01*
X015266Y008820D01*
X015179Y008907D01*
X014881Y009030D01*
X014559Y009030D01*
X014261Y008907D01*
X014033Y008679D01*
X013910Y008381D01*
X013910Y008059D01*
X014033Y007761D01*
X014261Y007533D01*
X014559Y007410D01*
X014881Y007410D01*
X015179Y007533D01*
X015266Y007620D01*
X015271Y007620D01*
X014681Y007030D01*
X014559Y007030D01*
X014261Y006907D01*
X014033Y006679D01*
X013910Y006381D01*
X013910Y006059D01*
X014033Y005761D01*
X014261Y005533D01*
X014559Y005410D01*
X014881Y005410D01*
X015179Y005533D01*
X015407Y005761D01*
X015530Y006059D01*
X015530Y006181D01*
X015620Y006271D01*
X015620Y006067D01*
X015737Y005784D01*
X015954Y005567D01*
X016237Y005450D01*
X017203Y005450D01*
X017486Y005567D01*
X017539Y005620D01*
X017839Y005620D01*
X018060Y005711D01*
X018229Y005880D01*
X018870Y006521D01*
X018870Y005320D01*
X013320Y005320D01*
X013320Y010839D01*
X013229Y011060D01*
X013060Y011229D01*
X012839Y011320D01*
X008469Y011320D01*
X006820Y012969D01*
X006820Y013401D01*
X006873Y013454D01*
X006990Y013737D01*
X006990Y014703D01*
X006873Y014986D01*
X006656Y015203D01*
X006373Y015320D01*
X006067Y015320D01*
X005820Y015218D01*
X005820Y020120D01*
X006401Y020120D01*
X006454Y020067D01*
X006737Y019950D01*
X007703Y019950D01*
X007986Y020067D01*
X008203Y020284D01*
X008320Y020567D01*
X008320Y020873D01*
X008203Y021156D01*
X007986Y021373D01*
X007703Y021490D01*
X006737Y021490D01*
X006454Y021373D01*
X006401Y021320D01*
X005101Y021320D01*
X004880Y021229D01*
X004711Y021060D01*
X004620Y020839D01*
X004620Y020717D01*
X004439Y020897D01*
X004167Y021010D01*
X003273Y021010D01*
X003001Y020897D01*
X002793Y020689D01*
X002680Y020417D01*
X002680Y020123D01*
X002793Y019851D01*
X002923Y019720D01*
X002793Y019589D01*
X002680Y019317D01*
X002680Y019023D01*
X002793Y018751D01*
X003001Y018543D01*
X003120Y018493D01*
X003120Y017739D01*
X002986Y017873D01*
X002703Y017990D01*
X001737Y017990D01*
X001454Y017873D01*
X001237Y017656D01*
X001120Y017373D01*
X001120Y017067D01*
X001237Y016784D01*
X001301Y016720D01*
X001237Y016656D01*
X001120Y016373D01*
X001120Y016067D01*
X001237Y015784D01*
X001301Y015720D01*
X001237Y015656D01*
X001120Y015373D01*
X001120Y015067D01*
X001237Y014784D01*
X001301Y014720D01*
X001237Y014656D01*
X001120Y014373D01*
X001120Y014067D01*
X001237Y013784D01*
X001301Y013720D01*
X001237Y013656D01*
X001120Y013373D01*
X001120Y013067D01*
X001237Y012784D01*
X001454Y012567D01*
X001737Y012450D01*
X002703Y012450D01*
X002986Y012567D01*
X003039Y012620D01*
X003471Y012620D01*
X007120Y008971D01*
X007120Y003101D01*
X007211Y002880D01*
X007380Y002711D01*
X008380Y001711D01*
X008601Y001620D01*
X008202Y001890D02*
X001243Y001890D01*
X001005Y002128D02*
X007963Y002128D01*
X007725Y002367D02*
X000766Y002367D01*
X000710Y002605D02*
X001416Y002605D01*
X001454Y002567D02*
X001737Y002450D01*
X002703Y002450D01*
X002986Y002567D01*
X003203Y002784D01*
X003320Y003067D01*
X003320Y003373D01*
X003203Y003656D01*
X003139Y003720D01*
X003203Y003784D01*
X003320Y004067D01*
X003320Y004373D01*
X003203Y004656D01*
X003139Y004720D01*
X003203Y004784D01*
X003320Y005067D01*
X003320Y005373D01*
X003203Y005656D01*
X003139Y005720D01*
X003203Y005784D01*
X003320Y006067D01*
X003320Y006373D01*
X003203Y006656D01*
X003139Y006720D01*
X003203Y006784D01*
X003320Y007067D01*
X003320Y007373D01*
X003218Y007620D01*
X003493Y007620D01*
X003543Y007501D01*
X003751Y007293D01*
X004023Y007180D01*
X004317Y007180D01*
X004589Y007293D01*
X004797Y007501D01*
X004910Y007773D01*
X004910Y008667D01*
X004797Y008939D01*
X004589Y009147D01*
X004317Y009260D01*
X004023Y009260D01*
X003751Y009147D01*
X003543Y008939D01*
X003493Y008820D01*
X003039Y008820D01*
X002986Y008873D01*
X002703Y008990D01*
X001737Y008990D01*
X001454Y008873D01*
X001237Y008656D01*
X001120Y008373D01*
X001120Y008067D01*
X001237Y007784D01*
X001301Y007720D01*
X001237Y007656D01*
X001120Y007373D01*
X001120Y007067D01*
X001237Y006784D01*
X001301Y006720D01*
X001237Y006656D01*
X001120Y006373D01*
X001120Y006067D01*
X001237Y005784D01*
X001301Y005720D01*
X001237Y005656D01*
X001120Y005373D01*
X001120Y005067D01*
X001237Y004784D01*
X001301Y004720D01*
X001237Y004656D01*
X001120Y004373D01*
X001120Y004067D01*
X001237Y003784D01*
X001301Y003720D01*
X001237Y003656D01*
X001120Y003373D01*
X001120Y003067D01*
X001237Y002784D01*
X001454Y002567D01*
X001213Y002844D02*
X000710Y002844D01*
X000710Y003082D02*
X001120Y003082D01*
X001120Y003321D02*
X000710Y003321D01*
X000710Y003559D02*
X001197Y003559D01*
X001232Y003798D02*
X000710Y003798D01*
X000710Y004036D02*
X001133Y004036D01*
X001120Y004275D02*
X000710Y004275D01*
X000710Y004513D02*
X001178Y004513D01*
X001270Y004752D02*
X000710Y004752D01*
X000710Y004990D02*
X001152Y004990D01*
X001120Y005229D02*
X000710Y005229D01*
X000710Y005467D02*
X001159Y005467D01*
X001287Y005706D02*
X000710Y005706D01*
X000710Y005944D02*
X001171Y005944D01*
X001120Y006183D02*
X000710Y006183D01*
X000710Y006421D02*
X001140Y006421D01*
X001241Y006660D02*
X000710Y006660D01*
X000710Y006898D02*
X001190Y006898D01*
X001120Y007137D02*
X000710Y007137D01*
X000710Y007375D02*
X001121Y007375D01*
X001220Y007614D02*
X000710Y007614D01*
X000710Y007852D02*
X001209Y007852D01*
X001120Y008091D02*
X000710Y008091D01*
X000710Y008329D02*
X001120Y008329D01*
X001201Y008568D02*
X000710Y008568D01*
X000710Y008806D02*
X001387Y008806D01*
X001737Y009450D02*
X001454Y009567D01*
X001237Y009784D01*
X001120Y010067D01*
X001120Y010373D01*
X001237Y010656D01*
X001454Y010873D01*
X001737Y010990D01*
X002703Y010990D01*
X002986Y010873D01*
X003203Y010656D01*
X003320Y010373D01*
X003320Y010067D01*
X003203Y009784D01*
X002986Y009567D01*
X002703Y009450D01*
X001737Y009450D01*
X001564Y009522D02*
X000710Y009522D01*
X000710Y009760D02*
X001261Y009760D01*
X001148Y009999D02*
X000710Y009999D01*
X000710Y010237D02*
X001120Y010237D01*
X001162Y010476D02*
X000710Y010476D01*
X000710Y010714D02*
X001295Y010714D01*
X001646Y010953D02*
X000710Y010953D01*
X000710Y011191D02*
X004900Y011191D01*
X004662Y011430D02*
X000710Y011430D01*
X000710Y011668D02*
X004423Y011668D01*
X004185Y011907D02*
X000710Y011907D01*
X000710Y012145D02*
X003946Y012145D01*
X003708Y012384D02*
X000710Y012384D01*
X000710Y012622D02*
X001399Y012622D01*
X001205Y012861D02*
X000710Y012861D01*
X000710Y013099D02*
X001120Y013099D01*
X001120Y013338D02*
X000710Y013338D01*
X000710Y013576D02*
X001204Y013576D01*
X001225Y013815D02*
X000710Y013815D01*
X000710Y014053D02*
X001126Y014053D01*
X001120Y014292D02*
X000710Y014292D01*
X000710Y014530D02*
X001185Y014530D01*
X001253Y014769D02*
X000710Y014769D01*
X000710Y015007D02*
X001145Y015007D01*
X001120Y015246D02*
X000710Y015246D01*
X000710Y015484D02*
X001166Y015484D01*
X001299Y015723D02*
X000710Y015723D01*
X000710Y015961D02*
X001164Y015961D01*
X001120Y016200D02*
X000710Y016200D01*
X000710Y016438D02*
X001147Y016438D01*
X001258Y016677D02*
X000710Y016677D01*
X000710Y016915D02*
X001183Y016915D01*
X001120Y017154D02*
X000710Y017154D01*
X000710Y017392D02*
X001128Y017392D01*
X001227Y017631D02*
X000710Y017631D01*
X000710Y017869D02*
X001450Y017869D01*
X000710Y018108D02*
X003120Y018108D01*
X003120Y018346D02*
X000710Y018346D01*
X000710Y018585D02*
X002959Y018585D01*
X002763Y018823D02*
X000710Y018823D01*
X000710Y019062D02*
X002680Y019062D01*
X002680Y019300D02*
X000710Y019300D01*
X000710Y019539D02*
X002772Y019539D01*
X002866Y019777D02*
X000710Y019777D01*
X000710Y020016D02*
X002724Y020016D01*
X002680Y020254D02*
X000886Y020254D01*
X001085Y020493D02*
X002711Y020493D01*
X002835Y020731D02*
X001284Y020731D01*
X001482Y020970D02*
X003175Y020970D01*
X002277Y021924D02*
X012575Y021924D01*
X012813Y022162D02*
X002476Y022162D01*
X002675Y022401D02*
X013052Y022401D01*
X013290Y022639D02*
X002874Y022639D01*
X002079Y021685D02*
X012336Y021685D01*
X012098Y021447D02*
X007808Y021447D01*
X008151Y021208D02*
X011859Y021208D01*
X011621Y020970D02*
X008280Y020970D01*
X008320Y020731D02*
X011382Y020731D01*
X011144Y020493D02*
X008289Y020493D01*
X008173Y020254D02*
X010905Y020254D01*
X010667Y020016D02*
X007861Y020016D01*
X006579Y020016D02*
X005820Y020016D01*
X005820Y019777D02*
X010428Y019777D01*
X010190Y019539D02*
X005820Y019539D01*
X005820Y019300D02*
X006381Y019300D01*
X006198Y019062D02*
X005820Y019062D01*
X005820Y018823D02*
X006120Y018823D01*
X006120Y018585D02*
X005820Y018585D01*
X005820Y018346D02*
X006211Y018346D01*
X006414Y018108D02*
X005820Y018108D01*
X005820Y017869D02*
X010770Y017869D01*
X010532Y017631D02*
X005820Y017631D01*
X005820Y017392D02*
X010293Y017392D01*
X010055Y017154D02*
X005820Y017154D01*
X005820Y016915D02*
X009816Y016915D01*
X009578Y016677D02*
X005820Y016677D01*
X005820Y016438D02*
X009339Y016438D01*
X009101Y016200D02*
X005820Y016200D01*
X005820Y015961D02*
X008862Y015961D01*
X008675Y015723D02*
X005820Y015723D01*
X005820Y015484D02*
X008620Y015484D01*
X008620Y015246D02*
X008553Y015246D01*
X007887Y015246D02*
X006553Y015246D01*
X006852Y015007D02*
X007588Y015007D01*
X007477Y014769D02*
X006963Y014769D01*
X006990Y014530D02*
X007450Y014530D01*
X007450Y014292D02*
X006990Y014292D01*
X006990Y014053D02*
X007450Y014053D01*
X007450Y013815D02*
X006990Y013815D01*
X006923Y013576D02*
X007517Y013576D01*
X007684Y013338D02*
X006820Y013338D01*
X006820Y013099D02*
X009621Y013099D01*
X009731Y012861D02*
X006928Y012861D01*
X007167Y012622D02*
X009969Y012622D01*
X010318Y012384D02*
X007405Y012384D01*
X007644Y012145D02*
X018196Y012145D01*
X018435Y011907D02*
X007882Y011907D01*
X008121Y011668D02*
X018673Y011668D01*
X018912Y011430D02*
X008359Y011430D01*
X007616Y010476D02*
X007313Y010476D01*
X007377Y010714D02*
X007075Y010714D01*
X007139Y010953D02*
X006836Y010953D01*
X006900Y011191D02*
X006598Y011191D01*
X006662Y011430D02*
X006359Y011430D01*
X006423Y011668D02*
X006121Y011668D01*
X006185Y011907D02*
X005882Y011907D01*
X005946Y012145D02*
X005644Y012145D01*
X005710Y012384D02*
X005405Y012384D01*
X005620Y012622D02*
X005167Y012622D01*
X004928Y012861D02*
X005620Y012861D01*
X005620Y013099D02*
X004690Y013099D01*
X004684Y013338D02*
X004451Y013338D01*
X004517Y013576D02*
X004213Y013576D01*
X005220Y014220D02*
X002220Y014220D01*
X002220Y012220D02*
X002220Y011220D01*
X002794Y010953D02*
X005139Y010953D01*
X005377Y010714D02*
X003145Y010714D01*
X003278Y010476D02*
X005616Y010476D01*
X005854Y010237D02*
X003320Y010237D01*
X003292Y009999D02*
X006093Y009999D01*
X006331Y009760D02*
X003179Y009760D01*
X002876Y009522D02*
X006570Y009522D01*
X006808Y009283D02*
X000710Y009283D01*
X000710Y009045D02*
X003648Y009045D01*
X004692Y009045D02*
X007047Y009045D01*
X007120Y008806D02*
X004853Y008806D01*
X004910Y008568D02*
X007120Y008568D01*
X007120Y008329D02*
X004910Y008329D01*
X004910Y008091D02*
X007120Y008091D01*
X007120Y007852D02*
X004910Y007852D01*
X004844Y007614D02*
X007120Y007614D01*
X007120Y007375D02*
X004672Y007375D01*
X003668Y007375D02*
X003319Y007375D01*
X003320Y007137D02*
X007120Y007137D01*
X007120Y006898D02*
X003250Y006898D01*
X003199Y006660D02*
X007120Y006660D01*
X007120Y006421D02*
X003300Y006421D01*
X003320Y006183D02*
X007120Y006183D01*
X007120Y005944D02*
X003269Y005944D01*
X003153Y005706D02*
X007120Y005706D01*
X007120Y005467D02*
X003281Y005467D01*
X003320Y005229D02*
X007120Y005229D01*
X007120Y004990D02*
X003288Y004990D01*
X003170Y004752D02*
X007120Y004752D01*
X007120Y004513D02*
X003262Y004513D01*
X003320Y004275D02*
X007120Y004275D01*
X007120Y004036D02*
X003307Y004036D01*
X003208Y003798D02*
X007120Y003798D01*
X007120Y003559D02*
X003243Y003559D01*
X003320Y003321D02*
X007120Y003321D01*
X007128Y003082D02*
X003320Y003082D01*
X003227Y002844D02*
X007248Y002844D01*
X007486Y002605D02*
X003024Y002605D01*
X001959Y001174D02*
X009436Y001174D01*
X009109Y001413D02*
X001720Y001413D01*
X002197Y000936D02*
X021743Y000936D01*
X021981Y001174D02*
X012004Y001174D01*
X012331Y001413D02*
X022220Y001413D01*
X022458Y001651D02*
X020414Y001651D01*
X020733Y001890D02*
X022697Y001890D01*
X022935Y002128D02*
X020820Y002128D01*
X020809Y002367D02*
X023174Y002367D01*
X023230Y002605D02*
X022024Y002605D01*
X022227Y002844D02*
X023230Y002844D01*
X023230Y003082D02*
X022320Y003082D01*
X022320Y003321D02*
X023230Y003321D01*
X023230Y003559D02*
X022243Y003559D01*
X022208Y003798D02*
X023230Y003798D01*
X023230Y004036D02*
X022307Y004036D01*
X022320Y004275D02*
X023230Y004275D01*
X023230Y004513D02*
X022262Y004513D01*
X022170Y004752D02*
X023230Y004752D01*
X023230Y004990D02*
X022288Y004990D01*
X022320Y005229D02*
X023230Y005229D01*
X023230Y005467D02*
X022281Y005467D01*
X023191Y005706D02*
X023230Y005706D01*
X022970Y006220D02*
X021220Y006220D01*
X021220Y007220D02*
X020220Y007220D01*
X020220Y002220D01*
X019660Y002844D02*
X012432Y002844D01*
X012277Y003082D02*
X019660Y003082D01*
X019660Y003321D02*
X008468Y003321D01*
X008320Y003559D02*
X019660Y003559D01*
X019660Y003798D02*
X008320Y003798D01*
X008320Y004036D02*
X019660Y004036D01*
X018870Y005467D02*
X017244Y005467D01*
X018046Y005706D02*
X018870Y005706D01*
X018870Y005944D02*
X018293Y005944D01*
X018531Y006183D02*
X018870Y006183D01*
X018870Y006421D02*
X018770Y006421D01*
X021220Y008220D02*
X021720Y008220D01*
X022970Y006220D02*
X022970Y021470D01*
X021970Y022470D01*
X013970Y022470D01*
X014034Y021685D02*
X018586Y021685D01*
X018348Y021447D02*
X013795Y021447D01*
X013557Y021208D02*
X018109Y021208D01*
X017871Y020970D02*
X013318Y020970D01*
X013080Y020731D02*
X017632Y020731D01*
X017394Y020493D02*
X012841Y020493D01*
X012603Y020254D02*
X017155Y020254D01*
X016917Y020016D02*
X012364Y020016D01*
X012126Y019777D02*
X016678Y019777D01*
X016440Y019539D02*
X011887Y019539D01*
X011649Y019300D02*
X012302Y019300D01*
X011963Y019062D02*
X011410Y019062D01*
X011172Y018823D02*
X011724Y018823D01*
X011486Y018585D02*
X010933Y018585D01*
X010695Y018346D02*
X011247Y018346D01*
X011009Y018108D02*
X008026Y018108D01*
X010321Y015723D02*
X010874Y015723D01*
X010711Y015560D02*
X010620Y015339D01*
X010620Y015218D01*
X010373Y015320D01*
X010067Y015320D01*
X009820Y015218D01*
X009820Y015221D01*
X012719Y018120D01*
X016589Y018120D01*
X016810Y018211D01*
X016979Y018380D01*
X019509Y020910D01*
X020135Y020910D01*
X020120Y020873D01*
X020120Y020567D01*
X020237Y020284D01*
X020301Y020220D01*
X020237Y020156D01*
X020120Y019873D01*
X020120Y019567D01*
X020237Y019284D01*
X020301Y019220D01*
X020237Y019156D01*
X020120Y018873D01*
X020120Y018567D01*
X020237Y018284D01*
X020454Y018067D01*
X020737Y017950D01*
X021703Y017950D01*
X021910Y018036D01*
X021910Y017404D01*
X021703Y017490D01*
X020737Y017490D01*
X020454Y017373D01*
X020401Y017320D01*
X020101Y017320D01*
X019880Y017229D01*
X019711Y017060D01*
X018971Y016320D01*
X011601Y016320D01*
X011380Y016229D01*
X011211Y016060D01*
X010711Y015560D01*
X010680Y015484D02*
X010083Y015484D01*
X009887Y015246D02*
X009844Y015246D01*
X010553Y015246D02*
X010620Y015246D01*
X010560Y015961D02*
X011112Y015961D01*
X011351Y016200D02*
X010798Y016200D01*
X011037Y016438D02*
X019089Y016438D01*
X019328Y016677D02*
X011275Y016677D01*
X011514Y016915D02*
X019566Y016915D01*
X019805Y017154D02*
X011752Y017154D01*
X011991Y017392D02*
X020500Y017392D01*
X020414Y018108D02*
X012706Y018108D01*
X012468Y017869D02*
X021910Y017869D01*
X021910Y017631D02*
X012229Y017631D01*
X016945Y018346D02*
X020211Y018346D01*
X020120Y018585D02*
X017183Y018585D01*
X017422Y018823D02*
X020120Y018823D01*
X020198Y019062D02*
X017660Y019062D01*
X017899Y019300D02*
X020231Y019300D01*
X020132Y019539D02*
X018137Y019539D01*
X018376Y019777D02*
X020120Y019777D01*
X020179Y020016D02*
X018614Y020016D01*
X018853Y020254D02*
X020267Y020254D01*
X020151Y020493D02*
X019091Y020493D01*
X019330Y020731D02*
X020120Y020731D01*
X019220Y021470D02*
X021720Y021470D01*
X022470Y020720D01*
X022470Y016470D01*
X021720Y015720D01*
X021220Y014720D02*
X022470Y014720D01*
X022470Y010970D01*
X020220Y010970D01*
X019389Y010953D02*
X013273Y010953D01*
X013320Y010714D02*
X018365Y010714D01*
X017889Y010476D02*
X013320Y010476D01*
X013320Y010237D02*
X017412Y010237D01*
X016935Y009999D02*
X013320Y009999D01*
X013320Y009760D02*
X015841Y009760D01*
X015681Y009522D02*
X013320Y009522D01*
X013320Y009283D02*
X015620Y009283D01*
X015629Y009045D02*
X013320Y009045D01*
X013320Y008806D02*
X014160Y008806D01*
X013987Y008568D02*
X013320Y008568D01*
X013320Y008329D02*
X013910Y008329D01*
X013910Y008091D02*
X013320Y008091D01*
X013320Y007852D02*
X013996Y007852D01*
X014181Y007614D02*
X013320Y007614D01*
X013320Y007375D02*
X015026Y007375D01*
X015259Y007614D02*
X015265Y007614D01*
X014788Y007137D02*
X013320Y007137D01*
X013320Y006898D02*
X014252Y006898D01*
X014025Y006660D02*
X013320Y006660D01*
X013320Y006421D02*
X013927Y006421D01*
X013910Y006183D02*
X013320Y006183D01*
X013320Y005944D02*
X013958Y005944D01*
X014089Y005706D02*
X013320Y005706D01*
X013320Y005467D02*
X014421Y005467D01*
X015019Y005467D02*
X016196Y005467D01*
X015816Y005706D02*
X015351Y005706D01*
X015482Y005944D02*
X015671Y005944D01*
X015620Y006183D02*
X015531Y006183D01*
X012120Y006183D02*
X008320Y006183D01*
X008320Y006421D02*
X012120Y006421D01*
X012120Y006660D02*
X008320Y006660D01*
X008320Y006898D02*
X012120Y006898D01*
X012120Y007137D02*
X008320Y007137D01*
X008320Y007375D02*
X012120Y007375D01*
X012120Y007614D02*
X008320Y007614D01*
X008320Y007852D02*
X012120Y007852D01*
X012120Y008091D02*
X008320Y008091D01*
X008320Y008329D02*
X012120Y008329D01*
X012120Y008568D02*
X008320Y008568D01*
X008320Y008806D02*
X012120Y008806D01*
X012120Y009045D02*
X008320Y009045D01*
X008320Y009283D02*
X012120Y009283D01*
X012120Y009522D02*
X008245Y009522D01*
X008029Y009760D02*
X012120Y009760D01*
X012120Y009999D02*
X007790Y009999D01*
X007854Y010237D02*
X007552Y010237D01*
X010720Y008220D02*
X010720Y006220D01*
X010720Y002220D01*
X010490Y002128D02*
X010950Y002128D01*
X010950Y001890D02*
X010490Y001890D01*
X010454Y001651D02*
X010986Y001651D01*
X011109Y001413D02*
X010331Y001413D01*
X010004Y001174D02*
X011436Y001174D01*
X010950Y002367D02*
X010490Y002367D01*
X010490Y002605D02*
X010950Y002605D01*
X011008Y002844D02*
X010432Y002844D01*
X010277Y003082D02*
X011163Y003082D01*
X012317Y004275D02*
X008320Y004275D01*
X008320Y004513D02*
X012156Y004513D01*
X012120Y004752D02*
X008320Y004752D01*
X008320Y004990D02*
X012120Y004990D01*
X012120Y005229D02*
X008320Y005229D01*
X008320Y005467D02*
X012120Y005467D01*
X012120Y005706D02*
X008320Y005706D01*
X008320Y005944D02*
X012120Y005944D01*
X009163Y003082D02*
X008707Y003082D01*
X008945Y002844D02*
X009008Y002844D01*
X003496Y007614D02*
X003220Y007614D01*
X005820Y015246D02*
X005887Y015246D01*
X003120Y017869D02*
X002990Y017869D01*
X004605Y020731D02*
X004620Y020731D01*
X004674Y020970D02*
X004265Y020970D01*
X004859Y021208D02*
X001681Y021208D01*
X001880Y021447D02*
X006632Y021447D01*
X013098Y011191D02*
X019150Y011191D01*
M02*
