%
M48
M72
T01C0.0354
T02C0.0400
T03C0.0440
%
T01
X10720Y6220
X10720Y8220
X14720Y8220
X14720Y6220
T02
X2220Y3220
X2220Y4220
X2220Y5220
X2220Y6220
X2220Y7220
X2220Y8220
X2220Y10220
X2220Y11220
X2220Y12220
X2220Y13220
X2220Y14220
X2220Y15220
X2220Y16220
X2220Y17220
X3720Y19170
X3720Y20270
X4170Y8220
X5270Y8220
X21220Y8220
X21220Y7220
X21220Y6220
X21220Y5220
X21220Y4220
X21220Y3220
X21220Y9220
X21220Y10220
X21220Y11720
X21220Y12720
X21220Y13720
X21220Y14720
X21220Y15720
X21220Y16720
X21220Y17720
X21220Y18720
X21220Y19720
X21220Y20720
T03
X12220Y14220
X11220Y14220
X10220Y14220
X9220Y14220
X8220Y14220
X7220Y14220
X6220Y14220
X5220Y14220
X7220Y18720
X7220Y19720
X7220Y20720
X16720Y9220
X16720Y8220
X16720Y7220
X16720Y6220
X11720Y2220
X10720Y2220
X9720Y2220
M30
