G75*
%MOIN*%
%OFA0B0*%
%FSLAX24Y24*%
%IPPOS*%
%LPD*%
%AMOC8*
5,1,8,0,0,1.08239X$1,22.5*
%
%ADD10C,0.0100*%
%ADD11C,0.0660*%
%ADD12C,0.0740*%
%ADD13C,0.0600*%
%ADD14C,0.0320*%
%ADD15R,0.0480X0.0480*%
D10*
X000900Y001150D02*
X020900Y001150D01*
X021650Y001900D01*
X021650Y019650D01*
X020900Y020400D01*
X001900Y020400D01*
X000150Y018650D01*
X000150Y001900D01*
X000900Y001150D01*
D11*
X001070Y002150D02*
X001730Y002150D01*
X001730Y003150D02*
X001070Y003150D01*
X001070Y004150D02*
X001730Y004150D01*
X001730Y005150D02*
X001070Y005150D01*
X001070Y006150D02*
X001730Y006150D01*
X001730Y007150D02*
X001070Y007150D01*
X001070Y009150D02*
X001730Y009150D01*
X001730Y010150D02*
X001070Y010150D01*
X001070Y011150D02*
X001730Y011150D01*
X001730Y012150D02*
X001070Y012150D01*
X001070Y013150D02*
X001730Y013150D01*
X001730Y014150D02*
X001070Y014150D01*
X001070Y015150D02*
X001730Y015150D01*
X001730Y016150D02*
X001070Y016150D01*
X004900Y013480D02*
X004900Y012820D01*
X005900Y012820D02*
X005900Y013480D01*
X006900Y013480D02*
X006900Y012820D01*
X007900Y012820D02*
X007900Y013480D01*
X008900Y013480D02*
X008900Y012820D01*
X009900Y012820D02*
X009900Y013480D01*
X010900Y013480D02*
X010900Y012820D01*
X011900Y012820D02*
X011900Y013480D01*
X015570Y008150D02*
X016230Y008150D01*
X016230Y007150D02*
X015570Y007150D01*
X015570Y006150D02*
X016230Y006150D01*
X016230Y005150D02*
X015570Y005150D01*
X020070Y005150D02*
X020730Y005150D01*
X020730Y006150D02*
X020070Y006150D01*
X020070Y007150D02*
X020730Y007150D01*
X020730Y008150D02*
X020070Y008150D01*
X020070Y009150D02*
X020730Y009150D01*
X020730Y010650D02*
X020070Y010650D01*
X020070Y011650D02*
X020730Y011650D01*
X020730Y012650D02*
X020070Y012650D01*
X020070Y013650D02*
X020730Y013650D01*
X020730Y014650D02*
X020070Y014650D01*
X020070Y015650D02*
X020730Y015650D01*
X020730Y016650D02*
X020070Y016650D01*
X020070Y017650D02*
X020730Y017650D01*
X020730Y018650D02*
X020070Y018650D01*
X020070Y019650D02*
X020730Y019650D01*
X020730Y004150D02*
X020070Y004150D01*
X020070Y003150D02*
X020730Y003150D01*
X020730Y002150D02*
X020070Y002150D01*
X008900Y002320D02*
X008900Y002980D01*
X007900Y002980D02*
X007900Y002320D01*
X006900Y002320D02*
X006900Y002980D01*
X006730Y017150D02*
X006070Y017150D01*
X006070Y018150D02*
X006730Y018150D01*
X006730Y019150D02*
X006070Y019150D01*
D12*
X009900Y007150D03*
X009900Y005150D03*
X013900Y005150D03*
X013900Y007150D03*
D13*
X004200Y017850D02*
X003600Y017850D01*
X003600Y018950D02*
X004200Y018950D01*
X002200Y018950D02*
X001600Y018950D01*
X001600Y017850D02*
X002200Y017850D01*
D14*
X002650Y017150D02*
X003900Y017150D01*
X003900Y017850D01*
X004540Y017147D02*
X004540Y017023D01*
X004443Y016787D01*
X004263Y016607D01*
X004027Y016510D01*
X003290Y016510D01*
X003290Y007023D01*
X003193Y006787D01*
X003013Y006607D01*
X002777Y006510D01*
X002458Y006510D01*
X002540Y006311D01*
X002540Y005989D01*
X002417Y005691D01*
X002376Y005650D01*
X002417Y005609D01*
X002540Y005311D01*
X002540Y004989D01*
X002417Y004691D01*
X002376Y004650D01*
X002417Y004609D01*
X002540Y004311D01*
X002540Y003989D01*
X002417Y003691D01*
X002376Y003650D01*
X002417Y003609D01*
X002540Y003311D01*
X002540Y002989D01*
X002417Y002691D01*
X002376Y002650D01*
X002417Y002609D01*
X002540Y002311D01*
X002540Y001989D01*
X002417Y001691D01*
X002406Y001680D01*
X006394Y001680D01*
X006213Y001861D01*
X006090Y002159D01*
X006090Y003141D01*
X006213Y003439D01*
X006441Y003667D01*
X006739Y003790D01*
X007061Y003790D01*
X007359Y003667D01*
X007504Y003521D01*
X007527Y003538D01*
X007603Y003582D01*
X007684Y003616D01*
X007769Y003639D01*
X007856Y003650D01*
X007900Y003650D01*
X007900Y002650D01*
X007900Y003150D01*
X009900Y005150D01*
X006900Y008150D01*
X005400Y008150D01*
X003400Y010150D01*
X003400Y016150D01*
X003650Y016400D01*
X004150Y016400D01*
X005400Y017650D01*
X005400Y018150D01*
X006400Y018150D01*
X007400Y018150D01*
X007400Y018194D01*
X007389Y018281D01*
X007366Y018366D01*
X007332Y018447D01*
X007296Y018510D01*
X007760Y018510D01*
X007760Y016415D01*
X007040Y015695D01*
X007040Y016402D01*
X007189Y016463D01*
X007417Y016691D01*
X007540Y016989D01*
X007540Y017311D01*
X007417Y017609D01*
X007271Y017754D01*
X007288Y017777D01*
X007332Y017853D01*
X007366Y017934D01*
X007389Y018019D01*
X007400Y018106D01*
X007400Y018150D01*
X006400Y018150D01*
X006400Y018150D01*
X006400Y018150D01*
X005400Y018150D01*
X004600Y018950D01*
X003900Y018950D01*
X003900Y018950D01*
X003900Y019590D01*
X004242Y019590D01*
X004325Y019579D01*
X004406Y019557D01*
X004484Y019525D01*
X004556Y019483D01*
X004623Y019432D01*
X004682Y019373D01*
X004733Y019306D01*
X004775Y019234D01*
X004807Y019156D01*
X004829Y019075D01*
X004840Y018992D01*
X004840Y018950D01*
X003900Y018950D01*
X003900Y018950D01*
X003900Y019590D01*
X003558Y019590D01*
X003475Y019579D01*
X003394Y019557D01*
X003316Y019525D01*
X003244Y019483D01*
X003177Y019432D01*
X003118Y019373D01*
X003067Y019306D01*
X003025Y019234D01*
X002993Y019156D01*
X002979Y019107D01*
X002861Y019392D01*
X002642Y019611D01*
X002355Y019730D01*
X001980Y019730D01*
X002120Y019870D01*
X005692Y019870D01*
X005611Y019837D01*
X005383Y019609D01*
X005260Y019311D01*
X005260Y018989D01*
X005383Y018691D01*
X005529Y018546D01*
X005512Y018523D01*
X005468Y018447D01*
X005434Y018366D01*
X005411Y018281D01*
X005400Y018194D01*
X005400Y018150D01*
X005400Y018106D01*
X005411Y018019D01*
X005434Y017934D01*
X005468Y017853D01*
X005512Y017777D01*
X005529Y017754D01*
X005383Y017609D01*
X005260Y017311D01*
X005260Y016989D01*
X005383Y016691D01*
X005611Y016463D01*
X005760Y016402D01*
X005760Y016290D01*
X004023Y016290D01*
X003787Y016193D01*
X003607Y016013D01*
X003510Y015777D01*
X003510Y010523D01*
X003607Y010287D01*
X003787Y010107D01*
X004023Y010010D01*
X018010Y010010D01*
X018010Y005023D01*
X018107Y004787D01*
X018287Y004607D01*
X018523Y004510D01*
X019342Y004510D01*
X019260Y004311D01*
X019260Y003989D01*
X019383Y003691D01*
X019424Y003650D01*
X019383Y003609D01*
X019260Y003311D01*
X019260Y002989D01*
X019383Y002691D01*
X019424Y002650D01*
X019383Y002609D01*
X019260Y002311D01*
X019260Y001989D01*
X019383Y001691D01*
X019394Y001680D01*
X009406Y001680D01*
X009587Y001861D01*
X009710Y002159D01*
X009710Y003141D01*
X009587Y003439D01*
X009359Y003667D01*
X009061Y003790D01*
X008739Y003790D01*
X008441Y003667D01*
X008296Y003521D01*
X008273Y003538D01*
X008197Y003582D01*
X008116Y003616D01*
X008031Y003639D01*
X007944Y003650D01*
X007900Y003650D01*
X007900Y002650D01*
X007900Y002650D01*
X007900Y002654D02*
X007900Y002654D01*
X007900Y002972D02*
X007900Y002972D01*
X007900Y003291D02*
X007900Y003291D01*
X007900Y003609D02*
X007900Y003609D01*
X007668Y003609D02*
X007417Y003609D01*
X008132Y003609D02*
X008383Y003609D01*
X009417Y003609D02*
X019383Y003609D01*
X019285Y003928D02*
X002515Y003928D01*
X002540Y004246D02*
X019260Y004246D01*
X019260Y003291D02*
X009648Y003291D01*
X009710Y002972D02*
X019267Y002972D01*
X019421Y002654D02*
X009710Y002654D01*
X009710Y002335D02*
X019270Y002335D01*
X019260Y002017D02*
X009651Y002017D01*
X009424Y001698D02*
X019380Y001698D01*
X018391Y004565D02*
X016790Y004565D01*
X016689Y004463D02*
X016917Y004691D01*
X017040Y004989D01*
X017040Y005311D01*
X016917Y005609D01*
X016876Y005650D01*
X016917Y005691D01*
X017040Y005989D01*
X017040Y006311D01*
X016917Y006609D01*
X016876Y006650D01*
X016917Y006691D01*
X017040Y006989D01*
X017040Y007311D01*
X016917Y007609D01*
X016876Y007650D01*
X016917Y007691D01*
X017040Y007989D01*
X017040Y008311D01*
X016917Y008609D01*
X016689Y008837D01*
X016391Y008960D01*
X015409Y008960D01*
X015111Y008837D01*
X014883Y008609D01*
X014760Y008311D01*
X014760Y007989D01*
X014883Y007691D01*
X014924Y007650D01*
X014883Y007609D01*
X014760Y007311D01*
X014760Y006989D01*
X014883Y006691D01*
X014924Y006650D01*
X014883Y006609D01*
X014760Y006311D01*
X014760Y005989D01*
X014883Y005691D01*
X014924Y005650D01*
X014883Y005609D01*
X014760Y005311D01*
X014760Y004989D01*
X014883Y004691D01*
X015111Y004463D01*
X015409Y004340D01*
X016391Y004340D01*
X016689Y004463D01*
X016996Y004883D02*
X018068Y004883D01*
X018010Y005202D02*
X017040Y005202D01*
X016953Y005520D02*
X018010Y005520D01*
X018010Y005839D02*
X016978Y005839D01*
X017040Y006157D02*
X018010Y006157D01*
X018010Y006476D02*
X016972Y006476D01*
X016959Y006794D02*
X018010Y006794D01*
X018010Y007113D02*
X017040Y007113D01*
X016990Y007431D02*
X018010Y007431D01*
X018010Y007750D02*
X016941Y007750D01*
X017040Y008068D02*
X018010Y008068D01*
X018010Y008387D02*
X017009Y008387D01*
X016821Y008705D02*
X018010Y008705D01*
X018010Y009024D02*
X003290Y009024D01*
X003290Y009342D02*
X018010Y009342D01*
X018010Y009661D02*
X003290Y009661D01*
X003290Y009979D02*
X018010Y009979D01*
X018650Y010650D02*
X018650Y005150D01*
X020400Y005150D01*
X018650Y010650D02*
X004150Y010650D01*
X004150Y015650D01*
X006400Y015650D01*
X006400Y017150D01*
X006400Y018150D02*
X005400Y018150D01*
X005409Y018260D02*
X004874Y018260D01*
X004861Y018292D02*
X004654Y018499D01*
X004682Y018527D01*
X004733Y018594D01*
X004775Y018666D01*
X004807Y018744D01*
X004829Y018825D01*
X004840Y018908D01*
X004840Y018950D01*
X003900Y018950D01*
X003900Y019216D02*
X003900Y019216D01*
X003900Y019534D02*
X003900Y019534D01*
X003338Y019534D02*
X002719Y019534D01*
X002934Y019216D02*
X003017Y019216D01*
X002102Y019853D02*
X005649Y019853D01*
X005352Y019534D02*
X004462Y019534D01*
X004783Y019216D02*
X005260Y019216D01*
X005298Y018897D02*
X004839Y018897D01*
X004722Y018579D02*
X005496Y018579D01*
X005432Y017942D02*
X004980Y017942D01*
X004980Y018005D02*
X004861Y018292D01*
X004980Y018005D02*
X004980Y017695D01*
X004861Y017408D01*
X004642Y017189D01*
X004540Y017147D01*
X004525Y016986D02*
X005261Y016986D01*
X005260Y017305D02*
X004758Y017305D01*
X004950Y017623D02*
X005398Y017623D01*
X005407Y016668D02*
X004323Y016668D01*
X003625Y016031D02*
X003290Y016031D01*
X003290Y016349D02*
X005760Y016349D01*
X007040Y016349D02*
X007694Y016349D01*
X007760Y016668D02*
X007393Y016668D01*
X007539Y016986D02*
X007760Y016986D01*
X007760Y017305D02*
X007540Y017305D01*
X007402Y017623D02*
X007760Y017623D01*
X007760Y017942D02*
X007368Y017942D01*
X007391Y018260D02*
X007760Y018260D01*
X008400Y019150D02*
X006400Y019150D01*
X007108Y019870D02*
X019284Y019870D01*
X019260Y019811D01*
X019260Y019489D01*
X019383Y019191D01*
X019424Y019150D01*
X019383Y019109D01*
X019260Y018811D01*
X019260Y018489D01*
X019383Y018191D01*
X019424Y018150D01*
X019383Y018109D01*
X019260Y017811D01*
X019260Y017489D01*
X019383Y017191D01*
X019529Y017046D01*
X019512Y017023D01*
X019468Y016947D01*
X019434Y016866D01*
X019411Y016781D01*
X019400Y016694D01*
X019400Y016650D01*
X020400Y016650D01*
X020400Y016650D01*
X019400Y016650D01*
X019400Y016606D01*
X019411Y016519D01*
X019434Y016434D01*
X019468Y016353D01*
X019512Y016277D01*
X019529Y016254D01*
X019383Y016109D01*
X019260Y015811D01*
X019260Y015489D01*
X019342Y015290D01*
X009523Y015290D01*
X009287Y015193D01*
X008537Y014443D01*
X008357Y014263D01*
X008324Y014181D01*
X008061Y014290D01*
X007739Y014290D01*
X007441Y014167D01*
X007296Y014021D01*
X007273Y014038D01*
X007199Y014081D01*
X007263Y014107D01*
X008943Y015787D01*
X009040Y016023D01*
X009040Y019277D01*
X008943Y019513D01*
X008763Y019693D01*
X008527Y019790D01*
X007236Y019790D01*
X007189Y019837D01*
X007108Y019870D01*
X007151Y019853D02*
X019277Y019853D01*
X019260Y019534D02*
X008921Y019534D01*
X009040Y019216D02*
X019373Y019216D01*
X019296Y018897D02*
X009040Y018897D01*
X009040Y018579D02*
X019260Y018579D01*
X019355Y018260D02*
X009040Y018260D01*
X009040Y017942D02*
X019314Y017942D01*
X019260Y017623D02*
X009040Y017623D01*
X009040Y017305D02*
X019336Y017305D01*
X019490Y016986D02*
X009040Y016986D01*
X009040Y016668D02*
X019400Y016668D01*
X019470Y016349D02*
X009040Y016349D01*
X009040Y016031D02*
X019351Y016031D01*
X019260Y015712D02*
X008867Y015712D01*
X008549Y015394D02*
X019300Y015394D01*
X020400Y014650D02*
X009650Y014650D01*
X008900Y013900D01*
X008900Y013150D01*
X008400Y012174D02*
X008441Y012133D01*
X008739Y012010D01*
X009061Y012010D01*
X009260Y012092D01*
X009260Y011773D01*
X009357Y011537D01*
X009537Y011357D01*
X009700Y011290D01*
X004790Y011290D01*
X004790Y012010D01*
X005061Y012010D01*
X005359Y012133D01*
X005400Y012174D01*
X005441Y012133D01*
X005739Y012010D01*
X006061Y012010D01*
X006359Y012133D01*
X006504Y012279D01*
X006527Y012262D01*
X006603Y012218D01*
X006684Y012184D01*
X006769Y012161D01*
X006856Y012150D01*
X006900Y012150D01*
X006944Y012150D01*
X007031Y012161D01*
X007116Y012184D01*
X007197Y012218D01*
X007273Y012262D01*
X007296Y012279D01*
X007441Y012133D01*
X007739Y012010D01*
X008061Y012010D01*
X008359Y012133D01*
X008400Y012174D01*
X009260Y011890D02*
X004790Y011890D01*
X004790Y011572D02*
X009343Y011572D01*
X009900Y011900D02*
X009900Y013150D01*
X009900Y011900D02*
X012900Y011900D01*
X012900Y013650D01*
X020400Y013650D01*
X014979Y008705D02*
X005768Y008705D01*
X005739Y008717D02*
X005673Y008730D01*
X005400Y008730D01*
X005400Y008150D01*
X005980Y008150D01*
X005980Y008423D01*
X005967Y008489D01*
X005941Y008551D01*
X005904Y008607D01*
X005857Y008654D01*
X005801Y008691D01*
X005739Y008717D01*
X005980Y008387D02*
X014791Y008387D01*
X014760Y008068D02*
X005980Y008068D01*
X005980Y008150D02*
X005980Y007877D01*
X005967Y007811D01*
X005941Y007749D01*
X005904Y007693D01*
X005857Y007646D01*
X005801Y007609D01*
X005739Y007583D01*
X005673Y007570D01*
X005400Y007570D01*
X005400Y008150D01*
X005400Y008150D01*
X005400Y008150D01*
X005980Y008150D01*
X005942Y007750D02*
X009518Y007750D01*
X009505Y007742D02*
X009431Y007685D01*
X009365Y007619D01*
X009308Y007545D01*
X009262Y007465D01*
X009226Y007379D01*
X009202Y007289D01*
X009190Y007197D01*
X009190Y007150D01*
X009900Y007150D01*
X010610Y007150D01*
X010610Y007197D01*
X010598Y007289D01*
X010574Y007379D01*
X010538Y007465D01*
X010492Y007545D01*
X010435Y007619D01*
X010369Y007685D01*
X010295Y007742D01*
X010215Y007788D01*
X010129Y007824D01*
X010039Y007848D01*
X009947Y007860D01*
X009900Y007860D01*
X009900Y007150D01*
X009900Y007150D01*
X009900Y007150D01*
X010610Y007150D01*
X010610Y007103D01*
X010598Y007011D01*
X010574Y006921D01*
X010538Y006835D01*
X010492Y006755D01*
X010435Y006681D01*
X010369Y006615D01*
X010295Y006558D01*
X010215Y006512D01*
X010129Y006476D01*
X010039Y006452D01*
X009947Y006440D01*
X009900Y006440D01*
X009900Y007150D01*
X009900Y007150D01*
X009900Y007150D01*
X009900Y007860D01*
X009853Y007860D01*
X009761Y007848D01*
X009671Y007824D01*
X009585Y007788D01*
X009505Y007742D01*
X009248Y007431D02*
X003290Y007431D01*
X003290Y007113D02*
X009190Y007113D01*
X009190Y007103D02*
X009202Y007011D01*
X009226Y006921D01*
X009262Y006835D01*
X009308Y006755D01*
X009365Y006681D01*
X009431Y006615D01*
X009505Y006558D01*
X009585Y006512D01*
X009671Y006476D01*
X009761Y006452D01*
X009853Y006440D01*
X009900Y006440D01*
X009900Y007150D01*
X009190Y007150D01*
X009190Y007103D01*
X009286Y006794D02*
X003195Y006794D01*
X002650Y007150D02*
X002650Y017150D01*
X003290Y015712D02*
X003510Y015712D01*
X003510Y015394D02*
X003290Y015394D01*
X003290Y015075D02*
X003510Y015075D01*
X003510Y014757D02*
X003290Y014757D01*
X003290Y014438D02*
X003510Y014438D01*
X003510Y014120D02*
X003290Y014120D01*
X003290Y013801D02*
X003510Y013801D01*
X003510Y013483D02*
X003290Y013483D01*
X003290Y013164D02*
X003510Y013164D01*
X003510Y012846D02*
X003290Y012846D01*
X003290Y012527D02*
X003510Y012527D01*
X003510Y012209D02*
X003290Y012209D01*
X003290Y011890D02*
X003510Y011890D01*
X003510Y011572D02*
X003290Y011572D01*
X003290Y011253D02*
X003510Y011253D01*
X003510Y010935D02*
X003290Y010935D01*
X003290Y010616D02*
X003510Y010616D01*
X003603Y010298D02*
X003290Y010298D01*
X003290Y008705D02*
X005032Y008705D01*
X005061Y008717D02*
X004999Y008691D01*
X004943Y008654D01*
X004896Y008607D01*
X004859Y008551D01*
X004833Y008489D01*
X004820Y008423D01*
X004820Y008150D01*
X005400Y008150D01*
X005400Y008150D01*
X005400Y008150D01*
X005400Y008730D01*
X005127Y008730D01*
X005061Y008717D01*
X005400Y008705D02*
X005400Y008705D01*
X005400Y008387D02*
X005400Y008387D01*
X005400Y008150D02*
X004820Y008150D01*
X004820Y007877D01*
X004833Y007811D01*
X004859Y007749D01*
X004896Y007693D01*
X004943Y007646D01*
X004999Y007609D01*
X005061Y007583D01*
X005127Y007570D01*
X005400Y007570D01*
X005400Y008150D01*
X005400Y008068D02*
X005400Y008068D01*
X005400Y007750D02*
X005400Y007750D01*
X004858Y007750D02*
X003290Y007750D01*
X003290Y008068D02*
X004820Y008068D01*
X004820Y008387D02*
X003290Y008387D01*
X002650Y007150D02*
X001400Y007150D01*
X002472Y006476D02*
X009674Y006476D01*
X009900Y006476D02*
X009900Y006476D01*
X010126Y006476D02*
X013372Y006476D01*
X013419Y006429D02*
X013731Y006300D01*
X014069Y006300D01*
X014381Y006429D01*
X014621Y006669D01*
X014750Y006981D01*
X014750Y007319D01*
X014621Y007631D01*
X014381Y007871D01*
X014069Y008000D01*
X013731Y008000D01*
X013419Y007871D01*
X013179Y007631D01*
X013050Y007319D01*
X013050Y006981D01*
X013179Y006669D01*
X013419Y006429D01*
X013731Y006000D02*
X013419Y005871D01*
X013179Y005631D01*
X013050Y005319D01*
X013050Y004981D01*
X013179Y004669D01*
X013419Y004429D01*
X013731Y004300D01*
X014069Y004300D01*
X014381Y004429D01*
X014621Y004669D01*
X014750Y004981D01*
X014750Y005319D01*
X014621Y005631D01*
X014381Y005871D01*
X014069Y006000D01*
X013731Y006000D01*
X013386Y005839D02*
X010074Y005839D01*
X010039Y005848D02*
X010129Y005824D01*
X010215Y005788D01*
X010295Y005742D01*
X010369Y005685D01*
X010435Y005619D01*
X010492Y005545D01*
X010538Y005465D01*
X010574Y005379D01*
X010598Y005289D01*
X010610Y005197D01*
X010610Y005150D01*
X009900Y005150D01*
X009900Y005150D01*
X009900Y005150D01*
X009900Y005860D01*
X009947Y005860D01*
X010039Y005848D01*
X009900Y005839D02*
X009900Y005839D01*
X009900Y005860D02*
X009853Y005860D01*
X009761Y005848D01*
X009671Y005824D01*
X009585Y005788D01*
X009505Y005742D01*
X009431Y005685D01*
X009365Y005619D01*
X009308Y005545D01*
X009262Y005465D01*
X009226Y005379D01*
X009202Y005289D01*
X009190Y005197D01*
X009190Y005150D01*
X009900Y005150D01*
X010610Y005150D01*
X010610Y005103D01*
X010598Y005011D01*
X010574Y004921D01*
X010538Y004835D01*
X010492Y004755D01*
X010435Y004681D01*
X010369Y004615D01*
X010295Y004558D01*
X010215Y004512D01*
X010129Y004476D01*
X010039Y004452D01*
X009947Y004440D01*
X009900Y004440D01*
X009900Y005150D01*
X009900Y005150D01*
X009900Y005150D01*
X009900Y005860D01*
X009726Y005839D02*
X002478Y005839D01*
X002453Y005520D02*
X009294Y005520D01*
X009191Y005202D02*
X002540Y005202D01*
X002496Y004883D02*
X009242Y004883D01*
X009226Y004921D02*
X009262Y004835D01*
X009308Y004755D01*
X009365Y004681D01*
X009431Y004615D01*
X009505Y004558D01*
X009585Y004512D01*
X009671Y004476D01*
X009761Y004452D01*
X009853Y004440D01*
X009900Y004440D01*
X009900Y005150D01*
X009190Y005150D01*
X009190Y005103D01*
X009202Y005011D01*
X009226Y004921D01*
X009497Y004565D02*
X002435Y004565D01*
X002417Y003609D02*
X006383Y003609D01*
X006152Y003291D02*
X002540Y003291D01*
X002533Y002972D02*
X006090Y002972D01*
X006090Y002654D02*
X002379Y002654D01*
X002530Y002335D02*
X006090Y002335D01*
X006149Y002017D02*
X002540Y002017D01*
X002420Y001698D02*
X006376Y001698D01*
X009900Y004565D02*
X009900Y004565D01*
X009900Y004883D02*
X009900Y004883D01*
X009900Y005202D02*
X009900Y005202D01*
X009900Y005520D02*
X009900Y005520D01*
X010506Y005520D02*
X013133Y005520D01*
X013050Y005202D02*
X010609Y005202D01*
X010558Y004883D02*
X013091Y004883D01*
X013283Y004565D02*
X010303Y004565D01*
X010514Y006794D02*
X013127Y006794D01*
X013050Y007113D02*
X010610Y007113D01*
X010552Y007431D02*
X013096Y007431D01*
X013297Y007750D02*
X010282Y007750D01*
X009900Y007750D02*
X009900Y007750D01*
X009900Y007431D02*
X009900Y007431D01*
X009900Y007113D02*
X009900Y007113D01*
X009900Y006794D02*
X009900Y006794D01*
X007366Y012209D02*
X007175Y012209D01*
X006900Y012209D02*
X006900Y012209D01*
X006900Y012150D02*
X006900Y013150D01*
X006900Y013150D01*
X006900Y012150D01*
X006625Y012209D02*
X006434Y012209D01*
X006900Y012527D02*
X006900Y012527D01*
X006900Y012846D02*
X006900Y012846D01*
X007275Y014120D02*
X007394Y014120D01*
X007593Y014438D02*
X008533Y014438D01*
X008851Y014757D02*
X007912Y014757D01*
X008230Y015075D02*
X009170Y015075D01*
X008400Y016150D02*
X008400Y019150D01*
X008400Y016150D02*
X006900Y014650D01*
X004900Y014650D01*
X004900Y013150D01*
X007040Y015712D02*
X007057Y015712D01*
X007040Y016031D02*
X007375Y016031D01*
X001400Y011150D02*
X001400Y010150D01*
X001400Y010150D01*
X001400Y010820D01*
X001400Y011150D01*
X001400Y011150D01*
X001400Y010935D02*
X001400Y010935D01*
X001400Y010616D02*
X001400Y010616D01*
X001400Y010298D02*
X001400Y010298D01*
X002540Y006157D02*
X014760Y006157D01*
X014822Y005839D02*
X014414Y005839D01*
X014667Y005520D02*
X014847Y005520D01*
X014760Y005202D02*
X014750Y005202D01*
X014709Y004883D02*
X014804Y004883D01*
X015010Y004565D02*
X014517Y004565D01*
X014428Y006476D02*
X014828Y006476D01*
X014841Y006794D02*
X014673Y006794D01*
X014750Y007113D02*
X014760Y007113D01*
X014810Y007431D02*
X014704Y007431D01*
X014859Y007750D02*
X014503Y007750D01*
D15*
X005400Y008150D03*
M02*
