G75*
%MOIN*%
%OFA0B0*%
%FSLAX24Y24*%
%IPPOS*%
%LPD*%
%AMOC8*
5,1,8,0,0,1.08239X$1,22.5*
%
%ADD10C,0.0100*%
%ADD11C,0.0660*%
%ADD12C,0.0740*%
%ADD13C,0.0600*%
D10*
X000220Y002220D02*
X002220Y000220D01*
X021720Y000220D01*
X023720Y002220D01*
X023720Y022220D01*
X022720Y023220D01*
X002720Y023220D01*
X000220Y020220D01*
X000220Y002220D01*
D11*
X001890Y003220D02*
X002550Y003220D01*
X002550Y004220D02*
X001890Y004220D01*
X001890Y005220D02*
X002550Y005220D01*
X002550Y006220D02*
X001890Y006220D01*
X001890Y007220D02*
X002550Y007220D01*
X002550Y008220D02*
X001890Y008220D01*
X001890Y010220D02*
X002550Y010220D01*
X002550Y011220D02*
X001890Y011220D01*
X001890Y012220D02*
X002550Y012220D01*
X002550Y013220D02*
X001890Y013220D01*
X001890Y014220D02*
X002550Y014220D01*
X002550Y015220D02*
X001890Y015220D01*
X001890Y016220D02*
X002550Y016220D01*
X002550Y017220D02*
X001890Y017220D01*
X005220Y014550D02*
X005220Y013890D01*
X006220Y013890D02*
X006220Y014550D01*
X007220Y014550D02*
X007220Y013890D01*
X008220Y013890D02*
X008220Y014550D01*
X009220Y014550D02*
X009220Y013890D01*
X010220Y013890D02*
X010220Y014550D01*
X011220Y014550D02*
X011220Y013890D01*
X012220Y013890D02*
X012220Y014550D01*
X016390Y009220D02*
X017050Y009220D01*
X017050Y008220D02*
X016390Y008220D01*
X016390Y007220D02*
X017050Y007220D01*
X017050Y006220D02*
X016390Y006220D01*
X020890Y006220D02*
X021550Y006220D01*
X021550Y007220D02*
X020890Y007220D01*
X020890Y008220D02*
X021550Y008220D01*
X021550Y009220D02*
X020890Y009220D01*
X020890Y010220D02*
X021550Y010220D01*
X021550Y011720D02*
X020890Y011720D01*
X020890Y012720D02*
X021550Y012720D01*
X021550Y013720D02*
X020890Y013720D01*
X020890Y014720D02*
X021550Y014720D01*
X021550Y015720D02*
X020890Y015720D01*
X020890Y016720D02*
X021550Y016720D01*
X021550Y017720D02*
X020890Y017720D01*
X020890Y018720D02*
X021550Y018720D01*
X021550Y019720D02*
X020890Y019720D01*
X020890Y020720D02*
X021550Y020720D01*
X021550Y005220D02*
X020890Y005220D01*
X020890Y004220D02*
X021550Y004220D01*
X021550Y003220D02*
X020890Y003220D01*
X011720Y002550D02*
X011720Y001890D01*
X010720Y001890D02*
X010720Y002550D01*
X009720Y002550D02*
X009720Y001890D01*
X007550Y018720D02*
X006890Y018720D01*
X006890Y019720D02*
X007550Y019720D01*
X007550Y020720D02*
X006890Y020720D01*
D12*
X010720Y008220D03*
X010720Y006220D03*
X014720Y006220D03*
X014720Y008220D03*
D13*
X005270Y008520D02*
X005270Y007920D01*
X004170Y007920D02*
X004170Y008520D01*
X004020Y019170D02*
X003420Y019170D01*
X003420Y020270D02*
X004020Y020270D01*
M02*
