G75*
%MOIN*%
%OFA0B0*%
%FSLAX24Y24*%
%IPPOS*%
%LPD*%
%AMOC8*
5,1,8,0,0,1.08239X$1,22.5*
%
%ADD10C,0.0740*%
%ADD11C,0.0820*%
%ADD12C,0.0680*%
%ADD13R,0.0560X0.0560*%
D10*
X001070Y002150D02*
X001730Y002150D01*
X001730Y003150D02*
X001070Y003150D01*
X001070Y004150D02*
X001730Y004150D01*
X001730Y005150D02*
X001070Y005150D01*
X001070Y006150D02*
X001730Y006150D01*
X001730Y007150D02*
X001070Y007150D01*
X001070Y009150D02*
X001730Y009150D01*
X001730Y010150D02*
X001070Y010150D01*
X001070Y011150D02*
X001730Y011150D01*
X001730Y012150D02*
X001070Y012150D01*
X001070Y013150D02*
X001730Y013150D01*
X001730Y014150D02*
X001070Y014150D01*
X001070Y015150D02*
X001730Y015150D01*
X001730Y016150D02*
X001070Y016150D01*
X004900Y013480D02*
X004900Y012820D01*
X005900Y012820D02*
X005900Y013480D01*
X006900Y013480D02*
X006900Y012820D01*
X007900Y012820D02*
X007900Y013480D01*
X008900Y013480D02*
X008900Y012820D01*
X009900Y012820D02*
X009900Y013480D01*
X010900Y013480D02*
X010900Y012820D01*
X011900Y012820D02*
X011900Y013480D01*
X015570Y008150D02*
X016230Y008150D01*
X016230Y007150D02*
X015570Y007150D01*
X015570Y006150D02*
X016230Y006150D01*
X016230Y005150D02*
X015570Y005150D01*
X020070Y005150D02*
X020730Y005150D01*
X020730Y006150D02*
X020070Y006150D01*
X020070Y007150D02*
X020730Y007150D01*
X020730Y008150D02*
X020070Y008150D01*
X020070Y009150D02*
X020730Y009150D01*
X020730Y010650D02*
X020070Y010650D01*
X020070Y011650D02*
X020730Y011650D01*
X020730Y012650D02*
X020070Y012650D01*
X020070Y013650D02*
X020730Y013650D01*
X020730Y014650D02*
X020070Y014650D01*
X020070Y015650D02*
X020730Y015650D01*
X020730Y016650D02*
X020070Y016650D01*
X020070Y017650D02*
X020730Y017650D01*
X020730Y018650D02*
X020070Y018650D01*
X020070Y019650D02*
X020730Y019650D01*
X020730Y004150D02*
X020070Y004150D01*
X020070Y003150D02*
X020730Y003150D01*
X020730Y002150D02*
X020070Y002150D01*
X008900Y002320D02*
X008900Y002980D01*
X007900Y002980D02*
X007900Y002320D01*
X006900Y002320D02*
X006900Y002980D01*
X006730Y017150D02*
X006070Y017150D01*
X006070Y018150D02*
X006730Y018150D01*
X006730Y019150D02*
X006070Y019150D01*
D11*
X009900Y007150D03*
X009900Y005150D03*
X013900Y005150D03*
X013900Y007150D03*
D12*
X004200Y017850D02*
X003600Y017850D01*
X003600Y018950D02*
X004200Y018950D01*
X002200Y018950D02*
X001600Y018950D01*
X001600Y017850D02*
X002200Y017850D01*
D13*
X005400Y008150D03*
M02*
