%
M48
M72
T01C0.0320
T02C0.0354
T03C0.0400
T04C0.0440
%
T01
X5400Y8150
T02
X9900Y7150
X9900Y5150
X13900Y5150
X13900Y7150
T03
X1400Y2150
X1400Y3150
X1400Y4150
X1400Y5150
X1400Y6150
X1400Y7150
X1400Y9150
X1400Y10150
X1400Y11150
X1400Y12150
X1400Y13150
X1400Y14150
X1400Y15150
X1400Y16150
X1900Y17850
X1900Y18950
X3900Y18950
X3900Y17850
X20400Y17650
X20400Y18650
X20400Y19650
X20400Y16650
X20400Y15650
X20400Y14650
X20400Y13650
X20400Y12650
X20400Y11650
X20400Y10650
X20400Y9150
X20400Y8150
X20400Y7150
X20400Y6150
X20400Y5150
X20400Y4150
X20400Y3150
X20400Y2150
T04
X15900Y5150
X15900Y6150
X15900Y7150
X15900Y8150
X11900Y13150
X10900Y13150
X9900Y13150
X8900Y13150
X7900Y13150
X6900Y13150
X5900Y13150
X4900Y13150
X6400Y17150
X6400Y18150
X6400Y19150
X6900Y2650
X7900Y2650
X8900Y2650
M30
