G75*
%MOIN*%
%OFA0B0*%
%FSLAX24Y24*%
%IPPOS*%
%LPD*%
%AMOC8*
5,1,8,0,0,1.08239X$1,22.5*
%
%ADD10C,0.0680*%
%ADD11C,0.1380*%
%ADD12C,0.1390*%
%ADD13C,0.1380*%
%ADD14C,0.0820*%
%ADD15C,0.0640*%
D10*
X004461Y005618D02*
X005061Y005618D01*
X005841Y005618D02*
X006441Y005618D01*
X006441Y006602D02*
X005841Y006602D01*
X005053Y006610D02*
X004453Y006610D01*
D11*
X003991Y008480D02*
X003991Y009780D01*
X003991Y003740D02*
X003991Y002440D01*
D12*
X021811Y003425D03*
X021811Y008595D03*
D13*
X002061Y001510D03*
X002061Y010510D03*
X024061Y010510D03*
X024061Y001510D03*
D14*
X021061Y001880D02*
X021061Y001140D01*
X020061Y001140D02*
X020061Y001880D01*
X019061Y001880D02*
X019061Y001140D01*
D15*
X017061Y001230D02*
X017061Y001790D01*
X015061Y001790D02*
X015061Y001230D01*
X013061Y001230D02*
X013061Y001790D01*
X011061Y001790D02*
X011061Y001230D01*
X011061Y003480D02*
X011061Y004040D01*
X009061Y004040D02*
X009061Y003480D01*
X013061Y003480D02*
X013061Y004040D01*
X015061Y004040D02*
X015061Y003480D01*
X015061Y005730D02*
X015061Y006290D01*
X013061Y006290D02*
X013061Y005730D01*
X011061Y005730D02*
X011061Y006290D01*
X009061Y006290D02*
X009061Y005730D01*
X009061Y007980D02*
X009061Y008540D01*
X011061Y008540D02*
X011061Y007980D01*
X013061Y007980D02*
X013061Y008540D01*
X015061Y008540D02*
X015061Y007980D01*
X015061Y010230D02*
X015061Y010790D01*
X013061Y010790D02*
X013061Y010230D01*
X011061Y010230D02*
X011061Y010790D01*
X009061Y010790D02*
X009061Y010230D01*
M02*
