G75*
%MOIN*%
%OFA0B0*%
%FSLAX24Y24*%
%IPPOS*%
%LPD*%
%AMOC8*
5,1,8,0,0,1.08239X$1,22.5*
%
%ADD10C,0.0600*%
%ADD11C,0.1300*%
%ADD12C,0.1310*%
%ADD13C,0.0740*%
%ADD14C,0.0560*%
%ADD15R,0.0010X0.0005*%
%ADD16R,0.0015X0.0005*%
%ADD17R,0.2795X0.0005*%
%ADD18R,0.0025X0.0005*%
%ADD19R,0.0030X0.0005*%
%ADD20R,0.0020X0.0005*%
%ADD21R,0.0035X0.0005*%
%ADD22R,0.0040X0.0005*%
%ADD23R,0.0050X0.0005*%
%ADD24R,0.0055X0.0005*%
%ADD25R,0.0060X0.0005*%
%ADD26R,0.0065X0.0005*%
%ADD27R,0.0075X0.0005*%
%ADD28R,0.0080X0.0005*%
%ADD29R,0.0085X0.0005*%
%ADD30R,0.0095X0.0005*%
%ADD31R,0.0045X0.0005*%
%ADD32R,0.0100X0.0005*%
%ADD33R,0.0105X0.0005*%
%ADD34R,0.0110X0.0005*%
%ADD35R,0.0115X0.0005*%
%ADD36R,0.0070X0.0005*%
%ADD37R,0.0350X0.0005*%
%ADD38R,0.0200X0.0005*%
%ADD39R,0.0365X0.0005*%
%ADD40R,0.0395X0.0005*%
%ADD41R,0.0310X0.0005*%
%ADD42R,0.0420X0.0005*%
%ADD43R,0.0090X0.0005*%
%ADD44R,0.0415X0.0005*%
%ADD45R,0.0440X0.0005*%
%ADD46R,0.0425X0.0005*%
%ADD47R,0.0380X0.0005*%
%ADD48R,0.0455X0.0005*%
%ADD49R,0.0435X0.0005*%
%ADD50R,0.0400X0.0005*%
%ADD51R,0.0465X0.0005*%
%ADD52R,0.0475X0.0005*%
%ADD53R,0.0445X0.0005*%
%ADD54R,0.0430X0.0005*%
%ADD55R,0.0480X0.0005*%
%ADD56R,0.0450X0.0005*%
%ADD57R,0.0485X0.0005*%
%ADD58R,0.0490X0.0005*%
%ADD59R,0.0460X0.0005*%
%ADD60R,0.0495X0.0005*%
%ADD61R,0.0470X0.0005*%
%ADD62R,0.0500X0.0005*%
%ADD63R,0.0505X0.0005*%
%ADD64R,0.0510X0.0005*%
%ADD65R,0.0120X0.0005*%
%ADD66R,0.0145X0.0005*%
%ADD67R,0.0140X0.0005*%
%ADD68R,0.0125X0.0005*%
%ADD69R,0.0005X0.0005*%
%ADD70R,0.0135X0.0005*%
%ADD71R,0.0410X0.0005*%
%ADD72R,0.0390X0.0005*%
%ADD73R,0.0260X0.0005*%
%ADD74R,0.0255X0.0005*%
%ADD75R,0.0250X0.0005*%
%ADD76R,0.0245X0.0005*%
%ADD77R,0.0240X0.0005*%
%ADD78R,0.0235X0.0005*%
%ADD79R,0.0230X0.0005*%
%ADD80R,0.0405X0.0005*%
%ADD81R,0.0220X0.0005*%
%ADD82R,0.0385X0.0005*%
%ADD83R,0.0210X0.0005*%
%ADD84R,0.0360X0.0005*%
%ADD85R,0.0195X0.0005*%
%ADD86R,0.0320X0.0005*%
%ADD87R,0.0165X0.0005*%
%ADD88R,0.0130X0.0005*%
%ADD89R,0.0155X0.0005*%
%ADD90R,0.0150X0.0005*%
%ADD91R,0.0370X0.0005*%
%ADD92R,0.0160X0.0005*%
%ADD93R,0.0170X0.0005*%
%ADD94R,0.0175X0.0005*%
%ADD95R,0.0180X0.0005*%
%ADD96R,0.0185X0.0005*%
%ADD97R,0.0215X0.0005*%
%ADD98R,0.0190X0.0005*%
%ADD99R,0.0205X0.0005*%
%ADD100R,0.0225X0.0005*%
%ADD101R,0.0265X0.0005*%
%ADD102R,0.0270X0.0005*%
%ADD103R,0.0275X0.0005*%
%ADD104R,0.0280X0.0005*%
%ADD105R,0.0285X0.0005*%
%ADD106R,0.0290X0.0005*%
%ADD107R,0.0295X0.0005*%
%ADD108R,0.0340X0.0005*%
%ADD109R,0.2710X0.0005*%
%ADD110R,0.0325X0.0005*%
%ADD111R,0.0345X0.0005*%
%ADD112R,0.0305X0.0005*%
%ADD113R,0.0300X0.0005*%
%ADD114R,0.0330X0.0005*%
%ADD115R,0.0335X0.0005*%
%ADD116R,0.0315X0.0005*%
%ADD117R,0.0375X0.0005*%
%ADD118R,0.0535X0.0005*%
%ADD119R,0.0545X0.0005*%
%ADD120R,0.0355X0.0005*%
%ADD121R,0.0520X0.0005*%
%ADD122R,0.0525X0.0005*%
%ADD123R,0.0555X0.0005*%
%ADD124R,0.0560X0.0005*%
%ADD125R,0.0570X0.0005*%
%ADD126R,0.0580X0.0005*%
%ADD127R,0.0590X0.0005*%
%ADD128R,0.0600X0.0005*%
%ADD129R,0.0610X0.0005*%
%ADD130R,0.0620X0.0005*%
%ADD131R,0.0625X0.0005*%
%ADD132R,0.0640X0.0005*%
%ADD133R,0.0645X0.0005*%
%ADD134R,0.0655X0.0005*%
%ADD135R,0.0660X0.0005*%
%ADD136R,0.0675X0.0005*%
%ADD137R,0.0680X0.0005*%
%ADD138R,0.0690X0.0005*%
%ADD139R,0.0700X0.0005*%
%ADD140R,0.0710X0.0005*%
%ADD141R,0.0715X0.0005*%
%ADD142R,0.0730X0.0005*%
%ADD143R,0.0735X0.0005*%
%ADD144R,0.0745X0.0005*%
%ADD145R,0.0755X0.0005*%
%ADD146R,0.0765X0.0005*%
%ADD147R,0.0770X0.0005*%
%ADD148R,0.0780X0.0005*%
%ADD149R,0.0790X0.0005*%
%ADD150R,0.0800X0.0005*%
%ADD151R,0.0805X0.0005*%
%ADD152R,0.0820X0.0005*%
%ADD153R,0.0825X0.0005*%
%ADD154R,0.0835X0.0005*%
%ADD155R,0.0845X0.0005*%
%ADD156R,0.0855X0.0005*%
%ADD157R,0.0860X0.0005*%
%ADD158R,0.0870X0.0005*%
%ADD159R,0.0880X0.0005*%
%ADD160R,0.0890X0.0005*%
%ADD161R,0.0515X0.0005*%
%ADD162R,0.0895X0.0005*%
%ADD163R,0.0910X0.0005*%
%ADD164R,0.0915X0.0005*%
%ADD165R,0.0530X0.0005*%
%ADD166R,0.0925X0.0005*%
%ADD167R,0.0935X0.0005*%
%ADD168R,0.0540X0.0005*%
%ADD169R,0.0945X0.0005*%
%ADD170R,0.0950X0.0005*%
%ADD171R,0.0955X0.0005*%
%ADD172R,0.0575X0.0005*%
%ADD173R,0.0795X0.0005*%
%ADD174R,0.0585X0.0005*%
%ADD175R,0.0720X0.0005*%
%ADD176R,0.0595X0.0005*%
%ADD177R,0.0635X0.0005*%
%ADD178R,0.0615X0.0005*%
%ADD179R,0.0630X0.0005*%
%ADD180R,0.0650X0.0005*%
%ADD181R,0.0685X0.0005*%
%ADD182R,0.0750X0.0005*%
%ADD183R,0.0785X0.0005*%
%ADD184R,0.0775X0.0005*%
%ADD185R,0.0670X0.0005*%
%ADD186R,0.0740X0.0005*%
%ADD187R,0.0725X0.0005*%
%ADD188R,0.0705X0.0005*%
%ADD189R,0.0605X0.0005*%
%ADD190R,0.0665X0.0005*%
%ADD191R,0.0565X0.0005*%
%ADD192R,0.0550X0.0005*%
%ADD193R,0.0695X0.0005*%
%ADD194R,0.0810X0.0005*%
%ADD195C,0.0400*%
%ADD196C,0.0320*%
D10*
X004461Y005618D02*
X005061Y005618D01*
X005841Y005618D02*
X006441Y005618D01*
X006441Y006602D02*
X005841Y006602D01*
X005053Y006610D02*
X004453Y006610D01*
D11*
X003991Y008480D02*
X003991Y009780D01*
X003991Y003740D02*
X003991Y002440D01*
D12*
X021811Y003425D03*
X021811Y008595D03*
D13*
X021061Y001880D02*
X021061Y001140D01*
X020061Y001140D02*
X020061Y001880D01*
X019061Y001880D02*
X019061Y001140D01*
D14*
X017061Y001230D02*
X017061Y001790D01*
X015061Y001790D02*
X015061Y001230D01*
X013061Y001230D02*
X013061Y001790D01*
X011061Y001790D02*
X011061Y001230D01*
X011061Y003480D02*
X011061Y004040D01*
X009061Y004040D02*
X009061Y003480D01*
X013061Y003480D02*
X013061Y004040D01*
X015061Y004040D02*
X015061Y003480D01*
X015061Y005730D02*
X015061Y006290D01*
X013061Y006290D02*
X013061Y005730D01*
X011061Y005730D02*
X011061Y006290D01*
X009061Y006290D02*
X009061Y005730D01*
X009061Y007980D02*
X009061Y008540D01*
X011061Y008540D02*
X011061Y007980D01*
X013061Y007980D02*
X013061Y008540D01*
X015061Y008540D02*
X015061Y007980D01*
X015061Y010230D02*
X015061Y010790D01*
X013061Y010790D02*
X013061Y010230D01*
X011061Y010230D02*
X011061Y010790D01*
X009061Y010790D02*
X009061Y010230D01*
D15*
X016964Y006865D03*
X017264Y006935D03*
X017654Y006935D03*
X017654Y006940D03*
X017684Y006905D03*
X017599Y006735D03*
X017759Y006640D03*
X017959Y006785D03*
X017964Y006790D03*
X018024Y006935D03*
X018259Y007085D03*
X018264Y007090D03*
X017974Y007175D03*
X017974Y007180D03*
X018024Y007295D03*
X017854Y007550D03*
X017854Y007555D03*
X017814Y007570D03*
X017494Y007520D03*
X017489Y007510D03*
X017484Y007505D03*
X017484Y007500D03*
X017494Y007455D03*
X017439Y007360D03*
X017434Y007350D03*
X017434Y007345D03*
X017429Y007330D03*
X017424Y007315D03*
X017424Y007310D03*
X017424Y007305D03*
X017419Y007300D03*
X017419Y007295D03*
X017419Y007290D03*
X017414Y007275D03*
X017339Y007205D03*
X017334Y007200D03*
X018524Y007285D03*
X019169Y007310D03*
X019169Y007315D03*
X019214Y007305D03*
X018634Y007600D03*
X018634Y007605D03*
X018604Y007605D03*
X018604Y007610D03*
X018524Y007690D03*
X018524Y007695D03*
X018524Y007700D03*
X018489Y007670D03*
X018489Y007665D03*
X018489Y007660D03*
X018489Y007655D03*
X018479Y007730D03*
X018894Y007930D03*
X018884Y007995D03*
X018844Y008000D03*
X018634Y008015D03*
X018634Y008020D03*
X018339Y008170D03*
X018309Y008175D03*
X018309Y008180D03*
X018139Y008385D03*
X018094Y008390D03*
X018089Y008385D03*
X018084Y008380D03*
X018129Y008465D03*
X017954Y008555D03*
X018334Y008630D03*
X018329Y008680D03*
X018859Y008430D03*
X018844Y008325D03*
X018844Y008320D03*
X019664Y007955D03*
X017669Y007990D03*
X017664Y007985D03*
X017664Y007980D03*
X017604Y006475D03*
X017684Y006320D03*
X017499Y006215D03*
X017504Y006035D03*
X017504Y006030D03*
X017314Y006140D03*
X017309Y006145D03*
X017239Y006365D03*
X017239Y006370D03*
X017239Y006375D03*
X017239Y006380D03*
X017239Y006385D03*
X017284Y006410D03*
X017889Y006470D03*
X017889Y006475D03*
X017894Y006480D03*
X017924Y006455D03*
X017929Y006460D03*
X017934Y006465D03*
X017939Y006475D03*
X017554Y005805D03*
X017554Y005800D03*
X017559Y005795D03*
X017559Y005790D03*
X017559Y005785D03*
X017564Y005775D03*
X017824Y005325D03*
X017824Y005320D03*
X017779Y005025D03*
X017779Y005020D03*
X017779Y005015D03*
X017779Y005010D03*
X017714Y005010D03*
D16*
X017711Y005015D03*
X017821Y005330D03*
X017821Y005335D03*
X017821Y005340D03*
X017571Y005755D03*
X017571Y005760D03*
X017566Y005765D03*
X017566Y005770D03*
X017561Y005780D03*
X017506Y006040D03*
X017511Y006045D03*
X017511Y006050D03*
X017461Y006030D03*
X017316Y006130D03*
X017316Y006135D03*
X017371Y006210D03*
X017301Y006355D03*
X017286Y006415D03*
X017291Y006425D03*
X017241Y006410D03*
X017241Y006405D03*
X017241Y006400D03*
X017241Y006395D03*
X017241Y006390D03*
X017606Y006480D03*
X017611Y006485D03*
X017896Y006485D03*
X017896Y006490D03*
X017901Y006495D03*
X017901Y006500D03*
X017906Y006505D03*
X017941Y006480D03*
X017946Y006485D03*
X017951Y006490D03*
X017956Y006500D03*
X017936Y006470D03*
X017596Y006730D03*
X017661Y006760D03*
X017661Y006765D03*
X017661Y006770D03*
X017686Y006910D03*
X017691Y006915D03*
X017651Y006945D03*
X017651Y006950D03*
X017956Y006780D03*
X018026Y006940D03*
X018251Y007080D03*
X018026Y007195D03*
X017971Y007170D03*
X017476Y007280D03*
X017476Y007285D03*
X017416Y007285D03*
X017416Y007280D03*
X017411Y007270D03*
X017411Y007265D03*
X017411Y007260D03*
X017406Y007250D03*
X017406Y007245D03*
X017491Y007515D03*
X017496Y007525D03*
X017501Y007530D03*
X017856Y007545D03*
X018486Y007640D03*
X018486Y007645D03*
X018486Y007650D03*
X018526Y007680D03*
X018526Y007685D03*
X018471Y007715D03*
X018471Y007720D03*
X018476Y007725D03*
X018511Y007865D03*
X018631Y008005D03*
X018631Y008010D03*
X018676Y008085D03*
X018841Y008005D03*
X018891Y007925D03*
X018891Y007920D03*
X018636Y007615D03*
X018636Y007610D03*
X018601Y007615D03*
X018601Y007620D03*
X018526Y007525D03*
X018911Y007350D03*
X017676Y008000D03*
X017671Y007995D03*
X018316Y008085D03*
X018341Y008175D03*
X018306Y008185D03*
X018136Y008380D03*
X018081Y008375D03*
X018076Y008370D03*
X018071Y008365D03*
X018331Y008625D03*
X018391Y008635D03*
X018631Y008745D03*
X018841Y008515D03*
X018891Y008440D03*
X018886Y008435D03*
X018851Y008425D03*
X018841Y008315D03*
X020121Y008575D03*
X020151Y008550D03*
X016561Y006855D03*
D17*
X019416Y005080D03*
X019416Y005075D03*
X019416Y005070D03*
X019416Y005065D03*
X019416Y005060D03*
X019416Y005055D03*
X019416Y005050D03*
X019416Y005045D03*
X019416Y005040D03*
X019416Y005035D03*
X019416Y005030D03*
X019416Y005025D03*
X019416Y005020D03*
D18*
X017816Y005355D03*
X017816Y005360D03*
X017776Y005045D03*
X017706Y005020D03*
X017596Y005690D03*
X017591Y005700D03*
X017591Y005705D03*
X017586Y005710D03*
X017586Y005715D03*
X017586Y005720D03*
X017581Y005730D03*
X017456Y006040D03*
X017456Y006045D03*
X017516Y006060D03*
X017516Y006065D03*
X017521Y006070D03*
X017521Y006075D03*
X017491Y006210D03*
X017381Y006215D03*
X017326Y006115D03*
X017326Y006110D03*
X017671Y006310D03*
X017616Y006495D03*
X017761Y006650D03*
X017666Y006745D03*
X017591Y006720D03*
X017586Y006710D03*
X017921Y006540D03*
X017921Y006535D03*
X017916Y006530D03*
X017926Y006550D03*
X017976Y006530D03*
X017981Y006535D03*
X017971Y006520D03*
X017991Y006550D03*
X017946Y006765D03*
X018031Y006945D03*
X018231Y007055D03*
X018236Y007060D03*
X018241Y007065D03*
X017966Y007160D03*
X018026Y007305D03*
X017856Y007525D03*
X017856Y007530D03*
X017856Y007535D03*
X017806Y007565D03*
X017521Y007570D03*
X017516Y007560D03*
X017511Y007550D03*
X017506Y007465D03*
X017396Y007215D03*
X017396Y007210D03*
X017396Y007205D03*
X017391Y007200D03*
X017391Y007195D03*
X017391Y007190D03*
X017386Y007175D03*
X017326Y007190D03*
X017256Y006930D03*
X017651Y006960D03*
X017651Y006965D03*
X017651Y006970D03*
X017696Y006930D03*
X017701Y006935D03*
X017301Y006445D03*
X017296Y006435D03*
X017246Y006440D03*
X017246Y006445D03*
X017246Y006450D03*
X017246Y006455D03*
X017246Y006460D03*
X019171Y007325D03*
X019171Y007330D03*
X018531Y007530D03*
X018481Y007600D03*
X018481Y007605D03*
X018481Y007610D03*
X018481Y007615D03*
X018531Y007660D03*
X018531Y007665D03*
X018596Y007640D03*
X018596Y007635D03*
X018646Y007635D03*
X018646Y007640D03*
X018461Y007700D03*
X018441Y007755D03*
X018511Y007875D03*
X018621Y007975D03*
X018621Y007980D03*
X018626Y007990D03*
X018681Y008075D03*
X018836Y008010D03*
X018896Y008005D03*
X018891Y007915D03*
X018351Y008185D03*
X018301Y008200D03*
X018301Y008205D03*
X018041Y008325D03*
X018036Y008320D03*
X018031Y008315D03*
X017956Y008545D03*
X018326Y008615D03*
X018396Y008630D03*
X018831Y008520D03*
X018896Y008445D03*
X018836Y008305D03*
X018836Y008300D03*
X019616Y008855D03*
X017691Y008020D03*
X017686Y008015D03*
X020536Y007870D03*
D19*
X020149Y008540D03*
X020109Y008565D03*
X018899Y008450D03*
X018839Y008415D03*
X018834Y008410D03*
X018834Y008295D03*
X018684Y008070D03*
X018619Y007970D03*
X018619Y007965D03*
X018619Y007960D03*
X018509Y007880D03*
X018459Y007695D03*
X018454Y007690D03*
X018534Y007655D03*
X018534Y007650D03*
X018594Y007650D03*
X018594Y007645D03*
X018649Y007645D03*
X018479Y007595D03*
X018479Y007590D03*
X018479Y007585D03*
X018479Y007580D03*
X018889Y007905D03*
X018889Y007910D03*
X018834Y008015D03*
X018314Y008075D03*
X018299Y008210D03*
X018299Y008215D03*
X018139Y008370D03*
X018029Y008310D03*
X018024Y008305D03*
X018019Y008300D03*
X018014Y008290D03*
X018009Y008285D03*
X017699Y008030D03*
X017694Y008025D03*
X017904Y007640D03*
X017534Y007590D03*
X017529Y007585D03*
X017529Y007580D03*
X017524Y007575D03*
X017519Y007565D03*
X017514Y007470D03*
X017479Y007260D03*
X017479Y007255D03*
X017479Y007250D03*
X017389Y007185D03*
X017389Y007180D03*
X017384Y007170D03*
X017384Y007165D03*
X017384Y007160D03*
X017379Y007150D03*
X017379Y007145D03*
X017324Y007185D03*
X017319Y007180D03*
X016989Y006880D03*
X016979Y006875D03*
X017584Y006705D03*
X017664Y006735D03*
X017664Y006740D03*
X017704Y006940D03*
X017939Y006755D03*
X017944Y006760D03*
X018034Y006950D03*
X017964Y007150D03*
X017964Y007155D03*
X018274Y007195D03*
X019229Y007315D03*
X018409Y006730D03*
X018469Y006515D03*
X018009Y006575D03*
X017999Y006560D03*
X017994Y006555D03*
X017989Y006545D03*
X017984Y006540D03*
X017934Y006560D03*
X017934Y006565D03*
X017939Y006575D03*
X017929Y006555D03*
X017924Y006545D03*
X017619Y006500D03*
X017304Y006450D03*
X017299Y006440D03*
X017249Y006465D03*
X017249Y006470D03*
X017249Y006475D03*
X017249Y006480D03*
X017249Y006485D03*
X017389Y006220D03*
X017484Y006205D03*
X017529Y006090D03*
X017524Y006080D03*
X017454Y006050D03*
X017334Y006100D03*
X017329Y006105D03*
X017794Y006365D03*
X017594Y005695D03*
X017599Y005685D03*
X017599Y005680D03*
X017604Y005670D03*
X017814Y005370D03*
X017814Y005365D03*
X017779Y005060D03*
X017779Y005055D03*
X017779Y005050D03*
X017704Y005025D03*
X018324Y008610D03*
D20*
X018329Y008620D03*
X018319Y008675D03*
X017954Y008550D03*
X018129Y008470D03*
X018139Y008375D03*
X018069Y008360D03*
X018064Y008355D03*
X018059Y008350D03*
X018054Y008345D03*
X018054Y008340D03*
X018049Y008335D03*
X018044Y008330D03*
X018304Y008195D03*
X018304Y008190D03*
X018349Y008180D03*
X018314Y008080D03*
X018624Y007985D03*
X018629Y007995D03*
X018629Y008000D03*
X018679Y008080D03*
X018889Y008000D03*
X018919Y007970D03*
X018509Y007870D03*
X018469Y007710D03*
X018464Y007705D03*
X018529Y007675D03*
X018529Y007670D03*
X018484Y007635D03*
X018484Y007630D03*
X018484Y007625D03*
X018484Y007620D03*
X018599Y007625D03*
X018599Y007630D03*
X018639Y007620D03*
X018644Y007625D03*
X018644Y007630D03*
X018614Y007530D03*
X018909Y007355D03*
X019169Y007320D03*
X019219Y007310D03*
X018249Y007075D03*
X018244Y007070D03*
X017969Y007165D03*
X018024Y007300D03*
X017854Y007540D03*
X017894Y007635D03*
X017514Y007555D03*
X017509Y007545D03*
X017504Y007540D03*
X017504Y007535D03*
X017499Y007460D03*
X017479Y007275D03*
X017479Y007270D03*
X017479Y007265D03*
X017409Y007255D03*
X017404Y007240D03*
X017404Y007235D03*
X017404Y007230D03*
X017399Y007225D03*
X017399Y007220D03*
X017329Y007195D03*
X017654Y006955D03*
X017694Y006925D03*
X017694Y006920D03*
X017664Y006755D03*
X017664Y006750D03*
X017594Y006725D03*
X017589Y006715D03*
X017759Y006645D03*
X017914Y006525D03*
X017914Y006520D03*
X017909Y006515D03*
X017909Y006510D03*
X017954Y006495D03*
X017959Y006505D03*
X017964Y006510D03*
X017969Y006515D03*
X017974Y006525D03*
X017799Y006370D03*
X017679Y006315D03*
X017614Y006490D03*
X017439Y006340D03*
X017289Y006420D03*
X017294Y006430D03*
X017244Y006430D03*
X017244Y006435D03*
X017244Y006425D03*
X017244Y006420D03*
X017244Y006415D03*
X017299Y006200D03*
X017319Y006125D03*
X017324Y006120D03*
X017459Y006035D03*
X017514Y006055D03*
X017574Y005750D03*
X017574Y005745D03*
X017579Y005740D03*
X017579Y005735D03*
X017584Y005725D03*
X017819Y005350D03*
X017819Y005345D03*
X017779Y005040D03*
X017779Y005035D03*
X017779Y005030D03*
X017949Y006770D03*
X017954Y006775D03*
X018404Y006735D03*
X016994Y006770D03*
X016969Y006870D03*
X017679Y008005D03*
X017684Y008010D03*
X018839Y008310D03*
X018844Y008420D03*
X018919Y008415D03*
X019569Y008885D03*
X020059Y008600D03*
X020114Y008570D03*
X020149Y008545D03*
D21*
X020101Y008560D03*
X018821Y008525D03*
X018826Y008405D03*
X018831Y008290D03*
X018631Y008125D03*
X018686Y008065D03*
X018616Y007955D03*
X018616Y007950D03*
X018831Y008020D03*
X018901Y008010D03*
X018431Y007750D03*
X018451Y007685D03*
X018446Y007675D03*
X018536Y007645D03*
X018536Y007640D03*
X018536Y007635D03*
X018591Y007655D03*
X018591Y007660D03*
X018651Y007655D03*
X018651Y007650D03*
X018611Y007525D03*
X018536Y007535D03*
X018476Y007565D03*
X018476Y007570D03*
X018476Y007575D03*
X018906Y007360D03*
X019171Y007335D03*
X018226Y007050D03*
X018221Y007045D03*
X018036Y006955D03*
X017936Y006750D03*
X017931Y006745D03*
X017761Y006655D03*
X017666Y006725D03*
X017666Y006730D03*
X017581Y006700D03*
X017576Y006690D03*
X017626Y006515D03*
X017626Y006510D03*
X017621Y006505D03*
X017306Y006455D03*
X017251Y006490D03*
X017251Y006495D03*
X017251Y006500D03*
X017251Y006505D03*
X017251Y006510D03*
X016996Y006775D03*
X017246Y006925D03*
X017081Y007030D03*
X017316Y007175D03*
X017381Y007155D03*
X017376Y007140D03*
X017376Y007135D03*
X017376Y007130D03*
X017371Y007120D03*
X017371Y007115D03*
X017481Y007240D03*
X017481Y007245D03*
X017651Y006980D03*
X017651Y006975D03*
X017706Y006945D03*
X017711Y006950D03*
X017711Y006955D03*
X017961Y007145D03*
X018026Y007310D03*
X017856Y007515D03*
X017856Y007520D03*
X017801Y007560D03*
X017541Y007605D03*
X017536Y007600D03*
X017536Y007595D03*
X017701Y008035D03*
X017706Y008040D03*
X017996Y008270D03*
X018001Y008275D03*
X018006Y008280D03*
X018016Y008295D03*
X018136Y008365D03*
X018126Y008475D03*
X017956Y008540D03*
X018321Y008600D03*
X018321Y008605D03*
X018626Y008740D03*
X018356Y008190D03*
X018296Y008220D03*
X018311Y008070D03*
X018416Y006725D03*
X018466Y006535D03*
X018466Y006530D03*
X018466Y006525D03*
X018466Y006520D03*
X018026Y006600D03*
X018016Y006585D03*
X018011Y006580D03*
X018006Y006570D03*
X018001Y006565D03*
X017946Y006590D03*
X017941Y006580D03*
X017936Y006570D03*
X017666Y006305D03*
X017396Y006225D03*
X017336Y006095D03*
X017341Y006085D03*
X017526Y006085D03*
X017531Y006095D03*
X017601Y005675D03*
X017606Y005665D03*
X017606Y005660D03*
X017611Y005655D03*
X017611Y005650D03*
X017611Y005645D03*
X017616Y005635D03*
X017811Y005380D03*
X017811Y005375D03*
X017776Y005070D03*
X017776Y005065D03*
X017696Y005030D03*
D22*
X017694Y005035D03*
X017779Y005075D03*
X017809Y005385D03*
X017809Y005390D03*
X017809Y005395D03*
X017624Y005615D03*
X017624Y005620D03*
X017619Y005625D03*
X017619Y005630D03*
X017614Y005640D03*
X017454Y006055D03*
X017534Y006100D03*
X017534Y006105D03*
X017539Y006115D03*
X017479Y006200D03*
X017404Y006230D03*
X017424Y006335D03*
X017314Y006360D03*
X017309Y006460D03*
X017314Y006470D03*
X017254Y006515D03*
X017254Y006520D03*
X017254Y006525D03*
X017254Y006530D03*
X017254Y006535D03*
X017574Y006685D03*
X017579Y006695D03*
X017669Y006720D03*
X017764Y006660D03*
X017929Y006740D03*
X017959Y006615D03*
X017954Y006605D03*
X017954Y006600D03*
X017949Y006595D03*
X017944Y006585D03*
X018019Y006590D03*
X018024Y006595D03*
X018029Y006605D03*
X018034Y006610D03*
X017789Y006360D03*
X017659Y006300D03*
X017629Y006520D03*
X017714Y006960D03*
X017649Y006985D03*
X017649Y006990D03*
X017364Y007085D03*
X017364Y007090D03*
X017364Y007095D03*
X017369Y007100D03*
X017369Y007105D03*
X017369Y007110D03*
X017374Y007125D03*
X017314Y007170D03*
X016999Y006885D03*
X016559Y006860D03*
X017519Y007475D03*
X017544Y007610D03*
X017549Y007615D03*
X017549Y007620D03*
X017554Y007625D03*
X017794Y007555D03*
X017859Y007510D03*
X017859Y007505D03*
X017914Y007645D03*
X018439Y007665D03*
X018444Y007670D03*
X018449Y007680D03*
X018539Y007630D03*
X018539Y007625D03*
X018474Y007560D03*
X018474Y007555D03*
X018474Y007550D03*
X018474Y007545D03*
X018654Y007660D03*
X018509Y007885D03*
X018509Y007890D03*
X018614Y007940D03*
X018614Y007945D03*
X018829Y008025D03*
X018889Y007900D03*
X018374Y008145D03*
X017994Y008265D03*
X017989Y008260D03*
X017984Y008255D03*
X017979Y008250D03*
X017969Y008235D03*
X017714Y008050D03*
X017709Y008045D03*
X018829Y008280D03*
X018829Y008285D03*
X018819Y008400D03*
X018904Y008455D03*
X018909Y008460D03*
X018319Y008595D03*
X018309Y008670D03*
X019619Y008850D03*
X020094Y008555D03*
X020149Y008535D03*
X019174Y007340D03*
X019234Y007320D03*
X018904Y007365D03*
X018219Y007040D03*
X018214Y007035D03*
X018209Y007030D03*
X018039Y006960D03*
X017959Y007140D03*
X018029Y007315D03*
X018464Y006555D03*
X018464Y006550D03*
X018464Y006545D03*
X018464Y006540D03*
X017344Y006080D03*
X017339Y006090D03*
D23*
X017349Y006070D03*
X017354Y006065D03*
X017354Y006060D03*
X017449Y006065D03*
X017449Y006070D03*
X017544Y006125D03*
X017544Y006130D03*
X017549Y006135D03*
X017474Y006195D03*
X017419Y006240D03*
X017289Y006205D03*
X017319Y006480D03*
X017324Y006490D03*
X017259Y006570D03*
X017259Y006575D03*
X017259Y006580D03*
X017259Y006585D03*
X017259Y006590D03*
X017569Y006675D03*
X017669Y006700D03*
X017669Y006705D03*
X017764Y006665D03*
X017919Y006730D03*
X017924Y006735D03*
X017979Y006655D03*
X017974Y006645D03*
X017969Y006640D03*
X017969Y006635D03*
X017964Y006625D03*
X018054Y006640D03*
X018059Y006645D03*
X018059Y006650D03*
X018064Y006655D03*
X018069Y006660D03*
X018424Y006720D03*
X018459Y006595D03*
X018459Y006590D03*
X018459Y006585D03*
X018459Y006580D03*
X018044Y006970D03*
X017724Y006975D03*
X017724Y006980D03*
X017649Y007000D03*
X017649Y007005D03*
X017354Y007050D03*
X017354Y007055D03*
X017349Y007040D03*
X017349Y007035D03*
X017349Y007030D03*
X017344Y007020D03*
X017344Y007015D03*
X017304Y007160D03*
X017484Y007220D03*
X017534Y007485D03*
X017564Y007645D03*
X017569Y007655D03*
X017574Y007665D03*
X017789Y007550D03*
X017859Y007495D03*
X017859Y007490D03*
X018029Y007320D03*
X018044Y007190D03*
X017954Y007130D03*
X017954Y007125D03*
X018544Y007290D03*
X018904Y007370D03*
X019174Y007350D03*
X019244Y007325D03*
X018609Y007520D03*
X018544Y007605D03*
X018544Y007610D03*
X018589Y007675D03*
X018589Y007680D03*
X018659Y007680D03*
X018659Y007675D03*
X018664Y007685D03*
X018434Y007655D03*
X018429Y007650D03*
X018469Y007520D03*
X018469Y007515D03*
X018469Y007510D03*
X018469Y007505D03*
X018464Y007495D03*
X018464Y007490D03*
X018509Y007895D03*
X018604Y007910D03*
X018604Y007915D03*
X018609Y007925D03*
X018824Y008035D03*
X018694Y008055D03*
X018824Y008270D03*
X018914Y008465D03*
X018804Y008535D03*
X018619Y008735D03*
X018299Y008665D03*
X018314Y008585D03*
X018294Y008240D03*
X018294Y008235D03*
X018364Y008200D03*
X017954Y008215D03*
X017949Y008210D03*
X017944Y008205D03*
X017739Y008085D03*
X017734Y008080D03*
X017724Y008065D03*
X018889Y007890D03*
X019679Y007950D03*
X020149Y008525D03*
X020079Y008545D03*
X017004Y006780D03*
X017634Y006530D03*
X017639Y006535D03*
X017634Y005590D03*
X017639Y005580D03*
X017639Y005575D03*
X017639Y005570D03*
X017644Y005565D03*
X017644Y005560D03*
X017649Y005550D03*
X017804Y005415D03*
X017804Y005410D03*
X017779Y005095D03*
X017689Y005040D03*
X020454Y005635D03*
D24*
X020716Y006045D03*
X020186Y006045D03*
X018456Y006600D03*
X018456Y006605D03*
X018456Y006610D03*
X018086Y006685D03*
X018081Y006680D03*
X018076Y006675D03*
X018076Y006670D03*
X018071Y006665D03*
X017986Y006670D03*
X017981Y006665D03*
X017981Y006660D03*
X017976Y006650D03*
X017916Y006725D03*
X017766Y006670D03*
X017671Y006695D03*
X017566Y006670D03*
X017566Y006665D03*
X017561Y006660D03*
X017641Y006540D03*
X017326Y006495D03*
X017321Y006485D03*
X017326Y006365D03*
X017426Y006245D03*
X017551Y006145D03*
X017551Y006140D03*
X017446Y006075D03*
X017356Y006055D03*
X017646Y006290D03*
X017781Y006355D03*
X017261Y006595D03*
X017261Y006600D03*
X017261Y006605D03*
X017261Y006610D03*
X017261Y006615D03*
X017331Y006970D03*
X017336Y006985D03*
X017336Y006990D03*
X017336Y006995D03*
X017341Y007000D03*
X017341Y007005D03*
X017341Y007010D03*
X017346Y007025D03*
X017301Y007155D03*
X017481Y007215D03*
X017651Y007010D03*
X017726Y006985D03*
X017731Y006990D03*
X017951Y007120D03*
X018031Y007325D03*
X017861Y007485D03*
X017926Y007650D03*
X017586Y007685D03*
X017581Y007680D03*
X017581Y007675D03*
X017576Y007670D03*
X017571Y007660D03*
X018421Y007635D03*
X018426Y007640D03*
X018426Y007645D03*
X018546Y007600D03*
X018546Y007595D03*
X018546Y007545D03*
X018466Y007500D03*
X018461Y007485D03*
X018461Y007480D03*
X018461Y007475D03*
X018461Y007470D03*
X018586Y007685D03*
X018586Y007690D03*
X018666Y007690D03*
X018666Y007695D03*
X018601Y007895D03*
X018601Y007900D03*
X018601Y007905D03*
X018506Y007900D03*
X018696Y008050D03*
X018821Y008040D03*
X018911Y008020D03*
X018886Y007885D03*
X018311Y008060D03*
X018291Y008245D03*
X018136Y008350D03*
X018126Y008485D03*
X017961Y008530D03*
X018311Y008580D03*
X018801Y008385D03*
X018821Y008265D03*
X018821Y008260D03*
X017941Y008200D03*
X017936Y008195D03*
X017931Y008190D03*
X017926Y008180D03*
X017921Y008175D03*
X017746Y008095D03*
X017741Y008090D03*
X019176Y007355D03*
X019251Y007330D03*
X018196Y007015D03*
X018191Y007010D03*
X018186Y007005D03*
X017016Y006895D03*
X017646Y005555D03*
X017651Y005545D03*
X017651Y005540D03*
X017656Y005530D03*
X017801Y005425D03*
X017801Y005420D03*
X017776Y005110D03*
X017776Y005105D03*
X017776Y005100D03*
X017686Y005045D03*
X020146Y008520D03*
X020071Y008540D03*
D25*
X020064Y008535D03*
X020024Y008590D03*
X019619Y008845D03*
X018954Y008425D03*
X018919Y008470D03*
X018794Y008380D03*
X018819Y008255D03*
X018699Y008045D03*
X018599Y007890D03*
X018599Y007885D03*
X018509Y007905D03*
X018409Y007740D03*
X018419Y007630D03*
X018549Y007590D03*
X018549Y007585D03*
X018549Y007580D03*
X018549Y007550D03*
X018459Y007465D03*
X018459Y007460D03*
X018459Y007455D03*
X018459Y007450D03*
X017949Y007115D03*
X018049Y006975D03*
X018179Y006995D03*
X018184Y007000D03*
X017734Y006995D03*
X017649Y007015D03*
X017649Y007020D03*
X017649Y007025D03*
X017484Y007200D03*
X017484Y007205D03*
X017484Y007210D03*
X017299Y007150D03*
X017294Y007145D03*
X017334Y006980D03*
X017334Y006975D03*
X017329Y006965D03*
X017329Y006960D03*
X017329Y006955D03*
X017324Y006945D03*
X017324Y006940D03*
X017234Y006915D03*
X017024Y006900D03*
X017264Y006640D03*
X017264Y006635D03*
X017264Y006630D03*
X017264Y006625D03*
X017264Y006620D03*
X017329Y006500D03*
X017559Y006655D03*
X017669Y006690D03*
X017769Y006675D03*
X017909Y006715D03*
X017914Y006720D03*
X017989Y006680D03*
X017989Y006675D03*
X017994Y006685D03*
X017994Y006690D03*
X018089Y006690D03*
X018094Y006695D03*
X018094Y006700D03*
X018099Y006705D03*
X018104Y006710D03*
X018429Y006715D03*
X018454Y006630D03*
X018454Y006625D03*
X018454Y006620D03*
X018454Y006615D03*
X017644Y006545D03*
X017639Y006285D03*
X017559Y006160D03*
X017554Y006150D03*
X017469Y006190D03*
X017434Y006250D03*
X017409Y006330D03*
X017359Y006050D03*
X017364Y006045D03*
X017654Y005535D03*
X017659Y005525D03*
X017659Y005520D03*
X017664Y005515D03*
X017664Y005510D03*
X017664Y005505D03*
X017669Y005495D03*
X017794Y005450D03*
X017794Y005445D03*
X017794Y005440D03*
X017799Y005435D03*
X017799Y005430D03*
X017774Y005115D03*
X017679Y005050D03*
X019804Y006045D03*
X019174Y007360D03*
X018669Y007700D03*
X018584Y007700D03*
X018584Y007695D03*
X018884Y007880D03*
X018309Y008055D03*
X018369Y008205D03*
X018289Y008250D03*
X018289Y008255D03*
X018134Y008345D03*
X017964Y008525D03*
X018309Y008575D03*
X018409Y008620D03*
X017929Y008185D03*
X017919Y008170D03*
X017914Y008165D03*
X017909Y008160D03*
X017904Y008155D03*
X017754Y008105D03*
X017749Y008100D03*
X017594Y007700D03*
X017589Y007695D03*
X017589Y007690D03*
X017539Y007490D03*
X017784Y007545D03*
X017859Y007480D03*
X017859Y007475D03*
X020519Y007875D03*
D26*
X020146Y008515D03*
X019536Y008875D03*
X018921Y008475D03*
X018796Y008540D03*
X018786Y008375D03*
X018781Y008370D03*
X018816Y008250D03*
X018816Y008045D03*
X018916Y008025D03*
X018886Y007875D03*
X018701Y008040D03*
X018596Y007880D03*
X018596Y007875D03*
X018506Y007910D03*
X018581Y007710D03*
X018581Y007705D03*
X018671Y007705D03*
X018671Y007710D03*
X018551Y007575D03*
X018551Y007570D03*
X018416Y007625D03*
X018411Y007620D03*
X017936Y007655D03*
X017861Y007470D03*
X017861Y007465D03*
X018031Y007335D03*
X018031Y007330D03*
X017946Y007110D03*
X018051Y006980D03*
X018171Y006985D03*
X018176Y006990D03*
X017741Y007010D03*
X017736Y007005D03*
X017736Y007000D03*
X017486Y007195D03*
X017291Y007140D03*
X017326Y006950D03*
X017321Y006935D03*
X017321Y006930D03*
X017321Y006925D03*
X017316Y006920D03*
X017316Y006915D03*
X017036Y006905D03*
X017006Y006785D03*
X017266Y006665D03*
X017266Y006660D03*
X017266Y006655D03*
X017266Y006650D03*
X017266Y006645D03*
X017336Y006515D03*
X017331Y006510D03*
X017331Y006505D03*
X017556Y006650D03*
X017671Y006675D03*
X017671Y006680D03*
X017671Y006685D03*
X017646Y006550D03*
X017901Y006705D03*
X017906Y006710D03*
X017996Y006695D03*
X018001Y006700D03*
X018001Y006705D03*
X018006Y006710D03*
X018006Y006715D03*
X018106Y006715D03*
X018111Y006720D03*
X018111Y006725D03*
X018116Y006730D03*
X018451Y006650D03*
X018451Y006645D03*
X018451Y006640D03*
X018451Y006635D03*
X017776Y006350D03*
X017631Y006280D03*
X017561Y006170D03*
X017561Y006165D03*
X017556Y006155D03*
X017446Y006080D03*
X017366Y006040D03*
X017366Y006035D03*
X017441Y006255D03*
X016556Y006865D03*
X017546Y007495D03*
X017596Y007705D03*
X017601Y007710D03*
X017601Y007715D03*
X017606Y007720D03*
X017756Y008110D03*
X017761Y008115D03*
X017881Y008125D03*
X017891Y008140D03*
X017896Y008145D03*
X017901Y008150D03*
X018136Y008340D03*
X018286Y008265D03*
X018286Y008260D03*
X018306Y008570D03*
X018286Y008660D03*
X018456Y007445D03*
X018456Y007440D03*
X018456Y007435D03*
X018456Y007430D03*
X018901Y007375D03*
X019176Y007365D03*
X019676Y006245D03*
X017791Y005460D03*
X017791Y005455D03*
X017676Y005475D03*
X017676Y005480D03*
X017671Y005485D03*
X017671Y005490D03*
X017666Y005500D03*
X017776Y005130D03*
X017776Y005125D03*
X017776Y005120D03*
X017676Y005055D03*
D27*
X017671Y005060D03*
X017776Y005140D03*
X017776Y005145D03*
X017701Y005410D03*
X017696Y005420D03*
X017696Y005425D03*
X017691Y005430D03*
X017691Y005435D03*
X017691Y005440D03*
X017686Y005450D03*
X017786Y005475D03*
X017786Y005480D03*
X017376Y006020D03*
X017441Y006095D03*
X017456Y006180D03*
X017451Y006260D03*
X017571Y006190D03*
X017626Y006275D03*
X017771Y006335D03*
X017771Y006340D03*
X018146Y006330D03*
X018146Y006325D03*
X018146Y006320D03*
X018146Y006370D03*
X018146Y006375D03*
X018146Y006380D03*
X018151Y006500D03*
X018151Y006505D03*
X018151Y006510D03*
X018151Y006515D03*
X018151Y006520D03*
X018156Y006530D03*
X018156Y006535D03*
X018361Y006530D03*
X018361Y006525D03*
X018366Y006515D03*
X018366Y006510D03*
X018366Y006505D03*
X018366Y006500D03*
X018366Y006495D03*
X018361Y006480D03*
X018361Y006475D03*
X018366Y006345D03*
X018366Y006340D03*
X018366Y006335D03*
X018366Y006330D03*
X018366Y006325D03*
X018366Y006320D03*
X018361Y006315D03*
X018576Y006355D03*
X018576Y006360D03*
X018576Y006365D03*
X018576Y006370D03*
X018576Y006375D03*
X018576Y006380D03*
X018576Y006385D03*
X018576Y006390D03*
X018576Y006395D03*
X018576Y006400D03*
X018576Y006405D03*
X018576Y006410D03*
X018576Y006415D03*
X018576Y006420D03*
X018576Y006425D03*
X018576Y006430D03*
X018576Y006435D03*
X018576Y006440D03*
X018576Y006445D03*
X018576Y006450D03*
X018576Y006455D03*
X018576Y006460D03*
X018576Y006465D03*
X018576Y006470D03*
X018576Y006475D03*
X018576Y006480D03*
X018576Y006485D03*
X018576Y006490D03*
X018576Y006495D03*
X018576Y006500D03*
X018581Y006505D03*
X018581Y006510D03*
X018581Y006515D03*
X018581Y006520D03*
X018446Y006675D03*
X018446Y006680D03*
X018446Y006685D03*
X018446Y006690D03*
X018441Y006705D03*
X018151Y006780D03*
X018146Y006775D03*
X018146Y006770D03*
X018141Y006765D03*
X018136Y006760D03*
X018031Y006765D03*
X018026Y006755D03*
X018026Y006750D03*
X018021Y006745D03*
X018016Y006735D03*
X017896Y006695D03*
X017891Y006690D03*
X017771Y006685D03*
X017671Y006665D03*
X017656Y006570D03*
X017651Y006560D03*
X017551Y006635D03*
X017546Y006630D03*
X017341Y006525D03*
X017271Y006695D03*
X017271Y006700D03*
X017271Y006705D03*
X017271Y006710D03*
X017271Y006715D03*
X017296Y006840D03*
X017301Y006855D03*
X017301Y006860D03*
X017301Y006865D03*
X017306Y006875D03*
X017306Y006880D03*
X017646Y007040D03*
X017646Y007045D03*
X017746Y007020D03*
X017941Y007095D03*
X018056Y006990D03*
X018156Y006970D03*
X018161Y006975D03*
X017486Y007175D03*
X017486Y007180D03*
X017286Y007130D03*
X017281Y007125D03*
X017861Y007450D03*
X017861Y007455D03*
X017861Y007460D03*
X017771Y007535D03*
X017946Y007660D03*
X018396Y007595D03*
X018401Y007600D03*
X018401Y007605D03*
X018406Y007610D03*
X018676Y007725D03*
X018586Y007845D03*
X018586Y007850D03*
X018591Y007860D03*
X018506Y007915D03*
X018506Y007920D03*
X018306Y008045D03*
X018376Y008215D03*
X018281Y008275D03*
X018281Y008280D03*
X018136Y008335D03*
X018121Y008495D03*
X017966Y008520D03*
X018296Y008550D03*
X018296Y008555D03*
X018301Y008560D03*
X018276Y008655D03*
X018416Y008615D03*
X018786Y008545D03*
X018931Y008485D03*
X018766Y008360D03*
X018811Y008235D03*
X018811Y008055D03*
X018921Y008030D03*
X018881Y007865D03*
X019176Y007375D03*
X019266Y007340D03*
X018451Y007395D03*
X018451Y007400D03*
X018451Y007405D03*
X018451Y007410D03*
X018031Y007340D03*
X017616Y007740D03*
X017621Y007750D03*
X017626Y007760D03*
X017771Y008130D03*
X017776Y008135D03*
X017856Y008095D03*
X017861Y008100D03*
X017866Y008105D03*
X020006Y008585D03*
X020051Y008525D03*
X016876Y006830D03*
X018581Y006345D03*
X018581Y006340D03*
X018581Y006335D03*
X018581Y006330D03*
X018821Y006330D03*
X018821Y006335D03*
X018821Y006340D03*
X018821Y006345D03*
X018821Y006350D03*
X018826Y006355D03*
X018826Y006360D03*
X018826Y006365D03*
X018826Y006370D03*
X018826Y006375D03*
X018826Y006380D03*
X018826Y006385D03*
X018826Y006390D03*
X018826Y006395D03*
X018826Y006400D03*
X018826Y006405D03*
X018826Y006410D03*
X018826Y006415D03*
X018826Y006420D03*
X018826Y006425D03*
X018826Y006430D03*
X018826Y006435D03*
X018826Y006440D03*
X018826Y006445D03*
X018826Y006450D03*
X018826Y006455D03*
X018826Y006460D03*
X018826Y006465D03*
X018826Y006470D03*
X018826Y006475D03*
X018826Y006480D03*
X018826Y006485D03*
X018821Y006495D03*
X018821Y006500D03*
X018821Y006505D03*
X018821Y006510D03*
X018821Y006515D03*
X018821Y006520D03*
X018816Y006525D03*
X018816Y006530D03*
X019046Y006520D03*
X019046Y006515D03*
X019046Y006510D03*
X019046Y006505D03*
X019046Y006500D03*
X019046Y006495D03*
X019046Y006490D03*
X019046Y006485D03*
X019046Y006480D03*
X019051Y006475D03*
X019051Y006470D03*
X019041Y006385D03*
X019041Y006380D03*
X019036Y006370D03*
X019036Y006365D03*
X019036Y006360D03*
X019036Y006355D03*
X019036Y006350D03*
X019036Y006345D03*
X019036Y006340D03*
X019036Y006335D03*
X019261Y006335D03*
X019261Y006340D03*
X019261Y006345D03*
X019261Y006350D03*
X019261Y006355D03*
X019261Y006360D03*
X019261Y006365D03*
X019261Y006370D03*
X019261Y006375D03*
X019261Y006380D03*
X019261Y006385D03*
X019261Y006390D03*
X019261Y006395D03*
X019261Y006400D03*
X019261Y006460D03*
X019261Y006465D03*
X019261Y006470D03*
X019261Y006475D03*
X019261Y006480D03*
X019261Y006485D03*
X019261Y006490D03*
X019261Y006495D03*
X019261Y006500D03*
X019261Y006505D03*
X019261Y006510D03*
X019261Y006515D03*
X019261Y006520D03*
X019261Y006525D03*
X019261Y006530D03*
X019261Y006535D03*
X019261Y006540D03*
X019501Y006490D03*
X019501Y006485D03*
X019501Y006480D03*
X019501Y006475D03*
X019501Y006470D03*
X019501Y006465D03*
X019501Y006460D03*
X019501Y006455D03*
X019501Y006450D03*
X019501Y006445D03*
X019501Y006440D03*
X019501Y006435D03*
X019501Y006430D03*
X019501Y006425D03*
X019501Y006420D03*
X019501Y006415D03*
X019501Y006410D03*
X019501Y006405D03*
X019501Y006400D03*
X019501Y006395D03*
X019501Y006390D03*
X019501Y006385D03*
X019501Y006380D03*
X019501Y006375D03*
X019501Y006370D03*
X019501Y006365D03*
X019501Y006360D03*
X019501Y006355D03*
X019501Y006350D03*
X019501Y006345D03*
X019501Y006340D03*
X019501Y006335D03*
X019501Y006330D03*
X019501Y006325D03*
X019501Y006320D03*
X019501Y006315D03*
X019501Y006310D03*
X019501Y006305D03*
X019501Y006300D03*
X019501Y006295D03*
X019501Y006290D03*
X019501Y006285D03*
X019501Y006280D03*
X019501Y006275D03*
X019501Y006270D03*
X019501Y006265D03*
X019501Y006260D03*
X019501Y006255D03*
X019501Y006250D03*
X019501Y006245D03*
X019636Y006355D03*
X019636Y006360D03*
X019631Y006370D03*
X019631Y006375D03*
X019626Y006385D03*
X019621Y006400D03*
X019591Y006480D03*
X019586Y006495D03*
X019581Y006510D03*
X019576Y006520D03*
X019576Y006525D03*
X019766Y006485D03*
X019771Y006500D03*
X019776Y006510D03*
X019776Y006515D03*
X019741Y006420D03*
X019736Y006405D03*
X019731Y006395D03*
X019731Y006390D03*
X019726Y006380D03*
X019726Y006375D03*
X019721Y006370D03*
X019721Y006365D03*
X019721Y006360D03*
X019716Y006355D03*
X019716Y006350D03*
X019676Y006255D03*
X019676Y006250D03*
X019261Y006310D03*
X019261Y006315D03*
X019261Y006320D03*
X019261Y006325D03*
X019261Y006330D03*
X020096Y006330D03*
X020096Y006335D03*
X020096Y006340D03*
X020096Y006325D03*
X020321Y006325D03*
X020321Y006330D03*
X020321Y006335D03*
X020321Y006340D03*
X020566Y006340D03*
X020566Y006345D03*
X020566Y006350D03*
X020566Y006355D03*
X020566Y006360D03*
X020566Y006335D03*
X020566Y006330D03*
X020566Y006325D03*
X020731Y006325D03*
X020731Y006330D03*
X020731Y006335D03*
X020731Y006340D03*
X020731Y006345D03*
X020731Y006350D03*
X020731Y006355D03*
X020731Y006360D03*
D28*
X020729Y006320D03*
X020569Y006320D03*
X020569Y006315D03*
X020319Y006320D03*
X020099Y006320D03*
X019759Y006460D03*
X019759Y006465D03*
X019759Y006470D03*
X019764Y006475D03*
X019764Y006480D03*
X019769Y006490D03*
X019769Y006495D03*
X019774Y006505D03*
X019754Y006455D03*
X019754Y006450D03*
X019749Y006445D03*
X019749Y006440D03*
X019749Y006435D03*
X019744Y006430D03*
X019744Y006425D03*
X019739Y006415D03*
X019739Y006410D03*
X019734Y006400D03*
X019729Y006385D03*
X019634Y006365D03*
X019629Y006380D03*
X019624Y006390D03*
X019624Y006395D03*
X019619Y006405D03*
X019619Y006410D03*
X019614Y006415D03*
X019614Y006420D03*
X019614Y006425D03*
X019609Y006430D03*
X019609Y006435D03*
X019604Y006440D03*
X019604Y006445D03*
X019604Y006450D03*
X019599Y006455D03*
X019599Y006460D03*
X019599Y006465D03*
X019594Y006470D03*
X019594Y006475D03*
X019589Y006485D03*
X019589Y006490D03*
X019584Y006500D03*
X019584Y006505D03*
X019579Y006515D03*
X019679Y006260D03*
X019804Y006040D03*
X020184Y006035D03*
X020719Y006035D03*
X020454Y005645D03*
X019044Y006315D03*
X019039Y006325D03*
X019039Y006330D03*
X019044Y006390D03*
X019049Y006395D03*
X019054Y006465D03*
X019049Y006525D03*
X018819Y006325D03*
X018819Y006320D03*
X018584Y006320D03*
X018584Y006325D03*
X018359Y006310D03*
X018359Y006470D03*
X018364Y006485D03*
X018364Y006490D03*
X018364Y006520D03*
X018359Y006535D03*
X018444Y006695D03*
X018444Y006700D03*
X018589Y006535D03*
X018584Y006530D03*
X018584Y006525D03*
X018159Y006540D03*
X018154Y006525D03*
X018149Y006385D03*
X018149Y006315D03*
X017769Y006330D03*
X017619Y006270D03*
X017579Y006205D03*
X017574Y006200D03*
X017574Y006195D03*
X017459Y006265D03*
X017394Y006325D03*
X017344Y006530D03*
X017344Y006535D03*
X017349Y006540D03*
X017274Y006720D03*
X017274Y006725D03*
X017274Y006730D03*
X017274Y006735D03*
X017274Y006740D03*
X017289Y006810D03*
X017289Y006815D03*
X017294Y006825D03*
X017294Y006830D03*
X017294Y006835D03*
X017299Y006845D03*
X017299Y006850D03*
X017054Y006915D03*
X017014Y006790D03*
X017544Y006625D03*
X017659Y006575D03*
X017674Y006650D03*
X017674Y006655D03*
X017674Y006660D03*
X017884Y006680D03*
X017889Y006685D03*
X018029Y006760D03*
X018034Y006770D03*
X018039Y006780D03*
X018154Y006785D03*
X018159Y006790D03*
X018164Y006795D03*
X018164Y006800D03*
X018169Y006805D03*
X018144Y006955D03*
X018149Y006960D03*
X018154Y006965D03*
X018059Y006995D03*
X017939Y007090D03*
X017754Y007035D03*
X017754Y007030D03*
X017749Y007025D03*
X017649Y007050D03*
X018034Y007345D03*
X018449Y007375D03*
X018449Y007380D03*
X018449Y007385D03*
X018449Y007390D03*
X018394Y007590D03*
X018579Y007730D03*
X018579Y007735D03*
X018584Y007830D03*
X018584Y007835D03*
X018584Y007840D03*
X018684Y007745D03*
X018684Y007740D03*
X018679Y007735D03*
X018679Y007730D03*
X018884Y007860D03*
X018704Y008030D03*
X018809Y008060D03*
X018809Y008230D03*
X018969Y008430D03*
X018294Y008545D03*
X017969Y008515D03*
X018134Y008330D03*
X018279Y008290D03*
X018279Y008285D03*
X017854Y008090D03*
X017849Y008085D03*
X017844Y008080D03*
X017844Y008075D03*
X017839Y008070D03*
X017834Y008065D03*
X017829Y008060D03*
X017779Y008140D03*
X017784Y008145D03*
X017784Y008150D03*
X017789Y008155D03*
X017639Y007780D03*
X017634Y007775D03*
X017634Y007770D03*
X017629Y007765D03*
X017624Y007755D03*
X017559Y007505D03*
X018899Y007385D03*
X019179Y007380D03*
X020044Y008520D03*
X020144Y008505D03*
X019619Y008840D03*
X017439Y006100D03*
X017379Y006015D03*
X017379Y006010D03*
X017384Y006005D03*
X017784Y005490D03*
X017784Y005485D03*
X017699Y005415D03*
X017704Y005405D03*
X017704Y005400D03*
X017709Y005390D03*
X017774Y005160D03*
X017774Y005155D03*
X017774Y005150D03*
X017664Y005065D03*
D29*
X017661Y005070D03*
X017776Y005165D03*
X017721Y005355D03*
X017716Y005365D03*
X017716Y005370D03*
X017716Y005375D03*
X017711Y005380D03*
X017711Y005385D03*
X017706Y005395D03*
X017781Y005495D03*
X017781Y005500D03*
X017781Y005505D03*
X017386Y006000D03*
X017436Y006105D03*
X017451Y006175D03*
X017466Y006270D03*
X017581Y006215D03*
X017581Y006210D03*
X017586Y006225D03*
X017611Y006265D03*
X017766Y006320D03*
X017766Y006325D03*
X018151Y006310D03*
X018356Y006540D03*
X018591Y006315D03*
X018811Y006315D03*
X019041Y006320D03*
X019061Y006460D03*
X019051Y006530D03*
X018811Y006535D03*
X018186Y006830D03*
X018181Y006825D03*
X018176Y006815D03*
X018171Y006810D03*
X018051Y006805D03*
X018046Y006795D03*
X018041Y006790D03*
X018041Y006785D03*
X018036Y006775D03*
X017881Y006675D03*
X017771Y006690D03*
X017676Y006645D03*
X017676Y006640D03*
X017661Y006580D03*
X017541Y006615D03*
X017541Y006620D03*
X017351Y006545D03*
X017276Y006745D03*
X017276Y006750D03*
X017276Y006755D03*
X017276Y006760D03*
X017276Y006765D03*
X017281Y006780D03*
X017281Y006785D03*
X017281Y006790D03*
X017286Y006795D03*
X017286Y006800D03*
X017286Y006805D03*
X017291Y006820D03*
X017216Y006905D03*
X017061Y006920D03*
X017036Y007015D03*
X017046Y007020D03*
X017276Y007120D03*
X017486Y007160D03*
X017486Y007165D03*
X017486Y007170D03*
X017646Y007065D03*
X017646Y007060D03*
X017646Y007055D03*
X017756Y007040D03*
X017936Y007085D03*
X018061Y007185D03*
X018141Y006950D03*
X018446Y007355D03*
X018446Y007360D03*
X018446Y007365D03*
X018446Y007370D03*
X018606Y007510D03*
X018391Y007585D03*
X018386Y007580D03*
X018386Y007730D03*
X018576Y007740D03*
X018576Y007745D03*
X018581Y007820D03*
X018581Y007825D03*
X018506Y007925D03*
X018706Y008025D03*
X018806Y008065D03*
X018926Y008035D03*
X018881Y007855D03*
X018686Y007750D03*
X018306Y008040D03*
X018401Y008150D03*
X018381Y008220D03*
X018276Y008295D03*
X018276Y008300D03*
X018136Y008325D03*
X018291Y008540D03*
X018421Y008610D03*
X018776Y008550D03*
X018936Y008490D03*
X018761Y008355D03*
X018756Y008350D03*
X018806Y008225D03*
X018806Y008220D03*
X019696Y007945D03*
X020036Y008515D03*
X019516Y008870D03*
X017796Y008165D03*
X017791Y008160D03*
X017826Y008055D03*
X017821Y008050D03*
X017816Y008045D03*
X017646Y007795D03*
X017641Y007790D03*
X017641Y007785D03*
X017766Y007530D03*
X017861Y007445D03*
X017861Y007440D03*
X017566Y007510D03*
X018896Y007390D03*
X019276Y007345D03*
X019676Y006270D03*
X019676Y006265D03*
X020101Y006315D03*
X020316Y006315D03*
X020571Y006310D03*
X020721Y006310D03*
X020726Y006315D03*
X020726Y005890D03*
X020726Y005885D03*
X020726Y005880D03*
X020726Y005875D03*
X020726Y005870D03*
X020726Y005865D03*
X020726Y005860D03*
X020726Y005855D03*
X020726Y005850D03*
X020726Y005845D03*
X020726Y005840D03*
X020726Y005835D03*
X020726Y005830D03*
X020726Y005825D03*
X020726Y005820D03*
X020726Y005815D03*
X020726Y005810D03*
X020726Y005805D03*
X020726Y005800D03*
X020726Y005795D03*
X020726Y005790D03*
X020726Y005785D03*
X020726Y005780D03*
X020726Y005775D03*
X020726Y005770D03*
X020726Y005765D03*
X020726Y005760D03*
X020726Y005755D03*
X020726Y005750D03*
X020726Y005745D03*
X020726Y005740D03*
X020726Y005735D03*
X020726Y005730D03*
X020726Y005725D03*
X020726Y005720D03*
X020726Y005715D03*
X020726Y005710D03*
X020726Y005705D03*
X020726Y005700D03*
X020726Y005695D03*
X020726Y005690D03*
X020726Y005685D03*
X020726Y005680D03*
X020726Y005675D03*
X020726Y005670D03*
X020726Y005665D03*
X020726Y005660D03*
X020726Y005655D03*
X020726Y005650D03*
X020726Y005645D03*
X020726Y005640D03*
X020181Y005640D03*
X020181Y005645D03*
X020181Y005650D03*
X020181Y005655D03*
X020181Y005660D03*
X020181Y005665D03*
X020181Y005670D03*
X020181Y005675D03*
X020181Y005680D03*
X020181Y005685D03*
X020181Y005690D03*
X020181Y005695D03*
X020181Y005700D03*
X020181Y005705D03*
X020181Y005710D03*
X020181Y005715D03*
X020181Y005720D03*
X020181Y005725D03*
X020181Y005730D03*
X020181Y005735D03*
X020181Y005740D03*
X020181Y005745D03*
X020181Y005750D03*
X020181Y005755D03*
X020181Y005760D03*
X020181Y005765D03*
X020181Y005770D03*
X020181Y005775D03*
X020181Y005780D03*
X020181Y005785D03*
X020181Y005790D03*
X020181Y005795D03*
X020181Y005800D03*
X020181Y005805D03*
X020181Y005810D03*
X020181Y005815D03*
X020181Y005820D03*
X020181Y005825D03*
X020181Y005830D03*
X020181Y005835D03*
X020181Y005840D03*
X020181Y005845D03*
X020181Y005850D03*
X020181Y005855D03*
X020181Y005860D03*
X020181Y005865D03*
X020181Y005870D03*
X020181Y005875D03*
X020181Y005880D03*
X020181Y005885D03*
X017276Y006210D03*
D30*
X017381Y006320D03*
X017351Y006375D03*
X017481Y006280D03*
X017446Y006170D03*
X017436Y006115D03*
X017436Y006110D03*
X017396Y005980D03*
X017591Y006235D03*
X017591Y006240D03*
X017606Y006260D03*
X017761Y006300D03*
X017761Y006305D03*
X018156Y006390D03*
X018351Y006545D03*
X018196Y006845D03*
X018206Y006860D03*
X018211Y006865D03*
X018216Y006875D03*
X018221Y006880D03*
X018131Y006940D03*
X018126Y006935D03*
X018121Y006930D03*
X018066Y007005D03*
X017931Y007070D03*
X017771Y007065D03*
X017766Y007060D03*
X017766Y007055D03*
X017646Y007070D03*
X017646Y007075D03*
X017646Y007080D03*
X017271Y007110D03*
X017266Y007105D03*
X017026Y007010D03*
X017071Y006925D03*
X017081Y006930D03*
X017206Y006900D03*
X017676Y006635D03*
X017676Y006630D03*
X017676Y006625D03*
X017671Y006595D03*
X017536Y006605D03*
X017531Y006600D03*
X017361Y006565D03*
X017871Y006660D03*
X018061Y006825D03*
X018061Y006830D03*
X018066Y006835D03*
X018066Y006840D03*
X018806Y006540D03*
X019056Y006540D03*
X019051Y006310D03*
X018806Y006310D03*
X018596Y006310D03*
X018496Y005960D03*
X018496Y005955D03*
X018496Y005950D03*
X018496Y005945D03*
X018496Y005940D03*
X018496Y005935D03*
X018496Y005930D03*
X018496Y005925D03*
X018496Y005920D03*
X018496Y005915D03*
X018496Y005910D03*
X018496Y005905D03*
X018496Y005900D03*
X018496Y005895D03*
X018496Y005890D03*
X018496Y005885D03*
X018496Y005880D03*
X018496Y005875D03*
X018496Y005870D03*
X018496Y005865D03*
X018496Y005860D03*
X018496Y005855D03*
X018496Y005850D03*
X018496Y005775D03*
X018496Y005770D03*
X018496Y005765D03*
X018496Y005760D03*
X018496Y005755D03*
X018496Y005750D03*
X018496Y005745D03*
X018496Y005740D03*
X018496Y005735D03*
X018496Y005730D03*
X018496Y005725D03*
X018496Y005720D03*
X018496Y005715D03*
X018496Y005710D03*
X018496Y005705D03*
X018496Y005700D03*
X018496Y005695D03*
X018496Y005690D03*
X018496Y005685D03*
X018496Y005680D03*
X018496Y005675D03*
X018496Y005670D03*
X018496Y005665D03*
X018496Y005660D03*
X018496Y005655D03*
X018496Y005650D03*
X018496Y005645D03*
X018496Y005640D03*
X018121Y005865D03*
X018121Y005870D03*
X018121Y005875D03*
X018121Y005930D03*
X018121Y005935D03*
X018121Y005940D03*
X017776Y005525D03*
X017776Y005520D03*
X017731Y005330D03*
X017731Y005325D03*
X017736Y005320D03*
X017736Y005315D03*
X017741Y005305D03*
X017656Y005075D03*
X018976Y005740D03*
X018976Y005745D03*
X018981Y005750D03*
X018981Y005755D03*
X018981Y005760D03*
X018981Y005765D03*
X018981Y005770D03*
X018981Y005775D03*
X018981Y005780D03*
X018981Y005785D03*
X018981Y005790D03*
X018981Y005795D03*
X018981Y005800D03*
X018981Y005880D03*
X018981Y005885D03*
X018981Y005890D03*
X018981Y005895D03*
X018981Y005900D03*
X018981Y005905D03*
X018981Y005910D03*
X018981Y005915D03*
X018981Y005920D03*
X018981Y005925D03*
X018981Y005930D03*
X018976Y005935D03*
X018976Y005940D03*
X019426Y005940D03*
X019426Y005945D03*
X019426Y005950D03*
X019426Y005955D03*
X019426Y005960D03*
X019426Y005965D03*
X019426Y005970D03*
X019426Y005975D03*
X019426Y005980D03*
X019426Y005985D03*
X019426Y005990D03*
X019426Y005995D03*
X019426Y006000D03*
X019426Y006005D03*
X019426Y006010D03*
X019426Y006015D03*
X019426Y006020D03*
X019426Y006025D03*
X019426Y006030D03*
X019426Y006035D03*
X019426Y006040D03*
X019426Y005935D03*
X019426Y005930D03*
X019426Y005925D03*
X019426Y005920D03*
X019426Y005915D03*
X019426Y005910D03*
X019426Y005905D03*
X019426Y005900D03*
X019426Y005895D03*
X019426Y005890D03*
X019426Y005885D03*
X019426Y005880D03*
X019426Y005875D03*
X019426Y005870D03*
X019426Y005865D03*
X019426Y005860D03*
X019426Y005820D03*
X019426Y005815D03*
X019426Y005810D03*
X019426Y005805D03*
X019426Y005800D03*
X019426Y005795D03*
X019426Y005790D03*
X019426Y005785D03*
X019426Y005780D03*
X019426Y005775D03*
X019426Y005770D03*
X019426Y005765D03*
X019426Y005760D03*
X019426Y005755D03*
X019426Y005750D03*
X019426Y005745D03*
X019426Y005740D03*
X019426Y005735D03*
X019426Y005730D03*
X019426Y005725D03*
X019426Y005720D03*
X019426Y005715D03*
X019426Y005710D03*
X019426Y005705D03*
X019426Y005700D03*
X019426Y005695D03*
X019426Y005690D03*
X019426Y005685D03*
X019426Y005680D03*
X019426Y005675D03*
X019426Y005670D03*
X019426Y005665D03*
X019426Y005660D03*
X019426Y005655D03*
X019426Y005650D03*
X019426Y005645D03*
X019426Y005640D03*
X019806Y006035D03*
X020186Y006025D03*
X020311Y006310D03*
X020581Y006305D03*
X020716Y006025D03*
X020451Y005655D03*
X020751Y005460D03*
X020751Y005455D03*
X020751Y005450D03*
X020751Y005445D03*
X020751Y005425D03*
X020751Y005420D03*
X020751Y005415D03*
X020376Y005305D03*
X020376Y005300D03*
X020376Y005295D03*
X020376Y005290D03*
X020376Y005285D03*
X020376Y005280D03*
X020376Y005275D03*
X020376Y005270D03*
X020376Y005265D03*
X020376Y005260D03*
X019676Y006275D03*
X019676Y006280D03*
X018566Y007295D03*
X018441Y007320D03*
X018441Y007325D03*
X018441Y007330D03*
X018441Y007335D03*
X018376Y007560D03*
X018381Y007570D03*
X018036Y007355D03*
X017761Y007525D03*
X017581Y007520D03*
X017661Y007820D03*
X017661Y007825D03*
X017666Y007830D03*
X017671Y007840D03*
X017781Y008000D03*
X017786Y008005D03*
X017791Y008010D03*
X017801Y008025D03*
X017806Y008180D03*
X017811Y008185D03*
X017971Y008505D03*
X018286Y008530D03*
X018391Y008230D03*
X018386Y008225D03*
X018306Y008035D03*
X018506Y007935D03*
X018711Y008020D03*
X018931Y008040D03*
X018881Y007850D03*
X018881Y007845D03*
X018691Y007765D03*
X018571Y007765D03*
X018571Y007760D03*
X018571Y007790D03*
X018576Y007800D03*
X018576Y007805D03*
X018376Y007725D03*
X019181Y007395D03*
X018801Y008205D03*
X018801Y008210D03*
X018741Y008340D03*
X018946Y008500D03*
X018766Y008555D03*
X019621Y008835D03*
X020021Y008505D03*
X016551Y006870D03*
D31*
X017006Y006890D03*
X017241Y006920D03*
X017351Y007045D03*
X017356Y007060D03*
X017356Y007065D03*
X017356Y007070D03*
X017361Y007075D03*
X017361Y007080D03*
X017311Y007165D03*
X017481Y007225D03*
X017481Y007230D03*
X017481Y007235D03*
X017526Y007480D03*
X017556Y007630D03*
X017556Y007635D03*
X017561Y007640D03*
X017566Y007650D03*
X017856Y007500D03*
X018436Y007660D03*
X018421Y007745D03*
X018541Y007620D03*
X018541Y007615D03*
X018591Y007665D03*
X018591Y007670D03*
X018656Y007670D03*
X018656Y007665D03*
X018541Y007540D03*
X018471Y007540D03*
X018471Y007535D03*
X018471Y007530D03*
X018471Y007525D03*
X019171Y007345D03*
X018206Y007025D03*
X018201Y007020D03*
X018041Y006965D03*
X017721Y006970D03*
X017716Y006965D03*
X017651Y006995D03*
X017956Y007135D03*
X017966Y006630D03*
X017961Y006620D03*
X017956Y006610D03*
X018036Y006615D03*
X018041Y006620D03*
X018041Y006625D03*
X018046Y006630D03*
X018051Y006635D03*
X017666Y006710D03*
X017666Y006715D03*
X017571Y006680D03*
X017631Y006525D03*
X017316Y006475D03*
X017311Y006465D03*
X017256Y006540D03*
X017256Y006545D03*
X017256Y006550D03*
X017256Y006555D03*
X017256Y006560D03*
X017256Y006565D03*
X017651Y006295D03*
X017411Y006235D03*
X017346Y006075D03*
X017451Y006060D03*
X017536Y006110D03*
X017541Y006120D03*
X017626Y005610D03*
X017626Y005605D03*
X017631Y005600D03*
X017631Y005595D03*
X017636Y005585D03*
X017806Y005405D03*
X017806Y005400D03*
X017776Y005090D03*
X017776Y005085D03*
X017776Y005080D03*
X018461Y006560D03*
X018461Y006565D03*
X018461Y006570D03*
X018461Y006575D03*
X018606Y007920D03*
X018611Y007930D03*
X018611Y007935D03*
X018691Y008060D03*
X018826Y008030D03*
X018906Y008015D03*
X018886Y007895D03*
X018311Y008065D03*
X018361Y008195D03*
X018296Y008225D03*
X018296Y008230D03*
X018136Y008355D03*
X018136Y008360D03*
X018126Y008480D03*
X017961Y008535D03*
X018316Y008590D03*
X018401Y008625D03*
X018811Y008530D03*
X018811Y008395D03*
X018806Y008390D03*
X018826Y008275D03*
X018936Y008420D03*
X019551Y008880D03*
X020041Y008595D03*
X020086Y008550D03*
X020146Y008530D03*
X017976Y008245D03*
X017971Y008240D03*
X017966Y008230D03*
X017961Y008225D03*
X017956Y008220D03*
X017731Y008075D03*
X017726Y008070D03*
X017721Y008060D03*
X017716Y008055D03*
D32*
X017779Y007995D03*
X017774Y007990D03*
X017769Y007985D03*
X017754Y007965D03*
X017679Y007855D03*
X017674Y007845D03*
X017669Y007835D03*
X017969Y007670D03*
X018369Y007550D03*
X018374Y007555D03*
X018604Y007505D03*
X018894Y007395D03*
X018439Y007315D03*
X018439Y007310D03*
X018439Y007305D03*
X018439Y007300D03*
X018039Y007360D03*
X017864Y007415D03*
X017864Y007420D03*
X017864Y007425D03*
X017489Y007145D03*
X017489Y007140D03*
X017489Y007135D03*
X017644Y007085D03*
X017774Y007070D03*
X017929Y007065D03*
X018069Y007010D03*
X018119Y006925D03*
X018114Y006920D03*
X018079Y006860D03*
X018074Y006855D03*
X018074Y006850D03*
X018069Y006845D03*
X018214Y006870D03*
X018224Y006885D03*
X018229Y006890D03*
X018234Y006900D03*
X017869Y006655D03*
X017864Y006650D03*
X017774Y006700D03*
X017679Y006620D03*
X017679Y006615D03*
X017674Y006600D03*
X017529Y006595D03*
X017529Y006590D03*
X017364Y006570D03*
X017489Y006285D03*
X017594Y006245D03*
X017599Y006250D03*
X017599Y006255D03*
X017759Y006295D03*
X017434Y006120D03*
X017399Y005975D03*
X017404Y005970D03*
X017404Y005965D03*
X017409Y005950D03*
X017414Y005930D03*
X017419Y005915D03*
X017419Y005910D03*
X017424Y005895D03*
X017429Y005875D03*
X017444Y005820D03*
X017774Y005535D03*
X017774Y005530D03*
X018084Y005430D03*
X018084Y005425D03*
X018084Y005420D03*
X018084Y005415D03*
X018084Y005410D03*
X018084Y005405D03*
X018084Y005400D03*
X018084Y005395D03*
X018084Y005390D03*
X018084Y005385D03*
X018084Y005380D03*
X018084Y005375D03*
X018084Y005370D03*
X018084Y005365D03*
X018084Y005360D03*
X018084Y005355D03*
X018084Y005350D03*
X018084Y005345D03*
X018084Y005340D03*
X018084Y005335D03*
X018084Y005330D03*
X018084Y005325D03*
X018084Y005320D03*
X018084Y005315D03*
X018084Y005310D03*
X018084Y005305D03*
X018084Y005300D03*
X018084Y005295D03*
X018084Y005290D03*
X017774Y005200D03*
X017774Y005195D03*
X017774Y005190D03*
X017774Y005185D03*
X017754Y005270D03*
X017749Y005280D03*
X017749Y005285D03*
X017744Y005290D03*
X017744Y005295D03*
X017744Y005300D03*
X017739Y005310D03*
X017654Y005080D03*
X018484Y005285D03*
X018484Y005290D03*
X018484Y005295D03*
X018484Y005300D03*
X018484Y005305D03*
X018484Y005310D03*
X018484Y005315D03*
X018484Y005320D03*
X018484Y005325D03*
X018484Y005330D03*
X018484Y005335D03*
X018484Y005340D03*
X018484Y005345D03*
X018484Y005350D03*
X018484Y005355D03*
X018484Y005360D03*
X018484Y005365D03*
X018484Y005370D03*
X018484Y005375D03*
X018484Y005380D03*
X018484Y005385D03*
X018484Y005390D03*
X018484Y005395D03*
X018484Y005400D03*
X018484Y005405D03*
X018484Y005410D03*
X018484Y005415D03*
X018484Y005420D03*
X018484Y005425D03*
X018484Y005430D03*
X018484Y005435D03*
X018819Y005420D03*
X018819Y005415D03*
X018819Y005410D03*
X018819Y005405D03*
X018819Y005400D03*
X018819Y005395D03*
X018819Y005390D03*
X018819Y005385D03*
X018819Y005380D03*
X018819Y005375D03*
X018819Y005370D03*
X018819Y005365D03*
X018819Y005360D03*
X018819Y005355D03*
X018819Y005350D03*
X018819Y005345D03*
X018819Y005340D03*
X018819Y005335D03*
X018819Y005330D03*
X018819Y005325D03*
X018819Y005320D03*
X018819Y005315D03*
X018819Y005310D03*
X018819Y005305D03*
X018819Y005300D03*
X019234Y005300D03*
X019234Y005305D03*
X019234Y005310D03*
X019234Y005315D03*
X019234Y005320D03*
X019234Y005325D03*
X019234Y005330D03*
X019234Y005335D03*
X019234Y005340D03*
X019234Y005345D03*
X019234Y005350D03*
X019234Y005355D03*
X019234Y005360D03*
X019234Y005365D03*
X019234Y005370D03*
X019234Y005375D03*
X019234Y005380D03*
X019234Y005385D03*
X019234Y005390D03*
X019234Y005395D03*
X019234Y005400D03*
X019234Y005405D03*
X019234Y005410D03*
X019234Y005415D03*
X019234Y005420D03*
X019234Y005425D03*
X019234Y005430D03*
X019234Y005435D03*
X019234Y005440D03*
X019234Y005445D03*
X019234Y005450D03*
X019234Y005455D03*
X019234Y005460D03*
X019234Y005465D03*
X019234Y005470D03*
X019234Y005475D03*
X019399Y005475D03*
X019399Y005480D03*
X019399Y005485D03*
X019399Y005490D03*
X019399Y005495D03*
X019399Y005500D03*
X019399Y005505D03*
X019399Y005510D03*
X019399Y005515D03*
X019399Y005520D03*
X019399Y005525D03*
X019399Y005530D03*
X019399Y005535D03*
X019399Y005540D03*
X019399Y005545D03*
X019399Y005550D03*
X019399Y005555D03*
X019399Y005470D03*
X019399Y005465D03*
X019399Y005460D03*
X019399Y005455D03*
X019399Y005450D03*
X019399Y005445D03*
X019399Y005440D03*
X019399Y005435D03*
X019399Y005430D03*
X019399Y005425D03*
X019399Y005420D03*
X019399Y005415D03*
X019399Y005410D03*
X019399Y005405D03*
X019399Y005400D03*
X019399Y005395D03*
X019399Y005390D03*
X019399Y005385D03*
X019399Y005380D03*
X019399Y005375D03*
X019399Y005370D03*
X019399Y005365D03*
X019399Y005360D03*
X019399Y005355D03*
X019399Y005350D03*
X019399Y005345D03*
X019399Y005340D03*
X019399Y005335D03*
X019399Y005330D03*
X019399Y005325D03*
X019399Y005320D03*
X019399Y005315D03*
X019399Y005310D03*
X019399Y005305D03*
X019234Y005295D03*
X019234Y005290D03*
X019234Y005285D03*
X019234Y005280D03*
X019234Y005275D03*
X019234Y005270D03*
X019234Y005265D03*
X019234Y005260D03*
X019234Y005255D03*
X019234Y005250D03*
X019234Y005245D03*
X020124Y005245D03*
X020124Y005250D03*
X020124Y005255D03*
X020124Y005260D03*
X020124Y005265D03*
X020124Y005270D03*
X020124Y005275D03*
X020124Y005280D03*
X020124Y005285D03*
X020124Y005290D03*
X020124Y005295D03*
X020124Y005300D03*
X020124Y005305D03*
X020124Y005310D03*
X020124Y005315D03*
X020124Y005320D03*
X020124Y005325D03*
X020124Y005330D03*
X020124Y005335D03*
X020124Y005340D03*
X020124Y005345D03*
X020124Y005350D03*
X020124Y005355D03*
X020124Y005360D03*
X020124Y005365D03*
X020124Y005370D03*
X020124Y005375D03*
X020124Y005380D03*
X020124Y005385D03*
X020124Y005390D03*
X020124Y005395D03*
X020124Y005400D03*
X020124Y005405D03*
X020124Y005410D03*
X020124Y005415D03*
X020124Y005420D03*
X020124Y005425D03*
X020124Y005430D03*
X020124Y005435D03*
X020124Y005440D03*
X020124Y005445D03*
X020124Y005450D03*
X020124Y005455D03*
X020124Y005460D03*
X020124Y005465D03*
X020124Y005470D03*
X020124Y005475D03*
X020379Y005310D03*
X020379Y005255D03*
X020124Y005240D03*
X020124Y005235D03*
X020124Y005230D03*
X020124Y005225D03*
X020124Y005220D03*
X020124Y005215D03*
X020124Y005210D03*
X020124Y005205D03*
X020124Y005200D03*
X020124Y005195D03*
X020124Y005190D03*
X020124Y005185D03*
X020124Y005180D03*
X020124Y005175D03*
X020124Y005170D03*
X020124Y005165D03*
X020749Y005410D03*
X020749Y005465D03*
X020454Y005660D03*
X020189Y006015D03*
X020189Y006020D03*
X019679Y006285D03*
X018974Y005945D03*
X018974Y005735D03*
X018124Y005860D03*
X018124Y005945D03*
X017019Y006795D03*
X017019Y007005D03*
X017264Y007100D03*
X018569Y007770D03*
X018569Y007775D03*
X018569Y007780D03*
X018569Y007785D03*
X018574Y007795D03*
X018694Y007775D03*
X018694Y007770D03*
X018879Y007840D03*
X018714Y008015D03*
X018799Y008075D03*
X018799Y008200D03*
X018729Y008330D03*
X018734Y008335D03*
X018989Y008435D03*
X018949Y008505D03*
X018429Y008605D03*
X018284Y008525D03*
X018254Y008645D03*
X018119Y008505D03*
X018134Y008315D03*
X018274Y008315D03*
X018274Y008310D03*
X017819Y008195D03*
X017814Y008190D03*
X018304Y008030D03*
X018504Y007940D03*
X020014Y008500D03*
X020144Y008490D03*
X020714Y006305D03*
D33*
X020716Y006020D03*
X020341Y005810D03*
X020326Y005830D03*
X020311Y005850D03*
X020376Y005765D03*
X020391Y005745D03*
X020051Y005640D03*
X020036Y005665D03*
X020011Y005705D03*
X020001Y005720D03*
X019946Y005810D03*
X019941Y005820D03*
X019936Y005825D03*
X019931Y005835D03*
X019926Y005840D03*
X019921Y005850D03*
X019916Y005860D03*
X019911Y005865D03*
X019906Y005875D03*
X019901Y005880D03*
X019901Y005885D03*
X019896Y005890D03*
X019891Y005895D03*
X019891Y005900D03*
X019886Y005905D03*
X019881Y005915D03*
X019876Y005920D03*
X019876Y005925D03*
X019871Y005930D03*
X019866Y005935D03*
X019866Y005940D03*
X019861Y005945D03*
X019861Y005950D03*
X019751Y005950D03*
X019746Y005940D03*
X019736Y005925D03*
X019721Y005900D03*
X019711Y005885D03*
X019696Y005860D03*
X019671Y005820D03*
X019561Y005640D03*
X019796Y005555D03*
X019796Y005550D03*
X019796Y005545D03*
X019796Y005540D03*
X019796Y005535D03*
X019796Y005530D03*
X019796Y005525D03*
X019796Y005520D03*
X019796Y005515D03*
X019796Y005510D03*
X019796Y005505D03*
X019796Y005500D03*
X019796Y005495D03*
X019796Y005490D03*
X019796Y005485D03*
X019796Y005480D03*
X019796Y005475D03*
X019796Y005470D03*
X019796Y005465D03*
X019796Y005460D03*
X019796Y005455D03*
X019796Y005450D03*
X019796Y005445D03*
X019796Y005440D03*
X019796Y005435D03*
X019796Y005430D03*
X019796Y005425D03*
X019796Y005420D03*
X019796Y005415D03*
X019796Y005410D03*
X019796Y005405D03*
X019796Y005400D03*
X019796Y005395D03*
X019796Y005390D03*
X019796Y005385D03*
X019796Y005380D03*
X019796Y005375D03*
X019796Y005370D03*
X019796Y005365D03*
X019796Y005360D03*
X019796Y005355D03*
X019796Y005350D03*
X019796Y005345D03*
X019796Y005340D03*
X019796Y005335D03*
X019796Y005330D03*
X019796Y005325D03*
X019796Y005320D03*
X019796Y005315D03*
X019796Y005310D03*
X019796Y005305D03*
X019796Y005300D03*
X019796Y005295D03*
X019796Y005290D03*
X019796Y005285D03*
X019796Y005280D03*
X019796Y005275D03*
X019791Y005265D03*
X019406Y005265D03*
X019406Y005270D03*
X019401Y005275D03*
X019401Y005280D03*
X019401Y005285D03*
X019401Y005290D03*
X019401Y005295D03*
X019401Y005300D03*
X018826Y005265D03*
X018821Y005275D03*
X018821Y005280D03*
X018821Y005285D03*
X018821Y005290D03*
X018821Y005295D03*
X018821Y005425D03*
X018821Y005430D03*
X018821Y005435D03*
X018821Y005440D03*
X018821Y005445D03*
X018826Y005455D03*
X018651Y005455D03*
X018651Y005460D03*
X018651Y005465D03*
X018651Y005470D03*
X018651Y005475D03*
X018651Y005480D03*
X018651Y005485D03*
X018651Y005490D03*
X018651Y005495D03*
X018651Y005500D03*
X018651Y005505D03*
X018651Y005510D03*
X018651Y005515D03*
X018651Y005520D03*
X018651Y005525D03*
X018651Y005530D03*
X018651Y005535D03*
X018651Y005540D03*
X018651Y005545D03*
X018651Y005550D03*
X018651Y005555D03*
X018651Y005450D03*
X018651Y005445D03*
X018651Y005440D03*
X018651Y005435D03*
X018651Y005430D03*
X018651Y005425D03*
X018651Y005420D03*
X018651Y005415D03*
X018651Y005410D03*
X018651Y005405D03*
X018651Y005400D03*
X018651Y005395D03*
X018651Y005390D03*
X018651Y005385D03*
X018651Y005380D03*
X018651Y005375D03*
X018651Y005370D03*
X018651Y005365D03*
X018651Y005360D03*
X018651Y005355D03*
X018651Y005350D03*
X018651Y005345D03*
X018651Y005340D03*
X018651Y005335D03*
X018651Y005330D03*
X018651Y005325D03*
X018651Y005320D03*
X018651Y005315D03*
X018651Y005310D03*
X018651Y005305D03*
X018651Y005300D03*
X018651Y005295D03*
X018651Y005290D03*
X018651Y005285D03*
X018651Y005280D03*
X018651Y005275D03*
X018651Y005270D03*
X018651Y005265D03*
X018651Y005260D03*
X018651Y005255D03*
X018651Y005250D03*
X018651Y005245D03*
X018651Y005240D03*
X018651Y005235D03*
X018651Y005230D03*
X018651Y005225D03*
X018651Y005220D03*
X018651Y005215D03*
X018651Y005210D03*
X018651Y005205D03*
X018651Y005200D03*
X018651Y005195D03*
X018651Y005190D03*
X018651Y005185D03*
X018651Y005180D03*
X018651Y005175D03*
X018651Y005170D03*
X018651Y005165D03*
X018476Y005260D03*
X018481Y005270D03*
X018481Y005275D03*
X018481Y005280D03*
X018481Y005440D03*
X018481Y005445D03*
X018481Y005450D03*
X018476Y005460D03*
X018086Y005450D03*
X018086Y005445D03*
X018086Y005440D03*
X018086Y005435D03*
X017771Y005540D03*
X017771Y005545D03*
X017526Y005515D03*
X017521Y005535D03*
X017516Y005555D03*
X017511Y005570D03*
X017506Y005590D03*
X017501Y005605D03*
X017501Y005610D03*
X017496Y005625D03*
X017496Y005630D03*
X017491Y005640D03*
X017491Y005645D03*
X017491Y005650D03*
X017486Y005660D03*
X017486Y005665D03*
X017481Y005680D03*
X017481Y005685D03*
X017476Y005695D03*
X017476Y005700D03*
X017476Y005705D03*
X017471Y005715D03*
X017471Y005720D03*
X017471Y005725D03*
X017466Y005730D03*
X017466Y005735D03*
X017466Y005740D03*
X017461Y005750D03*
X017461Y005755D03*
X017461Y005760D03*
X017456Y005770D03*
X017456Y005775D03*
X017456Y005780D03*
X017451Y005785D03*
X017451Y005790D03*
X017451Y005795D03*
X017451Y005800D03*
X017446Y005805D03*
X017446Y005810D03*
X017446Y005815D03*
X017441Y005825D03*
X017441Y005830D03*
X017441Y005835D03*
X017436Y005840D03*
X017436Y005845D03*
X017436Y005850D03*
X017436Y005855D03*
X017431Y005860D03*
X017431Y005865D03*
X017431Y005870D03*
X017426Y005880D03*
X017426Y005885D03*
X017426Y005890D03*
X017421Y005900D03*
X017421Y005905D03*
X017416Y005920D03*
X017416Y005925D03*
X017411Y005935D03*
X017411Y005940D03*
X017411Y005945D03*
X017406Y005955D03*
X017406Y005960D03*
X017431Y006125D03*
X017441Y006165D03*
X017496Y006290D03*
X017526Y006585D03*
X017676Y006605D03*
X017676Y006610D03*
X017776Y006705D03*
X017856Y006640D03*
X017861Y006645D03*
X018081Y006865D03*
X018081Y006870D03*
X018086Y006875D03*
X018086Y006880D03*
X018111Y006915D03*
X018071Y007015D03*
X017926Y007055D03*
X017926Y007060D03*
X017781Y007085D03*
X017776Y007075D03*
X017646Y007090D03*
X017491Y007130D03*
X017261Y007095D03*
X017256Y007090D03*
X017091Y006935D03*
X017011Y007000D03*
X017866Y007410D03*
X017756Y007520D03*
X017586Y007525D03*
X017676Y007850D03*
X017681Y007860D03*
X017686Y007865D03*
X017686Y007870D03*
X017691Y007875D03*
X017741Y007950D03*
X017746Y007955D03*
X017751Y007960D03*
X017756Y007970D03*
X017761Y007975D03*
X017766Y007980D03*
X017821Y008200D03*
X017826Y008205D03*
X018136Y008310D03*
X018271Y008320D03*
X018271Y008325D03*
X018396Y008235D03*
X018281Y008520D03*
X018756Y008560D03*
X018796Y008195D03*
X018796Y008080D03*
X018716Y008010D03*
X018936Y008045D03*
X018696Y007785D03*
X018696Y007780D03*
X018366Y007720D03*
X018366Y007545D03*
X018361Y007540D03*
X018436Y007295D03*
X018436Y007290D03*
X018436Y007285D03*
X018436Y007280D03*
X018241Y007205D03*
X018251Y006925D03*
X018246Y006915D03*
X018241Y006910D03*
X018236Y006905D03*
X018231Y006895D03*
X018891Y007400D03*
X019181Y007400D03*
X019181Y007405D03*
X019291Y007355D03*
X019061Y006400D03*
X019676Y006295D03*
X019676Y006290D03*
X020191Y006010D03*
X018971Y005950D03*
X018971Y005730D03*
X018126Y005855D03*
X018126Y005950D03*
X017366Y006575D03*
X017366Y006580D03*
X017371Y006585D03*
X017751Y005275D03*
X017756Y005265D03*
X017756Y005260D03*
X017761Y005250D03*
X017771Y005205D03*
X017646Y005085D03*
X018086Y005270D03*
X018086Y005275D03*
X018086Y005280D03*
X018086Y005285D03*
X020381Y005315D03*
X020381Y005250D03*
X020746Y005405D03*
X020746Y005470D03*
X020141Y008485D03*
X019971Y008575D03*
D34*
X020009Y008495D03*
X019499Y008865D03*
X018954Y008510D03*
X018749Y008565D03*
X018604Y008720D03*
X018279Y008515D03*
X018119Y008510D03*
X017974Y008500D03*
X018134Y008305D03*
X018269Y008330D03*
X017834Y008215D03*
X017829Y008210D03*
X017739Y007945D03*
X017734Y007940D03*
X017729Y007935D03*
X017699Y007890D03*
X017694Y007885D03*
X017694Y007880D03*
X017979Y007675D03*
X017749Y007515D03*
X017594Y007530D03*
X017864Y007405D03*
X018039Y007365D03*
X018354Y007525D03*
X018359Y007535D03*
X018434Y007275D03*
X018434Y007270D03*
X018434Y007265D03*
X018074Y007020D03*
X018104Y006910D03*
X018099Y006905D03*
X018099Y006900D03*
X018094Y006895D03*
X018094Y006890D03*
X018089Y006885D03*
X018249Y006920D03*
X018254Y006930D03*
X018259Y006935D03*
X018264Y006940D03*
X018269Y006950D03*
X017924Y007050D03*
X017784Y007090D03*
X017779Y007080D03*
X017644Y007095D03*
X017644Y007100D03*
X017644Y007105D03*
X017489Y007120D03*
X017489Y007125D03*
X017199Y006895D03*
X017099Y006940D03*
X017024Y006800D03*
X017374Y006590D03*
X017519Y006575D03*
X017524Y006580D03*
X017364Y006380D03*
X017504Y006295D03*
X017759Y006290D03*
X017759Y006285D03*
X017429Y006130D03*
X018129Y005955D03*
X017459Y005765D03*
X017464Y005745D03*
X017474Y005710D03*
X017479Y005690D03*
X017484Y005675D03*
X017484Y005670D03*
X017489Y005655D03*
X017494Y005635D03*
X017499Y005620D03*
X017499Y005615D03*
X017504Y005600D03*
X017504Y005595D03*
X017509Y005585D03*
X017509Y005580D03*
X017509Y005575D03*
X017514Y005565D03*
X017514Y005560D03*
X017519Y005550D03*
X017519Y005545D03*
X017519Y005540D03*
X017524Y005530D03*
X017524Y005525D03*
X017524Y005520D03*
X017529Y005510D03*
X017529Y005505D03*
X017529Y005500D03*
X017534Y005495D03*
X017534Y005490D03*
X017534Y005485D03*
X017534Y005480D03*
X017539Y005475D03*
X017539Y005470D03*
X017539Y005465D03*
X017544Y005460D03*
X017544Y005455D03*
X017544Y005450D03*
X017544Y005445D03*
X017549Y005440D03*
X017549Y005435D03*
X017549Y005430D03*
X017549Y005425D03*
X017554Y005420D03*
X017554Y005415D03*
X017554Y005410D03*
X017559Y005400D03*
X017559Y005395D03*
X017559Y005390D03*
X017564Y005385D03*
X017564Y005380D03*
X017564Y005375D03*
X017569Y005365D03*
X017569Y005360D03*
X017569Y005355D03*
X017574Y005345D03*
X017574Y005340D03*
X017574Y005335D03*
X017579Y005325D03*
X017579Y005320D03*
X017584Y005305D03*
X017584Y005300D03*
X017589Y005290D03*
X017589Y005285D03*
X017594Y005270D03*
X017594Y005265D03*
X017599Y005250D03*
X017599Y005245D03*
X017604Y005230D03*
X017609Y005210D03*
X017614Y005195D03*
X017619Y005175D03*
X017624Y005155D03*
X017634Y005120D03*
X017644Y005090D03*
X017774Y005210D03*
X017774Y005215D03*
X017769Y005230D03*
X017769Y005235D03*
X017764Y005240D03*
X017764Y005245D03*
X017759Y005255D03*
X018089Y005260D03*
X018089Y005265D03*
X018089Y005455D03*
X017769Y005550D03*
X017769Y005555D03*
X017769Y005560D03*
X018474Y005465D03*
X018479Y005455D03*
X018824Y005450D03*
X018829Y005460D03*
X018824Y005270D03*
X018829Y005260D03*
X018479Y005265D03*
X018474Y005255D03*
X019409Y005260D03*
X019789Y005260D03*
X019794Y005270D03*
X020384Y005320D03*
X020744Y005475D03*
X020454Y005665D03*
X020509Y005740D03*
X020514Y005745D03*
X020519Y005750D03*
X020524Y005760D03*
X020529Y005765D03*
X020534Y005770D03*
X020539Y005780D03*
X020544Y005785D03*
X020549Y005790D03*
X020554Y005800D03*
X020559Y005805D03*
X020564Y005810D03*
X020569Y005820D03*
X020574Y005825D03*
X020579Y005830D03*
X020589Y005845D03*
X020594Y005850D03*
X020604Y005865D03*
X020609Y005870D03*
X020619Y005885D03*
X020624Y005890D03*
X020714Y006010D03*
X020714Y006015D03*
X020374Y005770D03*
X020369Y005775D03*
X020364Y005780D03*
X020359Y005785D03*
X020359Y005790D03*
X020354Y005795D03*
X020349Y005800D03*
X020344Y005805D03*
X020339Y005815D03*
X020334Y005820D03*
X020329Y005825D03*
X020324Y005835D03*
X020319Y005840D03*
X020314Y005845D03*
X020309Y005855D03*
X020304Y005860D03*
X020299Y005865D03*
X020294Y005870D03*
X020294Y005875D03*
X020289Y005880D03*
X020284Y005885D03*
X020194Y006005D03*
X019919Y005855D03*
X019924Y005845D03*
X019934Y005830D03*
X019944Y005815D03*
X019949Y005805D03*
X019909Y005870D03*
X019884Y005910D03*
X019749Y005945D03*
X019744Y005935D03*
X019739Y005930D03*
X019734Y005920D03*
X019729Y005915D03*
X019729Y005910D03*
X019724Y005905D03*
X019719Y005895D03*
X019714Y005890D03*
X019709Y005880D03*
X019704Y005875D03*
X019704Y005870D03*
X019699Y005865D03*
X019694Y005855D03*
X019689Y005850D03*
X019689Y005845D03*
X019684Y005840D03*
X019679Y005835D03*
X019679Y005830D03*
X019674Y005825D03*
X019669Y005815D03*
X019664Y005810D03*
X019664Y005805D03*
X019614Y005725D03*
X019609Y005720D03*
X019604Y005710D03*
X019599Y005705D03*
X019599Y005700D03*
X019594Y005695D03*
X019589Y005690D03*
X019589Y005685D03*
X019584Y005680D03*
X019579Y005670D03*
X019574Y005665D03*
X019574Y005660D03*
X019569Y005655D03*
X019564Y005650D03*
X019564Y005645D03*
X019994Y005730D03*
X019999Y005725D03*
X020004Y005715D03*
X020009Y005710D03*
X020014Y005700D03*
X020019Y005695D03*
X020019Y005690D03*
X020024Y005685D03*
X020029Y005680D03*
X020029Y005675D03*
X020034Y005670D03*
X020039Y005660D03*
X020044Y005655D03*
X020044Y005650D03*
X020049Y005645D03*
X020379Y005760D03*
X020384Y005755D03*
X020389Y005750D03*
X020394Y005740D03*
X019804Y006030D03*
X018969Y005725D03*
X017854Y006635D03*
X017779Y006710D03*
X019299Y007360D03*
X018699Y007790D03*
X018704Y007800D03*
X018879Y007830D03*
X018879Y007835D03*
X018719Y008005D03*
X018794Y008085D03*
X018794Y008185D03*
X018794Y008190D03*
X018724Y008325D03*
X018504Y007950D03*
X018504Y007945D03*
X018304Y008025D03*
D35*
X018301Y008020D03*
X018401Y008240D03*
X018266Y008335D03*
X018266Y008340D03*
X018276Y008505D03*
X018276Y008510D03*
X018241Y008640D03*
X018436Y008600D03*
X017976Y008495D03*
X017846Y008235D03*
X017841Y008225D03*
X017836Y008220D03*
X017726Y007930D03*
X017721Y007925D03*
X017716Y007920D03*
X017711Y007910D03*
X017706Y007905D03*
X017706Y007900D03*
X017701Y007895D03*
X017601Y007535D03*
X017866Y007400D03*
X017866Y007395D03*
X017866Y007390D03*
X018041Y007370D03*
X018351Y007520D03*
X018356Y007530D03*
X018431Y007260D03*
X018431Y007255D03*
X018431Y007250D03*
X018431Y007245D03*
X018426Y007235D03*
X018426Y007230D03*
X018426Y007225D03*
X018286Y006975D03*
X018281Y006965D03*
X018276Y006960D03*
X018271Y006955D03*
X018266Y006945D03*
X017921Y007045D03*
X017786Y007095D03*
X017491Y007110D03*
X017491Y007115D03*
X017251Y007085D03*
X017001Y006995D03*
X017846Y006625D03*
X017851Y006630D03*
X017516Y006570D03*
X017516Y006565D03*
X017381Y006605D03*
X017376Y006600D03*
X017376Y006595D03*
X017366Y006315D03*
X017511Y006300D03*
X017436Y006160D03*
X017431Y006135D03*
X017756Y006275D03*
X017756Y006280D03*
X018131Y005850D03*
X017766Y005570D03*
X017766Y005565D03*
X018091Y005460D03*
X018096Y005465D03*
X018096Y005255D03*
X017771Y005225D03*
X017771Y005220D03*
X017616Y005190D03*
X017616Y005185D03*
X017616Y005180D03*
X017621Y005170D03*
X017621Y005165D03*
X017621Y005160D03*
X017626Y005150D03*
X017626Y005145D03*
X017626Y005140D03*
X017631Y005135D03*
X017631Y005130D03*
X017631Y005125D03*
X017636Y005115D03*
X017636Y005110D03*
X017636Y005105D03*
X017641Y005100D03*
X017641Y005095D03*
X017611Y005200D03*
X017611Y005205D03*
X017606Y005215D03*
X017606Y005220D03*
X017606Y005225D03*
X017601Y005235D03*
X017601Y005240D03*
X017596Y005255D03*
X017596Y005260D03*
X017591Y005275D03*
X017591Y005280D03*
X017586Y005295D03*
X017581Y005310D03*
X017581Y005315D03*
X017576Y005330D03*
X017571Y005350D03*
X017566Y005370D03*
X017556Y005405D03*
X018831Y005465D03*
X018831Y005255D03*
X019411Y005255D03*
X019786Y005255D03*
X020741Y005400D03*
X020521Y005755D03*
X020536Y005775D03*
X020551Y005795D03*
X020566Y005815D03*
X020581Y005835D03*
X020586Y005840D03*
X020596Y005855D03*
X020601Y005860D03*
X020611Y005875D03*
X020616Y005880D03*
X020711Y006005D03*
X020196Y006000D03*
X020196Y005995D03*
X019616Y005730D03*
X019606Y005715D03*
X019581Y005675D03*
X018966Y005955D03*
X019676Y006300D03*
X019676Y006305D03*
X019831Y006600D03*
X019831Y006605D03*
X020121Y006305D03*
X020296Y006305D03*
X019181Y007410D03*
X018891Y007405D03*
X018701Y007795D03*
X018706Y007805D03*
X018706Y007810D03*
X018876Y007825D03*
X018721Y008000D03*
X018791Y008090D03*
X018791Y008180D03*
X018716Y008320D03*
X018956Y008515D03*
X019621Y008830D03*
X020001Y008490D03*
X020141Y008480D03*
X018941Y008050D03*
D36*
X018814Y008050D03*
X018704Y008035D03*
X018594Y007870D03*
X018594Y007865D03*
X018589Y007855D03*
X018579Y007725D03*
X018579Y007720D03*
X018579Y007715D03*
X018674Y007715D03*
X018674Y007720D03*
X018884Y007870D03*
X018399Y007735D03*
X018409Y007615D03*
X018554Y007565D03*
X018554Y007560D03*
X018554Y007555D03*
X018609Y007515D03*
X018454Y007425D03*
X018454Y007420D03*
X018454Y007415D03*
X018899Y007380D03*
X019179Y007370D03*
X019259Y007335D03*
X018259Y007200D03*
X018164Y006980D03*
X018054Y006985D03*
X017944Y007100D03*
X017944Y007105D03*
X017744Y007015D03*
X017649Y007030D03*
X017649Y007035D03*
X017484Y007185D03*
X017484Y007190D03*
X017289Y007135D03*
X017059Y007025D03*
X017044Y006910D03*
X017224Y006910D03*
X017309Y006895D03*
X017309Y006890D03*
X017309Y006885D03*
X017314Y006900D03*
X017314Y006905D03*
X017314Y006910D03*
X017304Y006870D03*
X017269Y006690D03*
X017269Y006685D03*
X017269Y006680D03*
X017269Y006675D03*
X017269Y006670D03*
X017339Y006520D03*
X017554Y006640D03*
X017554Y006645D03*
X017674Y006670D03*
X017769Y006680D03*
X017899Y006700D03*
X018009Y006720D03*
X018014Y006725D03*
X018014Y006730D03*
X018019Y006740D03*
X018119Y006735D03*
X018124Y006740D03*
X018129Y006745D03*
X018129Y006750D03*
X018134Y006755D03*
X018434Y006710D03*
X018449Y006670D03*
X018449Y006665D03*
X018449Y006660D03*
X018449Y006655D03*
X018824Y006490D03*
X019039Y006375D03*
X018579Y006350D03*
X018369Y006350D03*
X018369Y006355D03*
X018369Y006360D03*
X018144Y006360D03*
X018144Y006365D03*
X018144Y006355D03*
X018144Y006350D03*
X018144Y006345D03*
X018144Y006340D03*
X018144Y006335D03*
X017774Y006345D03*
X017569Y006185D03*
X017569Y006180D03*
X017564Y006175D03*
X017464Y006185D03*
X017444Y006090D03*
X017444Y006085D03*
X017374Y006025D03*
X017369Y006030D03*
X017339Y006370D03*
X017649Y006555D03*
X017654Y006565D03*
X017554Y007500D03*
X017779Y007540D03*
X017609Y007725D03*
X017609Y007730D03*
X017614Y007735D03*
X017619Y007745D03*
X017764Y008120D03*
X017769Y008125D03*
X017869Y008110D03*
X017874Y008115D03*
X017879Y008120D03*
X017884Y008130D03*
X017889Y008135D03*
X018284Y008270D03*
X018374Y008210D03*
X018309Y008050D03*
X018814Y008240D03*
X018814Y008245D03*
X018774Y008365D03*
X018929Y008480D03*
X018614Y008730D03*
X018304Y008565D03*
X018124Y008490D03*
X020059Y008530D03*
X020144Y008510D03*
X020094Y006605D03*
X020094Y006600D03*
X020094Y006595D03*
X020094Y006590D03*
X020094Y006585D03*
X020094Y006580D03*
X020094Y006575D03*
X020094Y006570D03*
X020094Y006565D03*
X020094Y006560D03*
X020094Y006555D03*
X020094Y006550D03*
X020094Y006545D03*
X020094Y006540D03*
X020094Y006535D03*
X020094Y006530D03*
X020094Y006525D03*
X020094Y006520D03*
X020094Y006515D03*
X020094Y006510D03*
X020094Y006505D03*
X020094Y006500D03*
X020094Y006495D03*
X020094Y006490D03*
X020094Y006485D03*
X020094Y006480D03*
X020094Y006475D03*
X020094Y006470D03*
X020094Y006465D03*
X020094Y006460D03*
X020094Y006455D03*
X020094Y006450D03*
X020094Y006445D03*
X020094Y006440D03*
X020094Y006435D03*
X020094Y006430D03*
X020094Y006425D03*
X020094Y006420D03*
X020094Y006415D03*
X020094Y006410D03*
X020094Y006405D03*
X020094Y006400D03*
X020094Y006395D03*
X020094Y006390D03*
X020094Y006385D03*
X020094Y006380D03*
X020094Y006375D03*
X020094Y006370D03*
X020094Y006365D03*
X020094Y006360D03*
X020094Y006355D03*
X020094Y006350D03*
X020094Y006345D03*
X020324Y006345D03*
X020324Y006350D03*
X020324Y006355D03*
X020324Y006360D03*
X020324Y006365D03*
X020324Y006370D03*
X020324Y006375D03*
X020324Y006380D03*
X020324Y006385D03*
X020324Y006390D03*
X020324Y006395D03*
X020324Y006400D03*
X020324Y006405D03*
X020324Y006410D03*
X020324Y006415D03*
X020324Y006420D03*
X020324Y006425D03*
X020324Y006430D03*
X020324Y006435D03*
X020324Y006440D03*
X020324Y006445D03*
X020324Y006450D03*
X020324Y006455D03*
X020324Y006460D03*
X020324Y006465D03*
X020324Y006470D03*
X020324Y006475D03*
X020324Y006480D03*
X020324Y006485D03*
X020324Y006490D03*
X020324Y006495D03*
X020324Y006500D03*
X020324Y006505D03*
X020324Y006510D03*
X020324Y006515D03*
X020324Y006520D03*
X020324Y006525D03*
X020324Y006530D03*
X020324Y006535D03*
X020324Y006540D03*
X020324Y006545D03*
X020324Y006550D03*
X020324Y006555D03*
X020324Y006560D03*
X020324Y006565D03*
X020324Y006570D03*
X020324Y006575D03*
X020324Y006580D03*
X020324Y006585D03*
X020324Y006590D03*
X020324Y006595D03*
X020324Y006600D03*
X020324Y006605D03*
X020564Y006605D03*
X020564Y006600D03*
X020564Y006595D03*
X020564Y006590D03*
X020564Y006585D03*
X020564Y006580D03*
X020564Y006575D03*
X020564Y006570D03*
X020564Y006565D03*
X020564Y006560D03*
X020564Y006555D03*
X020564Y006550D03*
X020564Y006545D03*
X020564Y006540D03*
X020564Y006535D03*
X020564Y006530D03*
X020564Y006525D03*
X020564Y006520D03*
X020564Y006515D03*
X020564Y006510D03*
X020564Y006505D03*
X020564Y006500D03*
X020564Y006495D03*
X020564Y006490D03*
X020564Y006485D03*
X020564Y006480D03*
X020564Y006475D03*
X020564Y006470D03*
X020564Y006465D03*
X020564Y006460D03*
X020564Y006455D03*
X020564Y006450D03*
X020564Y006445D03*
X020564Y006440D03*
X020564Y006435D03*
X020564Y006430D03*
X020564Y006425D03*
X020564Y006420D03*
X020564Y006415D03*
X020564Y006410D03*
X020564Y006405D03*
X020564Y006400D03*
X020564Y006395D03*
X020564Y006390D03*
X020564Y006385D03*
X020564Y006380D03*
X020564Y006375D03*
X020564Y006370D03*
X020564Y006365D03*
X020734Y006365D03*
X020734Y006370D03*
X020734Y006375D03*
X020734Y006380D03*
X020734Y006385D03*
X020719Y006040D03*
X020184Y006040D03*
X019854Y006245D03*
X019854Y006250D03*
X019854Y006255D03*
X019854Y006260D03*
X019854Y006265D03*
X019854Y006270D03*
X019854Y006275D03*
X019854Y006280D03*
X019854Y006285D03*
X019854Y006290D03*
X019854Y006295D03*
X019854Y006300D03*
X019854Y006305D03*
X019854Y006310D03*
X019854Y006315D03*
X019854Y006320D03*
X019854Y006325D03*
X019854Y006330D03*
X019854Y006335D03*
X019854Y006340D03*
X019854Y006345D03*
X019854Y006350D03*
X019854Y006355D03*
X019854Y006360D03*
X019854Y006365D03*
X019854Y006370D03*
X019854Y006375D03*
X019854Y006380D03*
X019854Y006385D03*
X019854Y006390D03*
X019854Y006395D03*
X019854Y006400D03*
X019854Y006405D03*
X019854Y006410D03*
X019854Y006415D03*
X019854Y006420D03*
X019854Y006425D03*
X019854Y006430D03*
X019854Y006435D03*
X019854Y006440D03*
X019854Y006445D03*
X019854Y006450D03*
X019854Y006455D03*
X019854Y006460D03*
X019854Y006465D03*
X019854Y006470D03*
X019854Y006475D03*
X019854Y006480D03*
X019854Y006485D03*
X019854Y006490D03*
X019854Y006495D03*
X019854Y006500D03*
X019854Y006505D03*
X019854Y006510D03*
X019854Y006515D03*
X019499Y006515D03*
X019499Y006520D03*
X019499Y006525D03*
X019499Y006510D03*
X019499Y006505D03*
X019499Y006500D03*
X019499Y006495D03*
X019639Y006350D03*
X020454Y005640D03*
X017789Y005470D03*
X017789Y005465D03*
X017689Y005445D03*
X017684Y005455D03*
X017684Y005460D03*
X017679Y005465D03*
X017679Y005470D03*
X017774Y005135D03*
D37*
X018284Y005175D03*
X018769Y005645D03*
X019599Y005175D03*
X020624Y005165D03*
X018694Y007345D03*
X018844Y007600D03*
X019214Y007635D03*
X018279Y007870D03*
X018189Y007775D03*
X018079Y007540D03*
X019059Y008170D03*
X019709Y008285D03*
X019214Y008500D03*
X019119Y008695D03*
D38*
X019014Y008580D03*
X018664Y008610D03*
X018474Y008570D03*
X018449Y008295D03*
X018594Y008225D03*
X018599Y008230D03*
X018499Y008025D03*
X018294Y007965D03*
X018864Y007745D03*
X019194Y007495D03*
X019194Y007490D03*
X019379Y007410D03*
X018874Y007450D03*
X018249Y007355D03*
X018054Y007430D03*
X017874Y007270D03*
X017874Y007255D03*
X017869Y007250D03*
X017639Y007245D03*
X017504Y006975D03*
X017504Y006970D03*
X017454Y006755D03*
X017454Y006750D03*
X017794Y006770D03*
X017879Y006935D03*
X017879Y006940D03*
X018119Y007095D03*
X017689Y007600D03*
X018984Y008095D03*
X019894Y008415D03*
X019864Y008545D03*
X020134Y008420D03*
X019624Y008805D03*
X017994Y008450D03*
X017984Y008425D03*
X017979Y008420D03*
X016869Y006920D03*
X017639Y006380D03*
X017754Y006495D03*
X017759Y006500D03*
X017714Y006130D03*
X017719Y005765D03*
X017719Y005760D03*
X018874Y006025D03*
X019804Y005960D03*
X020454Y005725D03*
X020669Y005895D03*
X020649Y006265D03*
X019599Y005165D03*
X018284Y005165D03*
D39*
X019101Y005165D03*
X018701Y007330D03*
X018701Y007335D03*
X018846Y007540D03*
X018841Y007585D03*
X019216Y007650D03*
X019521Y007500D03*
X018276Y007860D03*
X018201Y007780D03*
X018141Y007615D03*
X018081Y007550D03*
X019686Y008270D03*
X019231Y008505D03*
X019131Y008710D03*
D40*
X019246Y008795D03*
X019636Y008750D03*
X019651Y008485D03*
X019651Y008245D03*
X020116Y008280D03*
X019221Y007680D03*
X018086Y007570D03*
X018556Y008420D03*
X018566Y008500D03*
X018791Y005665D03*
X020601Y005170D03*
D41*
X019599Y005170D03*
X018749Y005640D03*
X018284Y005170D03*
X016789Y006785D03*
X016784Y006790D03*
X018074Y007510D03*
X018674Y007375D03*
X018674Y007320D03*
X018854Y007510D03*
X019209Y007595D03*
X019209Y007600D03*
X019474Y007470D03*
X020369Y007915D03*
X020124Y008340D03*
X019759Y008320D03*
X019179Y008490D03*
X018529Y008530D03*
X018509Y008365D03*
X019039Y008150D03*
X018284Y007895D03*
X018054Y008045D03*
X018044Y008030D03*
X018039Y008025D03*
X018034Y008020D03*
X018029Y008015D03*
D42*
X018254Y007805D03*
X019224Y007705D03*
X019224Y007700D03*
X019099Y008210D03*
X019284Y008520D03*
X019169Y008750D03*
X019229Y008790D03*
X018574Y008440D03*
X019614Y008220D03*
X020114Y008265D03*
X018334Y006025D03*
X018334Y005790D03*
X018284Y005530D03*
X018804Y005690D03*
X018804Y005695D03*
X018804Y005700D03*
X019074Y005170D03*
X019599Y005190D03*
X020584Y005385D03*
X019804Y005785D03*
X018284Y005190D03*
D43*
X017774Y005180D03*
X017774Y005175D03*
X017774Y005170D03*
X017729Y005335D03*
X017729Y005340D03*
X017724Y005345D03*
X017724Y005350D03*
X017719Y005360D03*
X017779Y005510D03*
X017779Y005515D03*
X018119Y005880D03*
X018119Y005885D03*
X018119Y005890D03*
X018119Y005895D03*
X018119Y005900D03*
X018119Y005905D03*
X018119Y005910D03*
X018119Y005915D03*
X018119Y005920D03*
X018119Y005925D03*
X017584Y006220D03*
X017589Y006230D03*
X017474Y006275D03*
X017764Y006310D03*
X017764Y006315D03*
X018159Y006305D03*
X018354Y006305D03*
X018354Y006465D03*
X018164Y006545D03*
X017879Y006670D03*
X017874Y006665D03*
X017774Y006695D03*
X017669Y006590D03*
X017664Y006585D03*
X017539Y006610D03*
X017359Y006560D03*
X017354Y006555D03*
X017354Y006550D03*
X017279Y006770D03*
X017279Y006775D03*
X017759Y007045D03*
X017764Y007050D03*
X017934Y007075D03*
X017934Y007080D03*
X018064Y007000D03*
X018134Y006945D03*
X018204Y006855D03*
X018199Y006850D03*
X018194Y006840D03*
X018189Y006835D03*
X018179Y006820D03*
X018059Y006820D03*
X018054Y006815D03*
X018054Y006810D03*
X018049Y006800D03*
X018594Y006540D03*
X019054Y006535D03*
X020109Y006310D03*
X020184Y006030D03*
X020719Y006030D03*
X020454Y005650D03*
X020754Y005440D03*
X020754Y005435D03*
X020754Y005430D03*
X017394Y005985D03*
X017394Y005990D03*
X017389Y005995D03*
X016714Y006760D03*
X016764Y006970D03*
X017274Y007115D03*
X017489Y007150D03*
X017489Y007155D03*
X017864Y007430D03*
X017864Y007435D03*
X018034Y007350D03*
X018379Y007565D03*
X018384Y007575D03*
X018574Y007750D03*
X018574Y007755D03*
X018579Y007810D03*
X018579Y007815D03*
X018689Y007760D03*
X018689Y007755D03*
X018504Y007930D03*
X018604Y008120D03*
X018804Y008070D03*
X018804Y008215D03*
X018749Y008345D03*
X018939Y008495D03*
X018609Y008725D03*
X018264Y008650D03*
X018289Y008535D03*
X018119Y008500D03*
X017969Y008510D03*
X018134Y008320D03*
X018274Y008305D03*
X017804Y008175D03*
X017799Y008170D03*
X017814Y008040D03*
X017809Y008035D03*
X017804Y008030D03*
X017799Y008020D03*
X017794Y008015D03*
X017659Y007815D03*
X017654Y007810D03*
X017654Y007805D03*
X017649Y007800D03*
X017574Y007515D03*
X017959Y007665D03*
X018444Y007350D03*
X018444Y007345D03*
X018444Y007340D03*
X019179Y007385D03*
X019179Y007390D03*
X019284Y007350D03*
X020499Y007880D03*
X020144Y008495D03*
X020144Y008500D03*
X020029Y008510D03*
X019989Y008580D03*
D44*
X019636Y008745D03*
X019621Y008225D03*
X019091Y008205D03*
X018571Y008435D03*
X018271Y007825D03*
X018096Y007595D03*
X018091Y007590D03*
X019571Y007530D03*
X019806Y005790D03*
X020541Y005335D03*
X020591Y005175D03*
X018801Y005685D03*
D45*
X018324Y005800D03*
X018284Y005520D03*
X018284Y005200D03*
X019064Y005175D03*
X019599Y005200D03*
X020564Y005360D03*
X020569Y005365D03*
X020579Y005190D03*
X019804Y005770D03*
X019839Y007900D03*
X019594Y008205D03*
X019599Y008470D03*
X019179Y008765D03*
X019209Y008785D03*
X018584Y008450D03*
X019109Y008220D03*
D46*
X019616Y008475D03*
X019171Y008755D03*
X018581Y008490D03*
X018271Y007820D03*
X020111Y008260D03*
X016516Y006930D03*
X018806Y005715D03*
X018806Y005710D03*
X018806Y005705D03*
X019071Y005550D03*
X019806Y005780D03*
X020546Y005340D03*
X020586Y005180D03*
D47*
X019599Y005180D03*
X018784Y005655D03*
X018284Y005180D03*
X018084Y007560D03*
X018129Y007610D03*
X019219Y007665D03*
X019539Y007510D03*
X019664Y008255D03*
X019669Y008490D03*
X019634Y008755D03*
X019264Y008800D03*
X019139Y008720D03*
X018559Y008505D03*
X018549Y008410D03*
X019074Y008185D03*
D48*
X019571Y008190D03*
X019581Y008465D03*
X020111Y008240D03*
X019601Y007550D03*
X018591Y008460D03*
X016511Y006935D03*
X018316Y005995D03*
X018316Y005820D03*
X018316Y005815D03*
X019056Y005540D03*
X019056Y005180D03*
X020571Y005205D03*
D49*
X020581Y005185D03*
X020556Y005350D03*
X020561Y005355D03*
X020571Y005370D03*
X020576Y005375D03*
X019806Y005775D03*
X018326Y006015D03*
X019586Y007540D03*
X019226Y007715D03*
X019226Y007720D03*
X018266Y007810D03*
X019601Y008210D03*
X020111Y008250D03*
X020296Y007935D03*
X019176Y008760D03*
X018586Y008485D03*
D50*
X019084Y008195D03*
X019644Y008240D03*
X019824Y007905D03*
X020314Y007930D03*
X019554Y007520D03*
X018274Y007835D03*
X018234Y007795D03*
X018109Y007600D03*
X018089Y007575D03*
X016594Y006960D03*
X016519Y006925D03*
X018794Y005670D03*
X018284Y005185D03*
X019599Y005185D03*
X020534Y005330D03*
X019804Y005800D03*
X019154Y008735D03*
D51*
X019641Y008730D03*
X019566Y008185D03*
X019161Y007985D03*
X019231Y007745D03*
X019611Y007555D03*
X020276Y007940D03*
X018596Y008465D03*
X018311Y005980D03*
X018311Y005975D03*
X018311Y005970D03*
X018311Y005845D03*
X018311Y005840D03*
X018311Y005835D03*
X019051Y005535D03*
X019051Y005185D03*
X018281Y005215D03*
X019806Y005750D03*
X020121Y005555D03*
X020121Y005550D03*
X020121Y005545D03*
X020121Y005540D03*
X020121Y005535D03*
X020121Y005530D03*
X020121Y005525D03*
X020121Y005520D03*
X020121Y005515D03*
X020121Y005510D03*
X020121Y005505D03*
X020121Y005500D03*
X020121Y005495D03*
X020121Y005490D03*
X020121Y005485D03*
X020121Y005480D03*
X020566Y005240D03*
X020566Y005235D03*
X020566Y005230D03*
X020566Y005225D03*
D52*
X019806Y005740D03*
X019046Y005530D03*
X019046Y005190D03*
X019231Y007755D03*
X019551Y008175D03*
D53*
X019586Y008200D03*
X019301Y008525D03*
X019186Y008770D03*
X018586Y008455D03*
X019226Y007725D03*
X019596Y007545D03*
X020111Y008245D03*
X018321Y006010D03*
X018321Y005805D03*
X019061Y005545D03*
X019806Y005765D03*
X020576Y005195D03*
D54*
X020554Y005345D03*
X020579Y005380D03*
X019599Y005195D03*
X018814Y005805D03*
X018814Y005810D03*
X018814Y005815D03*
X018814Y005820D03*
X018814Y005825D03*
X018814Y005830D03*
X018814Y005835D03*
X018814Y005840D03*
X018814Y005845D03*
X018814Y005850D03*
X018814Y005855D03*
X018814Y005860D03*
X018814Y005865D03*
X018814Y005870D03*
X018814Y005875D03*
X018329Y005795D03*
X018329Y006020D03*
X018284Y005525D03*
X018284Y005195D03*
X019579Y007535D03*
X019224Y007710D03*
X018269Y007815D03*
X019104Y008215D03*
X019609Y008215D03*
X020114Y008255D03*
X019639Y008740D03*
X018579Y008445D03*
D55*
X019129Y008240D03*
X019544Y008170D03*
X019859Y007895D03*
X019234Y007760D03*
X019629Y007565D03*
X020109Y008220D03*
X019339Y008535D03*
X016509Y006940D03*
X018284Y005495D03*
X018284Y005490D03*
X018284Y005485D03*
X018284Y005235D03*
X018284Y005230D03*
X018284Y005225D03*
X019044Y005195D03*
X019044Y005525D03*
X019599Y005235D03*
X019599Y005230D03*
D56*
X019599Y005205D03*
X019804Y005760D03*
X020574Y005200D03*
X018284Y005205D03*
X018284Y005515D03*
X018319Y005810D03*
X018319Y006000D03*
X018319Y006005D03*
X019229Y007730D03*
X019229Y007735D03*
X019114Y008225D03*
X019579Y008195D03*
X019639Y008735D03*
X019189Y008775D03*
X018594Y008480D03*
D57*
X019346Y007935D03*
X019536Y008165D03*
X019231Y007765D03*
X019641Y008725D03*
X019806Y005735D03*
X019041Y005520D03*
X019041Y005200D03*
X019601Y005240D03*
D58*
X019039Y005205D03*
X019039Y005515D03*
X018284Y005480D03*
X018284Y005240D03*
X019634Y007570D03*
X019234Y007770D03*
X019529Y008160D03*
X019134Y008245D03*
X019544Y008455D03*
X020109Y008215D03*
D59*
X020109Y008235D03*
X019319Y008530D03*
X019119Y008230D03*
X019229Y007740D03*
X019194Y008780D03*
X018314Y005990D03*
X018314Y005985D03*
X018314Y005830D03*
X018314Y005825D03*
X018284Y005510D03*
X018284Y005210D03*
X019599Y005210D03*
X019599Y005215D03*
X019804Y005755D03*
X020569Y005220D03*
X020569Y005215D03*
X020569Y005210D03*
D60*
X019036Y005210D03*
X019036Y005215D03*
X019036Y005505D03*
X019036Y005510D03*
X019521Y008155D03*
X020106Y008210D03*
D61*
X020109Y008225D03*
X020109Y008230D03*
X019559Y008180D03*
X019564Y008460D03*
X019124Y008235D03*
X018599Y008470D03*
X018599Y008475D03*
X019229Y007750D03*
X019619Y007560D03*
X018309Y005965D03*
X018284Y005505D03*
X018284Y005500D03*
X018284Y005220D03*
X019599Y005220D03*
X019599Y005225D03*
X019804Y005745D03*
D62*
X019034Y005500D03*
X019034Y005225D03*
X019034Y005220D03*
X019644Y007575D03*
X019234Y007775D03*
X019234Y007780D03*
X020259Y007945D03*
X019139Y008250D03*
X019354Y008540D03*
D63*
X019526Y008450D03*
X019641Y008720D03*
X020106Y008205D03*
X019516Y008150D03*
X019236Y007785D03*
X019651Y007580D03*
X016506Y006945D03*
X019031Y005495D03*
X019031Y005490D03*
X019031Y005485D03*
X019031Y005235D03*
X019031Y005230D03*
D64*
X019029Y005240D03*
X019029Y005480D03*
X019509Y008145D03*
X019144Y008255D03*
X020104Y008200D03*
D65*
X020139Y008475D03*
X019994Y008485D03*
X019954Y008570D03*
X019004Y008440D03*
X018964Y008520D03*
X018739Y008570D03*
X018709Y008315D03*
X018704Y008310D03*
X018789Y008175D03*
X018789Y008095D03*
X018724Y007995D03*
X018709Y007815D03*
X018504Y007955D03*
X018304Y008015D03*
X018404Y008245D03*
X018264Y008345D03*
X018264Y008350D03*
X018134Y008300D03*
X018274Y008500D03*
X017854Y008245D03*
X017849Y008240D03*
X017844Y008230D03*
X017714Y007915D03*
X018354Y007715D03*
X018349Y007515D03*
X018344Y007510D03*
X018604Y007500D03*
X018429Y007240D03*
X018424Y007220D03*
X018424Y007215D03*
X018424Y007210D03*
X018424Y007205D03*
X018304Y007000D03*
X018299Y006990D03*
X018294Y006985D03*
X018289Y006980D03*
X018284Y006970D03*
X018079Y007025D03*
X018079Y007180D03*
X017919Y007040D03*
X017794Y007105D03*
X017789Y007100D03*
X017644Y007110D03*
X017644Y007115D03*
X017644Y007120D03*
X017494Y007105D03*
X017249Y007080D03*
X017249Y007075D03*
X017109Y006945D03*
X017194Y006890D03*
X016994Y006990D03*
X016984Y006985D03*
X017779Y006715D03*
X017844Y006620D03*
X017514Y006560D03*
X017384Y006610D03*
X017519Y006305D03*
X017429Y006155D03*
X017429Y006140D03*
X017264Y006215D03*
X017754Y006265D03*
X017754Y006270D03*
X018609Y006305D03*
X018794Y006305D03*
X018609Y006545D03*
X019524Y006600D03*
X019524Y006605D03*
X019829Y006595D03*
X019829Y006590D03*
X019679Y006310D03*
X019804Y006025D03*
X020199Y005990D03*
X020454Y005670D03*
X020709Y006000D03*
X020649Y006245D03*
X019314Y005860D03*
X019279Y005890D03*
X018469Y005470D03*
X018469Y005250D03*
X018099Y005250D03*
X018099Y005470D03*
X017764Y005575D03*
X017764Y005580D03*
X020389Y005245D03*
X019309Y007365D03*
X019184Y007415D03*
X019184Y007420D03*
X017744Y007510D03*
D66*
X017726Y007495D03*
X017626Y007555D03*
X017871Y007350D03*
X018046Y007390D03*
X018311Y007455D03*
X018316Y007465D03*
X018601Y007490D03*
X018886Y007420D03*
X019186Y007440D03*
X019331Y007380D03*
X018726Y007860D03*
X018726Y007865D03*
X018721Y007855D03*
X018736Y007975D03*
X018776Y008115D03*
X018776Y008140D03*
X018671Y008285D03*
X018416Y008260D03*
X018251Y008385D03*
X018256Y008470D03*
X018261Y008475D03*
X018116Y008525D03*
X017981Y008480D03*
X017891Y008295D03*
X017886Y008290D03*
X018131Y008280D03*
X018301Y008000D03*
X018501Y007980D03*
X018501Y007975D03*
X018956Y008065D03*
X018336Y007705D03*
X018011Y007690D03*
X018226Y007210D03*
X018371Y007100D03*
X018371Y007095D03*
X018366Y007090D03*
X018376Y007105D03*
X018381Y007110D03*
X018091Y007050D03*
X017906Y007010D03*
X017906Y007005D03*
X017816Y007150D03*
X017641Y007155D03*
X017641Y007160D03*
X017496Y007065D03*
X017496Y007060D03*
X017176Y006880D03*
X017146Y006965D03*
X017406Y006655D03*
X017496Y006525D03*
X017496Y006520D03*
X017491Y006515D03*
X017396Y006395D03*
X017561Y006330D03*
X017741Y006225D03*
X018256Y006245D03*
X017816Y006580D03*
X019536Y006540D03*
X019536Y006535D03*
X019816Y006535D03*
X019816Y006530D03*
X019816Y006525D03*
X019676Y006345D03*
X019676Y006340D03*
X019806Y006005D03*
X020211Y005960D03*
X020211Y005955D03*
X020696Y005965D03*
X019771Y005245D03*
X019426Y005245D03*
X018846Y005245D03*
X017751Y005630D03*
X017751Y005635D03*
X018981Y008540D03*
D67*
X018974Y008535D03*
X018719Y008580D03*
X018449Y008590D03*
X018264Y008480D03*
X018254Y008380D03*
X018134Y008285D03*
X017884Y008285D03*
X017879Y008280D03*
X018414Y008255D03*
X018574Y008115D03*
X018679Y008290D03*
X018684Y008295D03*
X018779Y008150D03*
X018779Y008145D03*
X018779Y008110D03*
X018734Y007980D03*
X018719Y007850D03*
X018719Y007845D03*
X018874Y007805D03*
X018874Y007800D03*
X018324Y007475D03*
X018319Y007470D03*
X018044Y007385D03*
X017869Y007360D03*
X017869Y007355D03*
X017734Y007500D03*
X017644Y007150D03*
X017809Y007140D03*
X017809Y007135D03*
X017814Y007145D03*
X017909Y007015D03*
X018089Y007045D03*
X018349Y007065D03*
X018354Y007070D03*
X018359Y007080D03*
X018364Y007085D03*
X018589Y007300D03*
X019324Y007375D03*
X017784Y006730D03*
X017824Y006590D03*
X017819Y006585D03*
X017499Y006530D03*
X017399Y006640D03*
X017399Y006645D03*
X017404Y006650D03*
X017034Y006810D03*
X016959Y006970D03*
X017224Y007030D03*
X017494Y007070D03*
X017494Y007075D03*
X018699Y006605D03*
X018329Y006300D03*
X018704Y006245D03*
X018954Y005960D03*
X019679Y006335D03*
X019819Y006540D03*
X019819Y006545D03*
X019534Y006545D03*
X019534Y006550D03*
X019534Y006555D03*
X020209Y006245D03*
X019804Y006010D03*
X020209Y005965D03*
X020454Y005685D03*
X020699Y005970D03*
X020699Y005975D03*
X018844Y005475D03*
X018459Y005475D03*
X018459Y005245D03*
X018109Y005245D03*
X018109Y005475D03*
X017754Y005620D03*
X017754Y005625D03*
X017744Y006230D03*
X017744Y006235D03*
X017554Y006325D03*
X017389Y006390D03*
X019964Y008465D03*
X020139Y008460D03*
X018219Y008630D03*
D68*
X018271Y008495D03*
X018261Y008355D03*
X018131Y008295D03*
X018116Y008515D03*
X017976Y008490D03*
X018441Y008595D03*
X018696Y008305D03*
X018966Y008525D03*
X018786Y008170D03*
X018786Y008165D03*
X018786Y008100D03*
X018726Y007990D03*
X018711Y007825D03*
X018711Y007820D03*
X018876Y007820D03*
X018876Y007815D03*
X018501Y007960D03*
X018431Y008155D03*
X018946Y008055D03*
X019711Y007940D03*
X020481Y007885D03*
X019986Y008480D03*
X019481Y008860D03*
X017861Y008255D03*
X017856Y008250D03*
X017991Y007680D03*
X018341Y007505D03*
X018041Y007375D03*
X017866Y007380D03*
X017866Y007385D03*
X017606Y007540D03*
X017641Y007125D03*
X017491Y007100D03*
X017491Y007095D03*
X017796Y007110D03*
X017796Y007115D03*
X017916Y007035D03*
X017916Y007030D03*
X018081Y007030D03*
X018301Y006995D03*
X018306Y007005D03*
X018311Y007010D03*
X018321Y007025D03*
X018421Y007195D03*
X018421Y007200D03*
X018891Y007410D03*
X017781Y006720D03*
X017841Y006615D03*
X017836Y006610D03*
X017511Y006555D03*
X017506Y006545D03*
X017386Y006615D03*
X017376Y006385D03*
X017426Y006150D03*
X017426Y006145D03*
X017751Y006260D03*
X018336Y006460D03*
X018791Y006545D03*
X019526Y006585D03*
X019526Y006590D03*
X019526Y006595D03*
X019826Y006585D03*
X019826Y006580D03*
X019826Y006575D03*
X019676Y006320D03*
X019676Y006315D03*
X019806Y006020D03*
X020201Y005985D03*
X020451Y005675D03*
X020706Y005990D03*
X020706Y005995D03*
X019306Y005865D03*
X019301Y005870D03*
X019296Y005875D03*
X019291Y005880D03*
X019286Y005885D03*
X019271Y005895D03*
X019266Y005900D03*
X019261Y005905D03*
X019256Y005910D03*
X019251Y005915D03*
X019236Y005925D03*
X019231Y005930D03*
X019226Y005935D03*
X019221Y005940D03*
X019216Y005945D03*
X019196Y005960D03*
X019191Y005965D03*
X019186Y005970D03*
X019156Y005995D03*
X019151Y006000D03*
X019116Y006030D03*
X019106Y006040D03*
X018836Y006040D03*
X019101Y005640D03*
X018836Y005470D03*
X018836Y005250D03*
X019416Y005250D03*
X019781Y005250D03*
X017761Y005585D03*
X017761Y005590D03*
X017116Y006950D03*
X016551Y006875D03*
D69*
X016986Y006765D03*
X017601Y006740D03*
X017661Y006775D03*
X017681Y006900D03*
X017966Y006795D03*
X018396Y006740D03*
X017886Y006465D03*
X017886Y006460D03*
X017806Y006375D03*
X017601Y006470D03*
X017281Y006405D03*
X017366Y006205D03*
X017461Y006025D03*
X017501Y006025D03*
X017551Y005810D03*
X017826Y005315D03*
X018021Y007290D03*
X017476Y007290D03*
X017476Y007295D03*
X017426Y007320D03*
X017426Y007325D03*
X017431Y007335D03*
X017431Y007340D03*
X017436Y007355D03*
X017441Y007365D03*
X017481Y007495D03*
X018451Y007760D03*
X018481Y007735D03*
X018521Y007705D03*
X018491Y007685D03*
X018491Y007680D03*
X018491Y007675D03*
X018521Y007520D03*
X018511Y007860D03*
X018636Y008025D03*
X018636Y008030D03*
X018676Y008090D03*
X018846Y007995D03*
X018316Y008090D03*
X018311Y008170D03*
X018096Y008395D03*
X018336Y008635D03*
X018846Y008330D03*
X020126Y008580D03*
X020151Y008555D03*
D70*
X020141Y008465D03*
X019971Y008470D03*
X019936Y008565D03*
X019021Y008445D03*
X018971Y008530D03*
X018691Y008300D03*
X018256Y008370D03*
X018256Y008375D03*
X018266Y008485D03*
X018116Y008520D03*
X017981Y008485D03*
X017876Y008275D03*
X017871Y008270D03*
X018301Y008005D03*
X018501Y007970D03*
X018716Y007840D03*
X018716Y007835D03*
X018876Y007810D03*
X018326Y007480D03*
X018001Y007685D03*
X017866Y007365D03*
X017621Y007550D03*
X017641Y007145D03*
X017641Y007140D03*
X017491Y007080D03*
X017226Y007035D03*
X017136Y006960D03*
X016966Y006975D03*
X017396Y006635D03*
X017501Y006535D03*
X017826Y006595D03*
X017781Y006725D03*
X018256Y006605D03*
X018176Y006395D03*
X017746Y006245D03*
X017746Y006240D03*
X017546Y006320D03*
X017536Y006315D03*
X017351Y006310D03*
X018141Y005960D03*
X017756Y005615D03*
X017756Y005610D03*
X017756Y005605D03*
X018956Y005720D03*
X019111Y005650D03*
X019116Y005655D03*
X019151Y005685D03*
X019156Y005690D03*
X019191Y005720D03*
X019196Y005725D03*
X019231Y005755D03*
X019236Y005760D03*
X019271Y005790D03*
X019276Y005795D03*
X020206Y005970D03*
X020701Y005980D03*
X019676Y006325D03*
X019676Y006330D03*
X019821Y006550D03*
X019821Y006555D03*
X019821Y006560D03*
X019531Y006560D03*
X019531Y006565D03*
X019531Y006570D03*
X018401Y007155D03*
X018356Y007075D03*
X018346Y007060D03*
X018341Y007055D03*
X018336Y007045D03*
X018331Y007040D03*
X018086Y007040D03*
X017911Y007020D03*
X017806Y007130D03*
X018886Y007415D03*
X019186Y007430D03*
X019186Y007435D03*
X019521Y007940D03*
X018951Y008060D03*
X018781Y008105D03*
X018781Y008155D03*
X020401Y005325D03*
D71*
X020594Y005390D03*
X019804Y005795D03*
X018799Y005680D03*
X018339Y005785D03*
X018339Y006030D03*
X019564Y007525D03*
X019224Y007695D03*
X018274Y007830D03*
X018244Y007800D03*
X018089Y007585D03*
X018089Y007580D03*
X019629Y008230D03*
X019634Y008480D03*
X020114Y008270D03*
X019164Y008745D03*
X018574Y008495D03*
D72*
X019079Y008190D03*
X019659Y008250D03*
X019149Y008730D03*
X018274Y007840D03*
X018119Y007605D03*
X018839Y007560D03*
X018839Y007555D03*
X019219Y007675D03*
X019549Y007515D03*
X018349Y006035D03*
X018349Y005780D03*
X018789Y005660D03*
X020604Y005395D03*
D73*
X020669Y005480D03*
X020209Y006270D03*
X019169Y006255D03*
X019169Y006425D03*
X018254Y006425D03*
X018249Y006420D03*
X018254Y006270D03*
X018259Y006570D03*
X017829Y006835D03*
X017824Y006830D03*
X017819Y006825D03*
X017814Y006820D03*
X017849Y006860D03*
X017849Y006865D03*
X017509Y006860D03*
X017509Y006875D03*
X018149Y007145D03*
X018174Y007230D03*
X018174Y007235D03*
X018179Y007240D03*
X018064Y007475D03*
X017834Y007770D03*
X017839Y007775D03*
X017844Y007780D03*
X017854Y007795D03*
X017859Y007800D03*
X018289Y007925D03*
X018494Y008075D03*
X018484Y008335D03*
X018129Y008190D03*
X019014Y008125D03*
X019814Y008360D03*
X020129Y008375D03*
X018859Y007690D03*
X018859Y007685D03*
X018864Y007485D03*
X019204Y007550D03*
X016534Y006900D03*
X017684Y006025D03*
X017689Y005900D03*
X017689Y005895D03*
D74*
X017691Y005890D03*
X017691Y005885D03*
X017691Y005880D03*
X017686Y006030D03*
X017686Y006035D03*
X017216Y006235D03*
X018261Y006435D03*
X018266Y006440D03*
X018256Y006575D03*
X018701Y006585D03*
X018701Y006265D03*
X019171Y006435D03*
X019171Y006595D03*
X018146Y007140D03*
X018176Y007225D03*
X018181Y007245D03*
X018061Y007470D03*
X018236Y007660D03*
X018106Y007735D03*
X017831Y007765D03*
X017826Y007760D03*
X017821Y007755D03*
X017811Y007740D03*
X017806Y007735D03*
X017656Y007435D03*
X017631Y007340D03*
X017631Y007335D03*
X017631Y007330D03*
X017511Y006880D03*
X017506Y006855D03*
X017501Y006850D03*
X017806Y006810D03*
X017811Y006815D03*
X017851Y006870D03*
X018646Y007415D03*
X018866Y007480D03*
X019201Y007545D03*
X019426Y007440D03*
X018496Y008070D03*
X018521Y008170D03*
X019126Y008475D03*
X019051Y008620D03*
X019056Y008625D03*
X018606Y008640D03*
X018501Y008550D03*
X018116Y008585D03*
X018106Y008570D03*
X019821Y008365D03*
X020126Y008380D03*
X016781Y006870D03*
X016776Y006865D03*
X018316Y005775D03*
X020666Y005500D03*
X020666Y005495D03*
X020666Y005490D03*
X020666Y005485D03*
D75*
X020664Y005505D03*
X020664Y005510D03*
X020209Y006265D03*
X019174Y006430D03*
X018259Y006580D03*
X018244Y006415D03*
X018254Y006265D03*
X017689Y006045D03*
X017689Y006040D03*
X017694Y005875D03*
X017694Y005870D03*
X017804Y006805D03*
X017854Y006875D03*
X017509Y006885D03*
X017509Y006890D03*
X017509Y006895D03*
X017499Y006845D03*
X017499Y006840D03*
X018144Y007135D03*
X018184Y007250D03*
X018189Y007255D03*
X018644Y007420D03*
X018859Y007695D03*
X018289Y007930D03*
X018494Y008065D03*
X018529Y008175D03*
X018474Y008325D03*
X018479Y008330D03*
X018129Y008200D03*
X018129Y008195D03*
X017819Y007750D03*
X017814Y007745D03*
X017804Y007730D03*
X017799Y007725D03*
X017794Y007720D03*
X017634Y007325D03*
X016789Y006875D03*
X016679Y006965D03*
X019009Y008120D03*
X019829Y008370D03*
X020129Y008385D03*
X019629Y008790D03*
X019374Y008830D03*
X019419Y007435D03*
D76*
X019201Y007535D03*
X019201Y007540D03*
X018866Y007475D03*
X018641Y007425D03*
X018196Y007270D03*
X018196Y007265D03*
X018191Y007260D03*
X018061Y007465D03*
X017771Y007690D03*
X017781Y007705D03*
X017786Y007710D03*
X017791Y007715D03*
X018096Y007730D03*
X018291Y007935D03*
X018496Y008060D03*
X018536Y008180D03*
X018616Y008635D03*
X018571Y008685D03*
X019046Y008615D03*
X019811Y008530D03*
X019836Y008375D03*
X019761Y007925D03*
X020406Y007905D03*
X018861Y007700D03*
X017661Y007440D03*
X017631Y007320D03*
X017856Y006880D03*
X017496Y006835D03*
X017491Y006830D03*
X017706Y006425D03*
X017701Y006420D03*
X017266Y006280D03*
X017691Y006055D03*
X017691Y006050D03*
X017696Y005865D03*
X017696Y005860D03*
X018896Y005965D03*
X018896Y005970D03*
X018896Y005975D03*
X019176Y006250D03*
X018236Y006410D03*
X016801Y006880D03*
X020661Y005520D03*
X020661Y005515D03*
D77*
X020659Y005525D03*
X018894Y005980D03*
X018894Y005985D03*
X018284Y005555D03*
X017699Y005850D03*
X017699Y005855D03*
X017694Y006060D03*
X017694Y006415D03*
X017709Y006430D03*
X017714Y006435D03*
X018274Y006445D03*
X018259Y006585D03*
X017804Y006800D03*
X017859Y006885D03*
X017859Y006890D03*
X017509Y006900D03*
X017509Y006905D03*
X017509Y006910D03*
X017489Y006825D03*
X017489Y006820D03*
X016809Y006885D03*
X017634Y007305D03*
X017634Y007310D03*
X017634Y007315D03*
X017669Y007445D03*
X017754Y007670D03*
X017759Y007675D03*
X017764Y007680D03*
X017769Y007685D03*
X017774Y007695D03*
X017779Y007700D03*
X018059Y007460D03*
X018249Y007665D03*
X018859Y007705D03*
X018869Y007470D03*
X019199Y007530D03*
X018204Y007280D03*
X018199Y007275D03*
X018139Y007130D03*
X019179Y006600D03*
X018289Y007940D03*
X018519Y008105D03*
X018469Y008320D03*
X018494Y008555D03*
X018129Y008590D03*
X018109Y008565D03*
X018129Y008205D03*
X019004Y008115D03*
X019844Y008380D03*
X020129Y008390D03*
X019044Y008610D03*
D78*
X019391Y008835D03*
X019626Y008795D03*
X019851Y008385D03*
X020131Y008395D03*
X018861Y007710D03*
X018291Y007945D03*
X018496Y008055D03*
X018541Y008185D03*
X018546Y008190D03*
X018131Y008210D03*
X018626Y008630D03*
X017751Y007665D03*
X017746Y007660D03*
X017741Y007655D03*
X017731Y007640D03*
X018061Y007455D03*
X018206Y007285D03*
X018136Y007125D03*
X017861Y006895D03*
X017801Y006795D03*
X017486Y006815D03*
X017506Y006915D03*
X017506Y006920D03*
X016816Y006890D03*
X016536Y006895D03*
X017686Y006410D03*
X017716Y006440D03*
X017721Y006445D03*
X018256Y006260D03*
X018701Y006260D03*
X018701Y006590D03*
X017696Y006070D03*
X017696Y006065D03*
X017701Y005845D03*
X017701Y005840D03*
X018891Y005990D03*
X018891Y005995D03*
X020211Y006260D03*
X020656Y005530D03*
X019411Y007430D03*
X018636Y007430D03*
D79*
X018634Y007435D03*
X018214Y007295D03*
X018209Y007290D03*
X018134Y007165D03*
X018134Y007120D03*
X018059Y007450D03*
X017674Y007450D03*
X017634Y007300D03*
X017634Y007295D03*
X017634Y007290D03*
X017714Y007620D03*
X017719Y007625D03*
X017724Y007630D03*
X017729Y007635D03*
X017734Y007645D03*
X017739Y007650D03*
X018084Y007725D03*
X018259Y007670D03*
X018864Y007715D03*
X019199Y007525D03*
X019199Y007520D03*
X019404Y007425D03*
X018494Y008050D03*
X018554Y008195D03*
X018464Y008315D03*
X018489Y008560D03*
X018574Y008690D03*
X018139Y008595D03*
X018109Y008560D03*
X018129Y008215D03*
X018999Y008110D03*
X019109Y008470D03*
X019039Y008605D03*
X019829Y008535D03*
X019859Y008390D03*
X017864Y006900D03*
X017484Y006810D03*
X017479Y006805D03*
X017724Y006450D03*
X017679Y006405D03*
X017279Y006285D03*
X017699Y006080D03*
X017699Y006075D03*
X017704Y005835D03*
X017704Y005830D03*
X017704Y005825D03*
X018889Y006000D03*
X019359Y005825D03*
X020654Y005535D03*
X020649Y006290D03*
X020649Y006295D03*
X020649Y006300D03*
D80*
X018796Y005675D03*
X018281Y005535D03*
X019221Y007685D03*
X019221Y007690D03*
X019086Y008200D03*
X019266Y008515D03*
X019156Y008740D03*
X018566Y008430D03*
X018561Y008425D03*
X019636Y008235D03*
X020116Y008275D03*
D81*
X020134Y008405D03*
X019864Y008395D03*
X019029Y008595D03*
X018644Y008620D03*
X018109Y008555D03*
X018129Y008220D03*
X018569Y008205D03*
X018574Y008210D03*
X018994Y008105D03*
X018864Y007725D03*
X018269Y007675D03*
X018074Y007720D03*
X017709Y007615D03*
X017679Y007455D03*
X018059Y007445D03*
X018224Y007315D03*
X018229Y007320D03*
X018219Y007305D03*
X018129Y007110D03*
X017869Y006915D03*
X017869Y006910D03*
X017799Y006785D03*
X017474Y006790D03*
X017469Y006785D03*
X017504Y006940D03*
X017634Y007275D03*
X017634Y007280D03*
X016834Y006900D03*
X017669Y006400D03*
X017734Y006465D03*
X017739Y006470D03*
X018254Y006255D03*
X017704Y006095D03*
X017709Y005810D03*
X017709Y005805D03*
X017229Y006230D03*
X018884Y006010D03*
X019189Y006245D03*
X020209Y006255D03*
X020649Y006280D03*
X020649Y006285D03*
X020649Y005540D03*
X019394Y007420D03*
D82*
X019221Y007670D03*
X018841Y007570D03*
X018841Y007565D03*
X018841Y007550D03*
X018221Y007790D03*
X018276Y007845D03*
X018086Y007565D03*
X018551Y008415D03*
X019146Y008725D03*
X019251Y008510D03*
X020116Y008290D03*
X020116Y008285D03*
X019091Y005555D03*
X018281Y005540D03*
D83*
X017714Y005785D03*
X017714Y005790D03*
X017709Y006110D03*
X017709Y006115D03*
X017294Y006290D03*
X017654Y006390D03*
X017744Y006480D03*
X017749Y006485D03*
X018259Y006595D03*
X017874Y006925D03*
X017504Y006950D03*
X017504Y006955D03*
X017504Y006960D03*
X017464Y006770D03*
X016854Y006910D03*
X017694Y007605D03*
X018064Y007715D03*
X018294Y007960D03*
X018494Y008165D03*
X018579Y008215D03*
X018989Y008100D03*
X019744Y007930D03*
X018864Y007735D03*
X018874Y007455D03*
X018624Y007450D03*
X018239Y007335D03*
X018234Y007330D03*
X019389Y007415D03*
X018129Y008230D03*
X017994Y008440D03*
X018579Y008695D03*
X018654Y008615D03*
X019024Y008590D03*
X019409Y008840D03*
X019879Y008405D03*
X020649Y006275D03*
X020649Y006270D03*
X020454Y005730D03*
X020644Y005545D03*
X019369Y005840D03*
X019369Y005850D03*
X018879Y006020D03*
D84*
X018284Y005545D03*
X018079Y007545D03*
X018844Y007590D03*
X019214Y007645D03*
X019809Y007910D03*
X019694Y008275D03*
X019689Y008495D03*
X019634Y008760D03*
X019129Y008705D03*
X018539Y008400D03*
X019064Y008175D03*
X020119Y008305D03*
D85*
X019901Y008420D03*
X019076Y008460D03*
X019011Y008575D03*
X018606Y008235D03*
X018546Y008110D03*
X018496Y008020D03*
X018296Y007970D03*
X018131Y008240D03*
X017971Y008410D03*
X017976Y008415D03*
X018111Y008545D03*
X018051Y007710D03*
X018291Y007685D03*
X018616Y007460D03*
X018256Y007365D03*
X018251Y007360D03*
X018116Y007170D03*
X018116Y007090D03*
X017881Y006945D03*
X017501Y006980D03*
X017501Y006985D03*
X017451Y006745D03*
X017086Y006840D03*
X017071Y006835D03*
X017061Y006830D03*
X017631Y006375D03*
X017761Y006505D03*
X017766Y006510D03*
X018211Y006400D03*
X018301Y006455D03*
X018256Y006250D03*
X017716Y006140D03*
X017716Y006135D03*
X017721Y005755D03*
X017721Y005750D03*
X019806Y005965D03*
X020236Y005895D03*
X020236Y005890D03*
X020451Y005720D03*
X020636Y005550D03*
X020671Y005900D03*
X017866Y007240D03*
X017866Y007245D03*
X017861Y007235D03*
X017876Y007275D03*
X017636Y007240D03*
X017636Y007235D03*
X017696Y007470D03*
X017681Y007595D03*
X018866Y007750D03*
X019371Y007405D03*
D86*
X019484Y007475D03*
X018854Y007515D03*
X018849Y007625D03*
X018849Y007630D03*
X019079Y007980D03*
X019044Y008155D03*
X019744Y008310D03*
X020124Y008335D03*
X019319Y008815D03*
X018094Y008095D03*
X018079Y008075D03*
X018074Y008070D03*
X018069Y008065D03*
X018184Y007635D03*
X018074Y007515D03*
X016779Y006795D03*
X016774Y006800D03*
X018284Y005550D03*
D87*
X018201Y005675D03*
X018176Y005660D03*
X018166Y005655D03*
X018161Y005650D03*
X018151Y005645D03*
X017741Y005675D03*
X017741Y005680D03*
X017731Y006190D03*
X017591Y006350D03*
X017476Y006485D03*
X017426Y006420D03*
X017421Y006415D03*
X017791Y006545D03*
X017796Y006550D03*
X017426Y006695D03*
X017421Y006690D03*
X017421Y006685D03*
X017786Y006745D03*
X017896Y006980D03*
X017896Y006985D03*
X017836Y007185D03*
X017871Y007320D03*
X017871Y007325D03*
X018046Y007405D03*
X018286Y007415D03*
X018291Y007425D03*
X018601Y007485D03*
X018871Y007780D03*
X018736Y007895D03*
X018741Y007960D03*
X018501Y007995D03*
X018966Y008075D03*
X018651Y008270D03*
X018646Y008265D03*
X018246Y008415D03*
X018246Y008445D03*
X018196Y008620D03*
X017986Y008470D03*
X017926Y008345D03*
X017921Y008340D03*
X018131Y008265D03*
X018691Y008595D03*
X019626Y008815D03*
X019936Y008445D03*
X020136Y008445D03*
X019726Y007935D03*
X019191Y007460D03*
X019346Y007390D03*
X018101Y007065D03*
X017641Y007190D03*
X017496Y007035D03*
X017496Y007030D03*
X017211Y007010D03*
X017181Y006985D03*
X016921Y006950D03*
X017716Y007485D03*
X019806Y005990D03*
X020221Y005935D03*
X020221Y005930D03*
X020451Y005700D03*
X020621Y005555D03*
X020686Y005940D03*
D88*
X020704Y005985D03*
X020454Y005680D03*
X020204Y005975D03*
X020204Y005980D03*
X019804Y006015D03*
X019304Y005820D03*
X019299Y005815D03*
X019294Y005810D03*
X019289Y005805D03*
X019284Y005800D03*
X019264Y005785D03*
X019259Y005780D03*
X019254Y005775D03*
X019249Y005770D03*
X019244Y005765D03*
X019224Y005750D03*
X019219Y005745D03*
X019214Y005740D03*
X019209Y005735D03*
X019204Y005730D03*
X019184Y005715D03*
X019179Y005710D03*
X019174Y005705D03*
X019169Y005700D03*
X019164Y005695D03*
X019144Y005680D03*
X019139Y005675D03*
X019134Y005670D03*
X019129Y005665D03*
X019124Y005660D03*
X019104Y005645D03*
X019244Y005920D03*
X019209Y005950D03*
X019204Y005955D03*
X019179Y005975D03*
X019174Y005980D03*
X019169Y005985D03*
X019164Y005990D03*
X019144Y006005D03*
X019139Y006010D03*
X019134Y006015D03*
X019129Y006020D03*
X019124Y006025D03*
X019109Y006035D03*
X019529Y006575D03*
X019529Y006580D03*
X019824Y006570D03*
X019824Y006565D03*
X018339Y007050D03*
X018329Y007035D03*
X018324Y007030D03*
X018319Y007020D03*
X018314Y007015D03*
X018084Y007035D03*
X017914Y007025D03*
X017804Y007125D03*
X017799Y007120D03*
X017644Y007130D03*
X017644Y007135D03*
X017494Y007090D03*
X017494Y007085D03*
X017229Y007040D03*
X017129Y006955D03*
X017184Y006885D03*
X017029Y006805D03*
X017389Y006625D03*
X017389Y006620D03*
X017394Y006630D03*
X017509Y006550D03*
X017504Y006540D03*
X017829Y006600D03*
X017834Y006605D03*
X017749Y006255D03*
X017749Y006250D03*
X017529Y006310D03*
X018179Y006300D03*
X017759Y005600D03*
X017759Y005595D03*
X016974Y006980D03*
X017869Y007370D03*
X017869Y007375D03*
X018044Y007380D03*
X018329Y007485D03*
X018334Y007490D03*
X018334Y007495D03*
X018339Y007500D03*
X018604Y007495D03*
X018344Y007710D03*
X018504Y007965D03*
X018304Y008010D03*
X018409Y008250D03*
X018259Y008360D03*
X018259Y008365D03*
X018269Y008490D03*
X018229Y008635D03*
X018599Y008715D03*
X018729Y008575D03*
X018134Y008290D03*
X017869Y008265D03*
X017864Y008260D03*
X018729Y007985D03*
X018714Y007830D03*
X018784Y008160D03*
X019979Y008475D03*
X020139Y008470D03*
X019624Y008825D03*
X017739Y007505D03*
X017614Y007545D03*
X019184Y007425D03*
X019314Y007370D03*
D89*
X019186Y007450D03*
X018871Y007785D03*
X018871Y007790D03*
X018731Y007880D03*
X018736Y007970D03*
X018771Y008125D03*
X018771Y008130D03*
X018656Y008275D03*
X018421Y008265D03*
X018251Y008395D03*
X018251Y008400D03*
X018251Y008455D03*
X018251Y008460D03*
X018206Y008625D03*
X018456Y008585D03*
X018986Y008545D03*
X019041Y008450D03*
X018961Y008070D03*
X018501Y007985D03*
X018131Y008270D03*
X017911Y008325D03*
X017906Y008320D03*
X017901Y008310D03*
X017641Y007565D03*
X017721Y007490D03*
X017871Y007340D03*
X017871Y007335D03*
X018046Y007400D03*
X018301Y007440D03*
X018306Y007445D03*
X018406Y007150D03*
X018406Y007145D03*
X018401Y007140D03*
X018096Y007175D03*
X018096Y007055D03*
X017901Y006995D03*
X017826Y007170D03*
X017641Y007170D03*
X017641Y007175D03*
X017496Y007050D03*
X017496Y007045D03*
X017216Y007020D03*
X017166Y006875D03*
X016931Y006955D03*
X016546Y006880D03*
X017411Y006670D03*
X017411Y006665D03*
X017416Y006675D03*
X017486Y006505D03*
X017406Y006405D03*
X017401Y006400D03*
X017336Y006305D03*
X017251Y006220D03*
X017576Y006340D03*
X017736Y006210D03*
X017736Y006205D03*
X017801Y006560D03*
X017806Y006565D03*
X017786Y006740D03*
X019806Y005995D03*
X020216Y005945D03*
X020451Y005695D03*
X020691Y005950D03*
X020691Y005955D03*
X018351Y005765D03*
X018326Y005750D03*
X018316Y005745D03*
X018301Y005735D03*
X018291Y005730D03*
X018286Y005725D03*
X018276Y005720D03*
X018266Y005715D03*
X018251Y005705D03*
X018146Y005640D03*
X017746Y005650D03*
X017746Y005655D03*
X019951Y008455D03*
X019916Y008560D03*
X020136Y008450D03*
D90*
X020139Y008455D03*
X019959Y008460D03*
X019624Y008820D03*
X019464Y008855D03*
X018709Y008585D03*
X018594Y008710D03*
X018254Y008465D03*
X018254Y008390D03*
X018134Y008275D03*
X017904Y008315D03*
X017899Y008305D03*
X017894Y008300D03*
X017984Y008475D03*
X018664Y008280D03*
X018774Y008135D03*
X018774Y008120D03*
X018729Y007875D03*
X018729Y007870D03*
X018874Y007795D03*
X018299Y007995D03*
X018314Y007460D03*
X018309Y007450D03*
X018044Y007395D03*
X017869Y007345D03*
X017634Y007560D03*
X017639Y007165D03*
X017819Y007155D03*
X017824Y007160D03*
X017824Y007165D03*
X017904Y007000D03*
X017494Y007055D03*
X017219Y007025D03*
X017154Y006970D03*
X016949Y006965D03*
X016939Y006960D03*
X017409Y006660D03*
X017489Y006510D03*
X017809Y006570D03*
X017814Y006575D03*
X017784Y006735D03*
X018384Y007115D03*
X018389Y007120D03*
X018389Y007125D03*
X018394Y007130D03*
X018399Y007135D03*
X018884Y007425D03*
X019189Y007445D03*
X020464Y007890D03*
X019814Y006520D03*
X019539Y006530D03*
X020649Y006250D03*
X020694Y005960D03*
X020454Y005690D03*
X020214Y005950D03*
X019804Y006000D03*
X018359Y005770D03*
X018344Y005760D03*
X018334Y005755D03*
X018309Y005740D03*
X017749Y005645D03*
X017749Y005640D03*
X017739Y006215D03*
X017739Y006220D03*
X017569Y006335D03*
D91*
X018779Y005650D03*
X018084Y007555D03*
X018844Y007580D03*
X019219Y007655D03*
X019069Y008180D03*
X018544Y008405D03*
X018554Y008510D03*
X019679Y008265D03*
X020119Y008300D03*
X020334Y007925D03*
D92*
X019339Y007385D03*
X019189Y007455D03*
X018884Y007430D03*
X018299Y007435D03*
X018294Y007430D03*
X017869Y007330D03*
X017834Y007180D03*
X017829Y007175D03*
X017639Y007180D03*
X017639Y007185D03*
X017499Y007040D03*
X017214Y007015D03*
X017174Y006980D03*
X017164Y006975D03*
X017039Y006815D03*
X017419Y006680D03*
X017484Y006500D03*
X017484Y006495D03*
X017479Y006490D03*
X017414Y006410D03*
X017584Y006345D03*
X017734Y006200D03*
X017734Y006195D03*
X017799Y006555D03*
X017899Y006990D03*
X018099Y007060D03*
X017649Y007570D03*
X018019Y007695D03*
X018324Y007700D03*
X018299Y007990D03*
X018499Y007990D03*
X018739Y007965D03*
X018734Y007890D03*
X018734Y007885D03*
X018424Y008270D03*
X018249Y008405D03*
X018249Y008410D03*
X018249Y008450D03*
X018114Y008530D03*
X017919Y008335D03*
X017914Y008330D03*
X018699Y008590D03*
X018989Y008550D03*
X019944Y008450D03*
X020219Y005940D03*
X020689Y005945D03*
X018259Y005710D03*
X018244Y005700D03*
X018234Y005695D03*
X018224Y005690D03*
X018219Y005685D03*
X018209Y005680D03*
X018194Y005670D03*
X018184Y005665D03*
X017744Y005665D03*
X017744Y005670D03*
X017744Y005660D03*
D93*
X017739Y005685D03*
X017739Y005690D03*
X017729Y006180D03*
X017729Y006185D03*
X017474Y006480D03*
X017324Y006300D03*
X017784Y006535D03*
X017789Y006540D03*
X017429Y006700D03*
X017789Y006750D03*
X017894Y006975D03*
X017839Y007190D03*
X017839Y007195D03*
X017844Y007200D03*
X017874Y007315D03*
X018049Y007410D03*
X018284Y007410D03*
X018289Y007420D03*
X018604Y007480D03*
X018879Y007435D03*
X019189Y007465D03*
X018869Y007775D03*
X018739Y007900D03*
X018739Y007905D03*
X018744Y007915D03*
X018744Y007955D03*
X018499Y008000D03*
X018464Y008160D03*
X018429Y008275D03*
X018639Y008260D03*
X018244Y008420D03*
X018244Y008425D03*
X018244Y008440D03*
X018114Y008535D03*
X017989Y008465D03*
X017934Y008355D03*
X017929Y008350D03*
X018134Y008260D03*
X018299Y007985D03*
X018314Y007695D03*
X017654Y007575D03*
X017639Y007205D03*
X017639Y007200D03*
X017639Y007195D03*
X017499Y007025D03*
X017499Y007020D03*
X017499Y007015D03*
X017209Y007005D03*
X017159Y006870D03*
X016914Y006945D03*
X018104Y007070D03*
X018859Y006035D03*
X019804Y005985D03*
X020224Y005925D03*
X020454Y005705D03*
X020684Y005930D03*
X020684Y005935D03*
X020134Y008440D03*
X019929Y008440D03*
X019899Y008555D03*
X019444Y008850D03*
X018999Y008560D03*
X018994Y008555D03*
X018589Y008705D03*
X018464Y008580D03*
D94*
X018681Y008600D03*
X018241Y008435D03*
X018241Y008430D03*
X017941Y008365D03*
X017936Y008360D03*
X018131Y008255D03*
X018436Y008280D03*
X018631Y008255D03*
X018746Y007950D03*
X018746Y007920D03*
X018741Y007910D03*
X018871Y007770D03*
X018996Y007975D03*
X018971Y008080D03*
X019056Y008455D03*
X019921Y008435D03*
X020136Y008435D03*
X018296Y007980D03*
X018031Y007700D03*
X017711Y007480D03*
X017661Y007580D03*
X017871Y007310D03*
X017871Y007305D03*
X017846Y007205D03*
X018106Y007075D03*
X017891Y006970D03*
X017791Y006755D03*
X017431Y006710D03*
X017431Y006705D03*
X017781Y006530D03*
X017471Y006475D03*
X017471Y006470D03*
X017431Y006425D03*
X017601Y006355D03*
X017726Y006175D03*
X017726Y006170D03*
X017736Y005700D03*
X017736Y005695D03*
X019806Y005980D03*
X020226Y005920D03*
X020681Y005925D03*
X020651Y006255D03*
X019356Y007395D03*
X019191Y007470D03*
X018606Y007475D03*
X018281Y007405D03*
X018276Y007400D03*
X017191Y006990D03*
X016906Y006940D03*
X017046Y006820D03*
D95*
X017199Y006995D03*
X017204Y007000D03*
X017499Y007005D03*
X017499Y007010D03*
X017639Y007210D03*
X017639Y007215D03*
X017849Y007210D03*
X017854Y007220D03*
X017874Y007295D03*
X017874Y007300D03*
X018049Y007415D03*
X018274Y007395D03*
X018209Y007215D03*
X018609Y007305D03*
X018879Y007440D03*
X019194Y007475D03*
X019364Y007400D03*
X018869Y007765D03*
X018749Y007925D03*
X018749Y007930D03*
X018749Y007945D03*
X018499Y008005D03*
X018499Y008010D03*
X018619Y008245D03*
X018624Y008250D03*
X018439Y008285D03*
X017949Y008375D03*
X017944Y008370D03*
X017989Y008460D03*
X018184Y008615D03*
X019004Y008565D03*
X019914Y008430D03*
X017669Y007585D03*
X017889Y006965D03*
X017439Y006720D03*
X017434Y006715D03*
X017469Y006465D03*
X017464Y006460D03*
X017444Y006435D03*
X017439Y006430D03*
X017609Y006360D03*
X017724Y006165D03*
X017724Y006160D03*
X017729Y005725D03*
X017734Y005710D03*
X017734Y005705D03*
X019804Y005975D03*
X020229Y005915D03*
X020229Y005910D03*
X020454Y005710D03*
X020679Y005920D03*
X016544Y006885D03*
D96*
X016886Y006930D03*
X016896Y006935D03*
X017051Y006825D03*
X017141Y006860D03*
X017151Y006865D03*
X017501Y006990D03*
X017501Y006995D03*
X017501Y007000D03*
X017886Y006960D03*
X017886Y006955D03*
X017791Y006760D03*
X017441Y006725D03*
X017771Y006520D03*
X017776Y006525D03*
X017461Y006455D03*
X017451Y006440D03*
X017616Y006365D03*
X017721Y006155D03*
X018256Y006600D03*
X018701Y006600D03*
X018701Y006250D03*
X018866Y006030D03*
X017731Y005720D03*
X017731Y005715D03*
X017726Y005730D03*
X017726Y005735D03*
X020231Y005905D03*
X020451Y005715D03*
X020676Y005910D03*
X020676Y005915D03*
X018111Y007080D03*
X017851Y007215D03*
X017856Y007225D03*
X017636Y007225D03*
X017636Y007220D03*
X017701Y007475D03*
X018051Y007420D03*
X018261Y007375D03*
X018266Y007380D03*
X018266Y007385D03*
X018271Y007390D03*
X018611Y007470D03*
X018301Y007690D03*
X018041Y007705D03*
X018296Y007975D03*
X018131Y008250D03*
X017956Y008385D03*
X017951Y008380D03*
X017991Y008455D03*
X018111Y008540D03*
X018466Y008575D03*
X018671Y008605D03*
X019006Y008570D03*
X019626Y008810D03*
X019881Y008550D03*
X020136Y008430D03*
X018976Y008085D03*
X018751Y007940D03*
X018751Y007935D03*
X018866Y007760D03*
X019191Y007480D03*
X020446Y007895D03*
D97*
X020426Y007900D03*
X020131Y008410D03*
X019871Y008400D03*
X019846Y008540D03*
X019626Y008800D03*
X019091Y008465D03*
X018481Y008565D03*
X018456Y008305D03*
X018131Y008225D03*
X018291Y007955D03*
X018496Y008035D03*
X018496Y008040D03*
X018866Y007730D03*
X018871Y007460D03*
X018626Y007445D03*
X018231Y007325D03*
X018191Y007220D03*
X018126Y007105D03*
X017871Y006920D03*
X017796Y006780D03*
X017466Y006780D03*
X017466Y006775D03*
X017506Y006945D03*
X017636Y007265D03*
X017636Y007270D03*
X017686Y007460D03*
X017701Y007610D03*
X018056Y007440D03*
X019196Y007505D03*
X019196Y007510D03*
X019191Y006605D03*
X018701Y006595D03*
X018701Y006255D03*
X018881Y006015D03*
X019366Y005855D03*
X019366Y005835D03*
X020451Y005735D03*
X017711Y005795D03*
X017711Y005800D03*
X017706Y006100D03*
X017706Y006105D03*
X017661Y006395D03*
X017741Y006475D03*
X016841Y006905D03*
X018151Y008600D03*
D98*
X018174Y008610D03*
X017969Y008405D03*
X017964Y008400D03*
X017964Y008395D03*
X017959Y008390D03*
X018129Y008245D03*
X018444Y008290D03*
X018614Y008240D03*
X018499Y008015D03*
X018869Y007755D03*
X018614Y007465D03*
X018879Y007445D03*
X019194Y007485D03*
X018259Y007370D03*
X018054Y007425D03*
X017874Y007290D03*
X017874Y007285D03*
X017874Y007280D03*
X017859Y007230D03*
X017639Y007230D03*
X018114Y007085D03*
X017884Y006950D03*
X017794Y006765D03*
X017449Y006740D03*
X017444Y006735D03*
X017444Y006730D03*
X017769Y006515D03*
X017459Y006450D03*
X017459Y006445D03*
X017624Y006370D03*
X017719Y006150D03*
X017719Y006145D03*
X017309Y006295D03*
X017239Y006225D03*
X017724Y005745D03*
X017724Y005740D03*
X019804Y005970D03*
X020234Y005900D03*
X020209Y006250D03*
X020649Y006260D03*
X020674Y005905D03*
X017674Y007590D03*
X018979Y008090D03*
X019909Y008425D03*
X020134Y008425D03*
X019429Y008845D03*
X018584Y008700D03*
X017129Y006855D03*
X017114Y006850D03*
X017099Y006845D03*
X016879Y006925D03*
D99*
X016861Y006915D03*
X016541Y006890D03*
X017456Y006760D03*
X017461Y006765D03*
X017501Y006965D03*
X017796Y006775D03*
X017876Y006930D03*
X018121Y007100D03*
X017876Y007260D03*
X017876Y007265D03*
X017636Y007260D03*
X017636Y007255D03*
X017636Y007250D03*
X017691Y007465D03*
X018056Y007435D03*
X018241Y007345D03*
X018241Y007340D03*
X018246Y007350D03*
X018621Y007455D03*
X018281Y007680D03*
X018866Y007740D03*
X019196Y007500D03*
X018496Y008030D03*
X018586Y008220D03*
X018451Y008300D03*
X018131Y008235D03*
X017986Y008430D03*
X017991Y008435D03*
X017996Y008445D03*
X018111Y008550D03*
X018161Y008605D03*
X019021Y008585D03*
X019886Y008410D03*
X020131Y008415D03*
X017751Y006490D03*
X017646Y006385D03*
X017711Y006125D03*
X017711Y006120D03*
X017716Y005780D03*
X017716Y005775D03*
X017716Y005770D03*
X019371Y005845D03*
X019806Y005955D03*
D100*
X019361Y005830D03*
X018886Y006005D03*
X018281Y006450D03*
X018226Y006405D03*
X018256Y006590D03*
X017801Y006790D03*
X017866Y006905D03*
X017506Y006925D03*
X017506Y006930D03*
X017506Y006935D03*
X017476Y006800D03*
X017476Y006795D03*
X017731Y006460D03*
X017726Y006455D03*
X017701Y006090D03*
X017701Y006085D03*
X017706Y005820D03*
X017706Y005815D03*
X016826Y006895D03*
X017636Y007285D03*
X018131Y007115D03*
X018216Y007300D03*
X018221Y007310D03*
X018631Y007310D03*
X018631Y007440D03*
X018871Y007465D03*
X019196Y007515D03*
X018861Y007720D03*
X018496Y008045D03*
X018291Y007950D03*
X018561Y008200D03*
X018461Y008310D03*
X018636Y008625D03*
X019031Y008600D03*
X020131Y008400D03*
D101*
X019791Y008525D03*
X019061Y008630D03*
X018596Y008645D03*
X018566Y008680D03*
X018106Y008575D03*
X017871Y007815D03*
X017866Y007810D03*
X017861Y007805D03*
X017851Y007790D03*
X017846Y007785D03*
X018116Y007740D03*
X018226Y007655D03*
X018651Y007410D03*
X018856Y007680D03*
X019201Y007555D03*
X019436Y007445D03*
X018151Y007160D03*
X018151Y007150D03*
X017846Y006855D03*
X017841Y006850D03*
X017836Y006845D03*
X017831Y006840D03*
X017511Y006865D03*
X017511Y006870D03*
X017631Y007345D03*
X017631Y007350D03*
X017631Y007355D03*
X017651Y007430D03*
X018701Y006580D03*
X018256Y006430D03*
X018256Y006275D03*
X018701Y006270D03*
X019166Y006440D03*
X019166Y006590D03*
X017681Y006020D03*
X017681Y006015D03*
X017686Y005910D03*
X017686Y005905D03*
X017251Y006275D03*
D102*
X017679Y006010D03*
X017684Y005920D03*
X017684Y005915D03*
X018254Y006280D03*
X018259Y006560D03*
X018259Y006565D03*
X019164Y006585D03*
X019164Y006445D03*
X019164Y006420D03*
X019164Y006260D03*
X020209Y006275D03*
X020209Y006280D03*
X018654Y007315D03*
X018654Y007405D03*
X018154Y007155D03*
X017629Y007360D03*
X018064Y007480D03*
X017874Y007820D03*
X017879Y007825D03*
X017884Y007830D03*
X017894Y007845D03*
X018289Y007920D03*
X018494Y008080D03*
X018494Y008085D03*
X018489Y008340D03*
X018509Y008545D03*
X018589Y008650D03*
X019064Y008635D03*
X019144Y008480D03*
X019019Y008130D03*
X019809Y008355D03*
X020129Y008370D03*
X019629Y008785D03*
X018109Y008580D03*
X018129Y008185D03*
X019204Y007560D03*
X019444Y007450D03*
D103*
X019206Y007565D03*
X018861Y007490D03*
X018856Y007670D03*
X018856Y007675D03*
X018656Y007400D03*
X018066Y007485D03*
X017646Y007425D03*
X017631Y007370D03*
X017631Y007365D03*
X017886Y007835D03*
X017891Y007840D03*
X017896Y007850D03*
X017901Y007855D03*
X017906Y007860D03*
X017911Y007865D03*
X018286Y007915D03*
X018126Y008180D03*
X018491Y008345D03*
X019356Y008825D03*
X019801Y008350D03*
X020126Y008365D03*
X019161Y006580D03*
X019161Y006575D03*
X019161Y006450D03*
X019161Y006415D03*
X019161Y006265D03*
X018701Y006275D03*
X018256Y006285D03*
X018256Y006555D03*
X018701Y006575D03*
X017681Y006005D03*
X017681Y005930D03*
X017681Y005925D03*
D104*
X017679Y005935D03*
X017679Y005940D03*
X017679Y005945D03*
X017679Y005995D03*
X017679Y006000D03*
X018254Y006290D03*
X018259Y006550D03*
X018699Y006570D03*
X019159Y006570D03*
X019159Y006565D03*
X019159Y006455D03*
X019159Y006410D03*
X019159Y006270D03*
X020209Y006285D03*
X020209Y006290D03*
X019204Y007570D03*
X018859Y007495D03*
X018854Y007665D03*
X018214Y007650D03*
X018129Y007745D03*
X017924Y007880D03*
X017919Y007875D03*
X017914Y007870D03*
X017934Y007895D03*
X018494Y008090D03*
X018129Y008175D03*
X018514Y008540D03*
X018579Y008655D03*
X019069Y008640D03*
X019074Y008645D03*
X019794Y008345D03*
X019024Y008135D03*
X018069Y007490D03*
X017639Y007420D03*
X017629Y007380D03*
X017629Y007375D03*
X020389Y007910D03*
D105*
X019776Y007920D03*
X019451Y007455D03*
X019206Y007575D03*
X018661Y007395D03*
X018286Y007910D03*
X017951Y007915D03*
X017946Y007910D03*
X017941Y007905D03*
X017936Y007900D03*
X017931Y007890D03*
X017926Y007885D03*
X018126Y008170D03*
X018491Y008095D03*
X018496Y008350D03*
X018561Y008675D03*
X019776Y008520D03*
X019786Y008340D03*
X020126Y008360D03*
X016531Y006905D03*
X017236Y006270D03*
X017676Y005990D03*
X017676Y005955D03*
X017676Y005950D03*
X018256Y006295D03*
X018701Y006285D03*
X018701Y006280D03*
X018701Y006565D03*
X019156Y006560D03*
X019156Y006555D03*
X019156Y006550D03*
X019156Y006405D03*
X019156Y006280D03*
X019156Y006275D03*
D106*
X019154Y006285D03*
X019154Y006290D03*
X019154Y006545D03*
X018699Y006560D03*
X017674Y005985D03*
X017674Y005980D03*
X017674Y005965D03*
X017674Y005960D03*
X017204Y006240D03*
X016809Y006765D03*
X017629Y007385D03*
X017629Y007390D03*
X017629Y007395D03*
X017634Y007415D03*
X018069Y007495D03*
X018139Y007750D03*
X018284Y007905D03*
X017974Y007945D03*
X017964Y007930D03*
X017959Y007925D03*
X017954Y007920D03*
X018494Y008100D03*
X018499Y008355D03*
X019029Y008140D03*
X019164Y008485D03*
X019079Y008650D03*
X018569Y008660D03*
X019629Y008780D03*
X019779Y008335D03*
X020124Y008355D03*
X018854Y007660D03*
X018854Y007655D03*
X018859Y007500D03*
X018664Y007390D03*
X019459Y007460D03*
X020209Y006300D03*
X020209Y006295D03*
D107*
X019151Y006295D03*
X019151Y006300D03*
X019151Y006305D03*
X018701Y006300D03*
X018701Y006295D03*
X018701Y006290D03*
X018701Y006550D03*
X018701Y006555D03*
X017671Y005975D03*
X017671Y005970D03*
X017626Y007400D03*
X018071Y007500D03*
X018206Y007645D03*
X018666Y007385D03*
X019206Y007580D03*
X019206Y007585D03*
X018126Y008165D03*
X017986Y007960D03*
X017981Y007955D03*
X017976Y007950D03*
X017971Y007940D03*
X017966Y007935D03*
X018521Y008535D03*
X019081Y008655D03*
X019336Y008820D03*
X019771Y008330D03*
D108*
X019714Y008290D03*
X020119Y008320D03*
X019634Y008765D03*
X019114Y008690D03*
X018539Y008520D03*
X019054Y008165D03*
X018279Y007875D03*
X018164Y007625D03*
X018849Y007610D03*
X018849Y007525D03*
X019214Y007625D03*
X019214Y007630D03*
X019499Y007485D03*
X017194Y006255D03*
X016754Y006820D03*
X016749Y006825D03*
X016524Y006915D03*
X018374Y006040D03*
D109*
X019444Y006135D03*
X019444Y006140D03*
X019444Y006145D03*
X019444Y006150D03*
X019444Y006155D03*
X019444Y006160D03*
X019444Y006165D03*
X019444Y006170D03*
X019444Y006175D03*
X019444Y006180D03*
X019444Y006185D03*
X019444Y006190D03*
X019444Y006195D03*
D110*
X017206Y006260D03*
X017191Y006245D03*
X016766Y006805D03*
X018076Y007520D03*
X018171Y007765D03*
X018281Y007885D03*
X018081Y008080D03*
X018086Y008085D03*
X018091Y008090D03*
X018096Y008100D03*
X018101Y008105D03*
X018106Y008110D03*
X018126Y008140D03*
X018516Y008375D03*
X019196Y008495D03*
X019101Y008675D03*
X019631Y008770D03*
X019736Y008305D03*
X020121Y008330D03*
X019791Y007915D03*
X019491Y007480D03*
X019211Y007610D03*
X019211Y007615D03*
X018851Y007520D03*
X018681Y007365D03*
D111*
X018691Y007350D03*
X018846Y007530D03*
X018846Y007605D03*
X019506Y007490D03*
X020351Y007920D03*
X020121Y008315D03*
X019706Y008500D03*
X018531Y008390D03*
X018076Y007535D03*
X017186Y006250D03*
D112*
X017221Y006265D03*
X016791Y006780D03*
X018071Y007505D03*
X018196Y007640D03*
X018671Y007380D03*
X018851Y007640D03*
X018851Y007645D03*
X018026Y008010D03*
X018021Y008005D03*
X018016Y008000D03*
X018011Y007990D03*
X018006Y007985D03*
X018126Y008155D03*
X019086Y008660D03*
X019091Y008665D03*
X019631Y008775D03*
D113*
X019759Y008515D03*
X019764Y008325D03*
X020124Y008345D03*
X020124Y008350D03*
X019034Y008145D03*
X018504Y008360D03*
X018129Y008160D03*
X018014Y007995D03*
X018004Y007980D03*
X017999Y007975D03*
X017994Y007970D03*
X017989Y007965D03*
X018284Y007900D03*
X018149Y007755D03*
X017629Y007410D03*
X017629Y007405D03*
X016804Y006770D03*
X016799Y006775D03*
X018859Y007505D03*
X018854Y007650D03*
X019209Y007590D03*
X019469Y007465D03*
X018559Y008665D03*
X018554Y008670D03*
D114*
X018534Y008525D03*
X018524Y008380D03*
X018124Y008135D03*
X018119Y008125D03*
X018114Y008120D03*
X018109Y008115D03*
X018174Y007630D03*
X018074Y007525D03*
X018684Y007360D03*
X018849Y007620D03*
X019049Y008160D03*
X019729Y008300D03*
X019724Y008505D03*
X019104Y008680D03*
X016764Y006810D03*
D115*
X016756Y006815D03*
X018076Y007530D03*
X018181Y007770D03*
X018281Y007880D03*
X018121Y008130D03*
X018526Y008385D03*
X019111Y008685D03*
X019301Y008810D03*
X019721Y008295D03*
X020121Y008325D03*
X019211Y007620D03*
X018846Y007615D03*
X018686Y007355D03*
D116*
X018676Y007370D03*
X018851Y007635D03*
X019211Y007605D03*
X018281Y007890D03*
X018161Y007760D03*
X018046Y008035D03*
X018051Y008040D03*
X018056Y008050D03*
X018061Y008055D03*
X018066Y008060D03*
X018126Y008145D03*
X018126Y008150D03*
X018511Y008370D03*
X019096Y008670D03*
X019741Y008510D03*
X019751Y008315D03*
X016526Y006910D03*
D117*
X016521Y006920D03*
X018211Y007785D03*
X018276Y007850D03*
X018276Y007855D03*
X018841Y007575D03*
X018841Y007545D03*
X019216Y007660D03*
X019531Y007505D03*
X019671Y008260D03*
X020116Y008295D03*
X019136Y008715D03*
D118*
X019491Y008440D03*
X019471Y008120D03*
X019676Y007595D03*
X016501Y006950D03*
D119*
X016506Y006955D03*
X019241Y007820D03*
X019241Y007825D03*
X019466Y008115D03*
X020101Y008175D03*
X019681Y007600D03*
D120*
X019516Y007495D03*
X019216Y007640D03*
X018846Y007595D03*
X018846Y007535D03*
X018696Y007340D03*
X018696Y007325D03*
X018151Y007620D03*
X018276Y007865D03*
X018536Y008395D03*
X018546Y008515D03*
X019121Y008700D03*
X019281Y008805D03*
X020121Y008310D03*
X019701Y008280D03*
D121*
X019494Y008135D03*
X019149Y008260D03*
X019509Y008445D03*
X019644Y008715D03*
X020104Y008190D03*
X019874Y007890D03*
X019659Y007585D03*
X019239Y007800D03*
D122*
X019666Y007590D03*
X019486Y008130D03*
D123*
X019456Y008110D03*
X019241Y007830D03*
X019691Y007605D03*
X020101Y008165D03*
X020101Y008170D03*
X019406Y008555D03*
X019646Y008705D03*
D124*
X019169Y008280D03*
X019449Y008105D03*
X019244Y007840D03*
X019244Y007835D03*
X019699Y007610D03*
X019889Y007885D03*
X020224Y007955D03*
D125*
X020099Y008155D03*
X019434Y008095D03*
X019174Y008285D03*
X019244Y007845D03*
X019709Y007615D03*
D126*
X019714Y007620D03*
X019244Y007855D03*
X019419Y008085D03*
X019179Y008290D03*
X019439Y008425D03*
X020099Y008150D03*
D127*
X020099Y008145D03*
X020204Y007960D03*
X019724Y007625D03*
X019249Y007865D03*
X019414Y008080D03*
X019184Y008295D03*
D128*
X019189Y008300D03*
X019419Y008420D03*
X019399Y008070D03*
X019249Y007875D03*
X019734Y007630D03*
X020099Y008135D03*
D129*
X019384Y008060D03*
X019244Y007990D03*
X019249Y007885D03*
X019249Y007880D03*
X019739Y007635D03*
X019459Y008570D03*
X019649Y008690D03*
D130*
X020094Y008120D03*
X020184Y007965D03*
X019749Y007640D03*
X019369Y008050D03*
D131*
X019251Y007900D03*
X019251Y007895D03*
X019756Y007645D03*
X019201Y008315D03*
D132*
X019349Y008035D03*
X019254Y007915D03*
X019254Y007910D03*
X019764Y007650D03*
X020094Y008105D03*
X020094Y008110D03*
D133*
X019341Y008030D03*
X019211Y008325D03*
X019651Y008680D03*
X019771Y007655D03*
D134*
X019781Y007660D03*
X019256Y007925D03*
X019256Y007930D03*
X019326Y008020D03*
X019216Y008330D03*
X020091Y008095D03*
X020166Y007970D03*
D135*
X019789Y007665D03*
X019319Y008015D03*
D136*
X019306Y008005D03*
X019936Y007870D03*
X019796Y007670D03*
X020091Y008085D03*
X019226Y008340D03*
D137*
X019334Y008395D03*
X019299Y008000D03*
X019804Y007675D03*
X020089Y008080D03*
D138*
X020089Y008070D03*
X019814Y007680D03*
X019529Y008590D03*
D139*
X019654Y008665D03*
X020089Y008065D03*
X019819Y007685D03*
D140*
X019829Y007690D03*
D141*
X019836Y007695D03*
X020086Y008055D03*
X019296Y008385D03*
X019246Y008360D03*
D142*
X019279Y008380D03*
X019564Y008600D03*
X019844Y007700D03*
D143*
X019851Y007705D03*
X020086Y008040D03*
X019256Y008370D03*
X019656Y008655D03*
D144*
X019581Y008605D03*
X019261Y008375D03*
X019861Y007710D03*
D145*
X019866Y007715D03*
X019971Y007860D03*
X020081Y008025D03*
X019656Y008650D03*
D146*
X019596Y008610D03*
X020081Y008020D03*
X019876Y007720D03*
D147*
X019884Y007725D03*
X020084Y008015D03*
X019659Y008645D03*
D148*
X020094Y007990D03*
X019894Y007730D03*
D149*
X019899Y007735D03*
X020079Y008000D03*
X019659Y008640D03*
D150*
X019634Y008620D03*
X019909Y007740D03*
D151*
X019916Y007745D03*
D152*
X019924Y007750D03*
X019659Y008630D03*
D153*
X019651Y008625D03*
X019931Y007755D03*
D154*
X019941Y007760D03*
X020001Y007850D03*
D155*
X019946Y007765D03*
D156*
X019956Y007770D03*
D157*
X019964Y007775D03*
D158*
X019974Y007780D03*
X020019Y007845D03*
D159*
X019979Y007785D03*
D160*
X019989Y007790D03*
D161*
X019236Y007790D03*
X019236Y007795D03*
X019501Y008140D03*
X020106Y008195D03*
X019371Y008545D03*
D162*
X019996Y007795D03*
D163*
X020004Y007800D03*
X020034Y007840D03*
D164*
X020011Y007805D03*
D165*
X020239Y007950D03*
X020104Y008185D03*
X019479Y008125D03*
X019154Y008265D03*
X019239Y007810D03*
X019239Y007805D03*
D166*
X020021Y007810D03*
D167*
X020026Y007815D03*
D168*
X020104Y008180D03*
X019389Y008550D03*
X019644Y008710D03*
X019159Y008270D03*
X019239Y007815D03*
D169*
X020036Y007820D03*
D170*
X020044Y007825D03*
X020049Y007835D03*
D171*
X020051Y007830D03*
D172*
X019426Y008090D03*
X019246Y007850D03*
X019421Y008560D03*
X019646Y008700D03*
D173*
X020081Y007995D03*
X019986Y007855D03*
D174*
X019246Y007860D03*
D175*
X019954Y007865D03*
X020129Y007980D03*
X019654Y008660D03*
D176*
X019646Y008695D03*
X019441Y008565D03*
X019406Y008075D03*
X019246Y007870D03*
X019906Y007880D03*
X020096Y008140D03*
D177*
X019921Y007875D03*
X019356Y008040D03*
X019206Y008320D03*
X019386Y008410D03*
X019476Y008575D03*
D178*
X019401Y008415D03*
X019196Y008310D03*
X019376Y008055D03*
X019251Y007890D03*
X020096Y008125D03*
D179*
X020094Y008115D03*
X019364Y008045D03*
X019254Y007905D03*
X019649Y008685D03*
D180*
X019494Y008580D03*
X019369Y008405D03*
X019334Y008025D03*
X019254Y007920D03*
X020094Y008100D03*
D181*
X020091Y008075D03*
X020146Y007975D03*
X019291Y007995D03*
X019231Y008345D03*
X019651Y008670D03*
D182*
X020084Y008030D03*
X020109Y007985D03*
D183*
X020081Y008005D03*
X019616Y008615D03*
D184*
X020081Y008010D03*
D185*
X019314Y008010D03*
X019509Y008585D03*
D186*
X020084Y008035D03*
D187*
X020086Y008045D03*
X020086Y008050D03*
X019251Y008365D03*
D188*
X019241Y008355D03*
X019546Y008595D03*
X020086Y008060D03*
D189*
X020096Y008130D03*
X019391Y008065D03*
X019191Y008305D03*
D190*
X019221Y008335D03*
X019351Y008400D03*
X019651Y008675D03*
X020091Y008090D03*
D191*
X020101Y008160D03*
X019441Y008100D03*
X019456Y008430D03*
D192*
X019474Y008435D03*
X019164Y008275D03*
D193*
X019236Y008350D03*
X019316Y008390D03*
D194*
X019659Y008635D03*
D195*
X013061Y008260D02*
X013061Y006010D01*
X013061Y003760D01*
X013061Y001510D01*
X011061Y001510D02*
X011061Y003760D01*
X011061Y006010D01*
X011061Y008260D01*
X011061Y010510D01*
X013061Y010510D02*
X013061Y008260D01*
X017061Y001510D02*
X019061Y001510D01*
D196*
X003311Y001312D02*
X003220Y001030D01*
X010321Y001030D01*
X010301Y001079D01*
X010301Y001941D01*
X010381Y002134D01*
X010381Y003136D01*
X010301Y003329D01*
X010301Y004191D01*
X010381Y004384D01*
X010381Y005386D01*
X010301Y005579D01*
X010301Y006441D01*
X010381Y006634D01*
X010381Y007636D01*
X010301Y007829D01*
X010301Y008691D01*
X010381Y008884D01*
X010381Y009886D01*
X010301Y010079D01*
X010301Y010941D01*
X010321Y010990D01*
X009801Y010990D01*
X009821Y010941D01*
X009821Y010079D01*
X009706Y009799D01*
X009492Y009586D01*
X009212Y009470D01*
X008910Y009470D01*
X008631Y009586D01*
X008417Y009799D01*
X008301Y010079D01*
X008301Y010941D01*
X008321Y010990D01*
X003220Y010990D01*
X003311Y010708D01*
X003311Y010692D01*
X003555Y010833D01*
X003842Y010910D01*
X004140Y010910D01*
X004427Y010833D01*
X004685Y010684D01*
X004895Y010474D01*
X005044Y010216D01*
X005121Y009929D01*
X005121Y008331D01*
X005044Y008044D01*
X004895Y007786D01*
X004685Y007576D01*
X004427Y007427D01*
X004140Y007350D01*
X003842Y007350D01*
X003555Y007427D01*
X003297Y007576D01*
X003087Y007786D01*
X002938Y008044D01*
X002861Y008331D01*
X002861Y009546D01*
X002636Y009382D01*
X002636Y009382D01*
X002259Y009260D01*
X001863Y009260D01*
X001581Y009352D01*
X001581Y002668D01*
X001863Y002760D01*
X002259Y002760D01*
X002636Y002638D01*
X002636Y002638D01*
X002861Y002474D01*
X002861Y003889D01*
X002938Y004176D01*
X003087Y004434D01*
X003297Y004644D01*
X003555Y004793D01*
X003842Y004870D01*
X004140Y004870D01*
X004427Y004793D01*
X004685Y004644D01*
X004895Y004434D01*
X005044Y004176D01*
X005121Y003889D01*
X005121Y002291D01*
X005044Y002004D01*
X004895Y001746D01*
X004685Y001536D01*
X004427Y001387D01*
X004140Y001310D01*
X003842Y001310D01*
X003555Y001387D01*
X003311Y001528D01*
X003311Y001312D01*
X003258Y001147D02*
X010301Y001147D01*
X010301Y001466D02*
X004563Y001466D01*
X004917Y001784D02*
X010301Y001784D01*
X010368Y002103D02*
X005071Y002103D01*
X005121Y002421D02*
X010381Y002421D01*
X010381Y002740D02*
X009260Y002740D01*
X009212Y002720D02*
X009492Y002836D01*
X009706Y003049D01*
X009821Y003329D01*
X009821Y004191D01*
X009706Y004471D01*
X009492Y004684D01*
X009212Y004800D01*
X008926Y004800D01*
X008648Y005079D01*
X008910Y004970D01*
X009212Y004970D01*
X009492Y005086D01*
X009706Y005299D01*
X009821Y005579D01*
X009821Y006441D01*
X009706Y006721D01*
X009492Y006934D01*
X009212Y007050D01*
X008926Y007050D01*
X008832Y007145D01*
X008596Y007242D01*
X006904Y007242D01*
X006883Y007263D01*
X006596Y007382D01*
X006338Y007382D01*
X006576Y007620D01*
X008388Y007620D01*
X008417Y007549D01*
X008631Y007336D01*
X008910Y007220D01*
X009212Y007220D01*
X009492Y007336D01*
X009706Y007549D01*
X009821Y007829D01*
X009821Y008691D01*
X009706Y008971D01*
X009492Y009184D01*
X009212Y009300D01*
X008910Y009300D01*
X008631Y009184D01*
X008417Y008971D01*
X008388Y008900D01*
X006184Y008900D01*
X005949Y008803D01*
X005769Y008623D01*
X004536Y007390D01*
X004298Y007390D01*
X004012Y007271D01*
X003792Y007052D01*
X003673Y006765D01*
X003673Y006455D01*
X003792Y006168D01*
X003850Y006110D01*
X003800Y006060D01*
X003681Y005773D01*
X003681Y005463D01*
X003800Y005176D01*
X004019Y004957D01*
X004306Y004838D01*
X005216Y004838D01*
X005451Y004935D01*
X005686Y004838D01*
X006596Y004838D01*
X006883Y004957D01*
X006904Y004978D01*
X006938Y004978D01*
X008301Y003615D01*
X008301Y003329D01*
X008417Y003049D01*
X008631Y002836D01*
X008910Y002720D01*
X009212Y002720D01*
X008863Y002740D02*
X005121Y002740D01*
X005121Y003058D02*
X008413Y003058D01*
X008301Y003377D02*
X005121Y003377D01*
X005121Y003695D02*
X008221Y003695D01*
X007903Y004014D02*
X005088Y004014D01*
X004954Y004332D02*
X007584Y004332D01*
X007266Y004651D02*
X004674Y004651D01*
X004007Y004969D02*
X001581Y004969D01*
X001581Y005288D02*
X003754Y005288D01*
X003681Y005606D02*
X001581Y005606D01*
X001581Y005925D02*
X003744Y005925D01*
X003761Y006243D02*
X001581Y006243D01*
X001581Y006562D02*
X003673Y006562D01*
X003721Y006880D02*
X001581Y006880D01*
X001581Y007199D02*
X003939Y007199D01*
X003399Y007517D02*
X001581Y007517D01*
X001581Y007836D02*
X003059Y007836D01*
X002909Y008154D02*
X001581Y008154D01*
X001581Y008473D02*
X002861Y008473D01*
X002861Y008791D02*
X001581Y008791D01*
X001581Y009110D02*
X002861Y009110D01*
X002861Y009428D02*
X002699Y009428D01*
X005121Y009428D02*
X010381Y009428D01*
X010381Y009110D02*
X009567Y009110D01*
X009780Y008791D02*
X010343Y008791D01*
X010301Y008473D02*
X009821Y008473D01*
X009821Y008154D02*
X010301Y008154D01*
X010301Y007836D02*
X009821Y007836D01*
X009673Y007517D02*
X010381Y007517D01*
X010381Y007199D02*
X008702Y007199D01*
X008449Y007517D02*
X006473Y007517D01*
X006311Y008260D02*
X005061Y007010D01*
X005061Y006618D01*
X005053Y006610D01*
X005841Y006602D02*
X008469Y006602D01*
X009061Y006010D01*
X009821Y005925D02*
X010301Y005925D01*
X010301Y006243D02*
X009821Y006243D01*
X009771Y006562D02*
X010351Y006562D01*
X010381Y006880D02*
X009546Y006880D01*
X008301Y005865D02*
X008204Y005962D01*
X007764Y005962D01*
X008410Y005316D01*
X008301Y005579D01*
X008301Y005865D01*
X008242Y005925D02*
X007802Y005925D01*
X008120Y005606D02*
X008301Y005606D01*
X007203Y005618D02*
X005841Y005618D01*
X006895Y004969D02*
X006947Y004969D01*
X007203Y005618D02*
X009061Y003760D01*
X009821Y003695D02*
X010301Y003695D01*
X010301Y003377D02*
X009821Y003377D01*
X009709Y003058D02*
X010381Y003058D01*
X011741Y003058D02*
X012381Y003058D01*
X012381Y003136D02*
X012381Y002134D01*
X012301Y001941D01*
X012301Y001079D01*
X012321Y001030D01*
X011801Y001030D01*
X011821Y001079D01*
X011821Y001941D01*
X011741Y002134D01*
X011741Y003136D01*
X011821Y003329D01*
X011821Y004191D01*
X011741Y004384D01*
X011741Y005386D01*
X011821Y005579D01*
X011821Y006441D01*
X011741Y006634D01*
X011741Y007636D01*
X011821Y007829D01*
X011821Y008691D01*
X011741Y008884D01*
X011741Y009886D01*
X011821Y010079D01*
X011821Y010941D01*
X011801Y010990D01*
X012321Y010990D01*
X012301Y010941D01*
X012301Y010079D01*
X012381Y009886D01*
X012381Y008884D01*
X012301Y008691D01*
X012301Y007829D01*
X012381Y007636D01*
X012381Y006634D01*
X012301Y006441D01*
X012301Y005579D01*
X012381Y005386D01*
X012381Y004384D01*
X012301Y004191D01*
X012301Y003329D01*
X012381Y003136D01*
X012301Y003377D02*
X011821Y003377D01*
X011821Y003695D02*
X012301Y003695D01*
X012301Y004014D02*
X011821Y004014D01*
X011763Y004332D02*
X012360Y004332D01*
X012381Y004651D02*
X011741Y004651D01*
X011741Y004969D02*
X012381Y004969D01*
X012381Y005288D02*
X011741Y005288D01*
X011821Y005606D02*
X012301Y005606D01*
X012301Y005925D02*
X011821Y005925D01*
X011821Y006243D02*
X012301Y006243D01*
X012351Y006562D02*
X011771Y006562D01*
X011741Y006880D02*
X012381Y006880D01*
X012381Y007199D02*
X011741Y007199D01*
X011741Y007517D02*
X012381Y007517D01*
X012301Y007836D02*
X011821Y007836D01*
X011821Y008154D02*
X012301Y008154D01*
X012301Y008473D02*
X011821Y008473D01*
X011780Y008791D02*
X012343Y008791D01*
X012381Y009110D02*
X011741Y009110D01*
X011741Y009428D02*
X012381Y009428D01*
X012381Y009747D02*
X011741Y009747D01*
X011816Y010065D02*
X012307Y010065D01*
X012301Y010384D02*
X011821Y010384D01*
X011821Y010702D02*
X012301Y010702D01*
X013821Y010702D02*
X014301Y010702D01*
X014301Y010941D02*
X014301Y010079D01*
X014417Y009799D01*
X014631Y009586D01*
X014910Y009470D01*
X015212Y009470D01*
X015492Y009586D01*
X015706Y009799D01*
X015821Y010079D01*
X015821Y010941D01*
X015801Y010990D01*
X022903Y010990D01*
X022811Y010708D01*
X022811Y010312D01*
X022934Y009935D01*
X023166Y009615D01*
X023166Y009615D01*
X023166Y009615D01*
X023487Y009382D01*
X023863Y009260D01*
X024259Y009260D01*
X024541Y009352D01*
X024541Y002668D01*
X024259Y002760D01*
X023863Y002760D01*
X023487Y002638D01*
X023487Y002638D01*
X023166Y002405D01*
X022934Y002085D01*
X022811Y001708D01*
X022811Y001312D01*
X022903Y001030D01*
X021911Y001030D01*
X021911Y002049D01*
X021811Y002290D01*
X021961Y002290D01*
X022249Y002367D01*
X022508Y002517D01*
X022719Y002728D01*
X022869Y002987D01*
X022946Y003276D01*
X022946Y003574D01*
X022869Y003863D01*
X022719Y004122D01*
X022508Y004333D01*
X022249Y004483D01*
X021961Y004560D01*
X021662Y004560D01*
X021373Y004483D01*
X021114Y004333D01*
X020903Y004122D01*
X020754Y003863D01*
X020676Y003574D01*
X020676Y003448D01*
X020604Y003623D01*
X020424Y003803D01*
X020189Y003900D01*
X016684Y003900D01*
X016449Y003803D01*
X016269Y003623D01*
X015796Y003150D01*
X015747Y003150D01*
X015821Y003329D01*
X015821Y004191D01*
X015706Y004471D01*
X015492Y004684D01*
X015212Y004800D01*
X014910Y004800D01*
X014631Y004684D01*
X014417Y004471D01*
X014301Y004191D01*
X014301Y003329D01*
X014417Y003049D01*
X014631Y002836D01*
X014879Y002733D01*
X014519Y002373D01*
X014483Y002287D01*
X014417Y002221D01*
X014301Y001941D01*
X014301Y001079D01*
X014321Y001030D01*
X013801Y001030D01*
X013821Y001079D01*
X013821Y001941D01*
X013741Y002134D01*
X013741Y003136D01*
X013821Y003329D01*
X013821Y004191D01*
X013741Y004384D01*
X013741Y005386D01*
X013821Y005579D01*
X013821Y006441D01*
X013741Y006634D01*
X013741Y007636D01*
X013821Y007829D01*
X013821Y008691D01*
X013741Y008884D01*
X013741Y009886D01*
X013821Y010079D01*
X013821Y010941D01*
X013801Y010990D01*
X014321Y010990D01*
X014301Y010941D01*
X014301Y010384D02*
X013821Y010384D01*
X013816Y010065D02*
X014307Y010065D01*
X014470Y009747D02*
X013741Y009747D01*
X013741Y009428D02*
X021039Y009428D01*
X021114Y009503D02*
X020903Y009292D01*
X020754Y009033D01*
X020676Y008744D01*
X020676Y008633D01*
X020676Y008634D01*
X020674Y008636D01*
X020671Y008644D01*
X020666Y008649D01*
X020666Y008649D01*
X020664Y008651D01*
X020661Y008659D01*
X020659Y008661D01*
X020656Y008669D01*
X020654Y008671D01*
X020651Y008679D01*
X020646Y008684D01*
X020644Y008686D01*
X020641Y008694D01*
X020639Y008696D01*
X020636Y008704D01*
X020631Y008709D01*
X020629Y008711D01*
X020626Y008719D01*
X020624Y008721D01*
X020621Y008729D01*
X020619Y008731D01*
X020616Y008739D01*
X020611Y008744D01*
X020611Y008744D01*
X020609Y008746D01*
X020606Y008754D01*
X020604Y008756D01*
X020601Y008764D01*
X020599Y008766D01*
X020596Y008774D01*
X020591Y008779D01*
X020591Y008779D01*
X020589Y008781D01*
X020586Y008789D01*
X020584Y008791D01*
X020689Y008791D01*
X020584Y008791D02*
X020581Y008799D01*
X020579Y008801D01*
X020576Y008809D01*
X020569Y008816D01*
X020566Y008824D01*
X020431Y008959D01*
X020431Y008959D01*
X020401Y008989D01*
X020384Y008996D01*
X020336Y009044D01*
X020327Y009048D01*
X020326Y009049D01*
X020317Y009053D01*
X020316Y009054D01*
X020307Y009058D01*
X020306Y009059D01*
X020297Y009063D01*
X020296Y009064D01*
X020287Y009068D01*
X020286Y009069D01*
X020277Y009073D01*
X020276Y009074D01*
X020267Y009078D01*
X020266Y009079D01*
X020257Y009083D01*
X020256Y009084D01*
X020247Y009088D01*
X020246Y009089D01*
X020237Y009093D01*
X020236Y009094D01*
X020227Y009098D01*
X020226Y009099D01*
X020217Y009103D01*
X020216Y009104D01*
X020207Y009108D01*
X020206Y009109D01*
X020197Y009113D01*
X020196Y009114D01*
X020187Y009118D01*
X020186Y009119D01*
X020177Y009123D01*
X020176Y009124D01*
X020167Y009128D01*
X020166Y009129D01*
X020157Y009133D01*
X020156Y009134D01*
X020147Y009138D01*
X020146Y009139D01*
X020137Y009143D01*
X020136Y009144D01*
X020127Y009148D01*
X020126Y009149D01*
X020117Y009153D01*
X020116Y009154D01*
X020107Y009158D01*
X020106Y009159D01*
X020097Y009163D01*
X020096Y009164D01*
X020087Y009168D01*
X020086Y009169D01*
X020077Y009173D01*
X020076Y009174D01*
X020067Y009178D01*
X020066Y009179D01*
X020057Y009183D01*
X020056Y009184D01*
X020047Y009188D01*
X020046Y009189D01*
X020037Y009193D01*
X020036Y009194D01*
X020027Y009198D01*
X020026Y009199D01*
X020017Y009203D01*
X020016Y009204D01*
X020007Y009208D01*
X020006Y009209D01*
X019997Y009213D01*
X019991Y009219D01*
X019982Y009223D01*
X019981Y009224D01*
X019972Y009228D01*
X019971Y009229D01*
X019962Y009233D01*
X019961Y009234D01*
X019952Y009238D01*
X019951Y009239D01*
X019942Y009243D01*
X019941Y009244D01*
X019932Y009248D01*
X019931Y009249D01*
X019922Y009253D01*
X019921Y009254D01*
X019912Y009258D01*
X019911Y009259D01*
X019902Y009263D01*
X019901Y009264D01*
X019867Y009279D01*
X019851Y009294D01*
X019674Y009367D01*
X019463Y009367D01*
X019451Y009362D01*
X019433Y009362D01*
X019421Y009357D01*
X019408Y009357D01*
X019396Y009352D01*
X019378Y009352D01*
X019366Y009347D01*
X019348Y009347D01*
X019336Y009342D01*
X019323Y009342D01*
X019311Y009337D01*
X019293Y009337D01*
X019281Y009332D01*
X019263Y009332D01*
X019251Y009327D01*
X019238Y009327D01*
X019226Y009322D01*
X019208Y009322D01*
X019196Y009317D01*
X019178Y009317D01*
X019166Y009312D01*
X019153Y009312D01*
X019141Y009307D01*
X019123Y009307D01*
X019111Y009302D01*
X019093Y009302D01*
X019081Y009297D01*
X019063Y009297D01*
X019051Y009292D01*
X019038Y009292D01*
X019026Y009287D01*
X019008Y009287D01*
X018996Y009282D01*
X018978Y009282D01*
X018966Y009277D01*
X018953Y009277D01*
X018941Y009272D01*
X018923Y009272D01*
X018911Y009267D01*
X018893Y009267D01*
X018881Y009262D01*
X018868Y009262D01*
X018759Y009217D01*
X018734Y009227D01*
X018528Y009227D01*
X018516Y009222D01*
X018513Y009222D01*
X018501Y009217D01*
X018498Y009217D01*
X018486Y009212D01*
X018483Y009212D01*
X018471Y009207D01*
X018468Y009207D01*
X018456Y009202D01*
X018453Y009202D01*
X018441Y009197D01*
X018438Y009197D01*
X018426Y009192D01*
X018423Y009192D01*
X018411Y009187D01*
X018408Y009187D01*
X018396Y009182D01*
X018393Y009182D01*
X018381Y009177D01*
X018378Y009177D01*
X018366Y009172D01*
X018363Y009172D01*
X018339Y009162D01*
X018228Y009162D01*
X018216Y009157D01*
X018213Y009157D01*
X018201Y009152D01*
X018193Y009152D01*
X018181Y009147D01*
X018178Y009147D01*
X018166Y009142D01*
X018158Y009142D01*
X018146Y009137D01*
X018143Y009137D01*
X018131Y009132D01*
X018123Y009132D01*
X018111Y009127D01*
X018108Y009127D01*
X018096Y009122D01*
X018088Y009122D01*
X018076Y009117D01*
X018068Y009117D01*
X018056Y009112D01*
X018053Y009112D01*
X018041Y009107D01*
X018033Y009107D01*
X018021Y009102D01*
X018018Y009102D01*
X018006Y009097D01*
X017998Y009097D01*
X017986Y009092D01*
X017983Y009092D01*
X017971Y009087D01*
X017963Y009087D01*
X017951Y009082D01*
X017948Y009082D01*
X017936Y009077D01*
X017928Y009077D01*
X017916Y009072D01*
X017913Y009072D01*
X017901Y009067D01*
X017893Y009067D01*
X017881Y009062D01*
X017878Y009062D01*
X017702Y008989D01*
X017672Y008959D01*
X017672Y008959D01*
X017537Y008824D01*
X017533Y008816D01*
X017532Y008814D01*
X017528Y008806D01*
X017527Y008804D01*
X017523Y008796D01*
X017522Y008794D01*
X017518Y008786D01*
X017517Y008784D01*
X017513Y008776D01*
X017512Y008774D01*
X017508Y008766D01*
X017507Y008764D01*
X017503Y008756D01*
X017502Y008754D01*
X017498Y008746D01*
X017497Y008744D01*
X017493Y008736D01*
X017492Y008734D01*
X017488Y008726D01*
X017487Y008724D01*
X017483Y008716D01*
X017482Y008714D01*
X017478Y008706D01*
X017477Y008704D01*
X017473Y008696D01*
X017472Y008694D01*
X017468Y008686D01*
X017467Y008684D01*
X017463Y008676D01*
X017462Y008674D01*
X017458Y008666D01*
X017457Y008664D01*
X017453Y008656D01*
X017452Y008654D01*
X017448Y008646D01*
X017447Y008644D01*
X017443Y008636D01*
X017442Y008634D01*
X017438Y008626D01*
X017437Y008624D01*
X017433Y008616D01*
X017432Y008614D01*
X017428Y008606D01*
X017427Y008604D01*
X017423Y008596D01*
X017422Y008594D01*
X017418Y008586D01*
X017417Y008584D01*
X017413Y008576D01*
X017412Y008574D01*
X017408Y008566D01*
X017407Y008564D01*
X017403Y008556D01*
X017402Y008554D01*
X017398Y008546D01*
X017397Y008544D01*
X017393Y008536D01*
X017392Y008534D01*
X017388Y008526D01*
X017387Y008524D01*
X017383Y008516D01*
X017382Y008514D01*
X017378Y008506D01*
X017377Y008504D01*
X017373Y008496D01*
X017372Y008494D01*
X017368Y008486D01*
X017367Y008484D01*
X017363Y008476D01*
X017362Y008474D01*
X017358Y008466D01*
X017357Y008464D01*
X017353Y008456D01*
X017352Y008454D01*
X017348Y008446D01*
X017347Y008444D01*
X017343Y008436D01*
X017342Y008434D01*
X017338Y008426D01*
X017337Y008424D01*
X017333Y008416D01*
X017332Y008414D01*
X017328Y008406D01*
X017327Y008404D01*
X017323Y008396D01*
X017322Y008394D01*
X017318Y008386D01*
X017317Y008384D01*
X017313Y008376D01*
X017312Y008374D01*
X017308Y008366D01*
X017307Y008364D01*
X017303Y008356D01*
X017302Y008354D01*
X017298Y008346D01*
X017297Y008344D01*
X017292Y008339D01*
X017288Y008331D01*
X017287Y008329D01*
X017283Y008321D01*
X017282Y008319D01*
X017278Y008311D01*
X017277Y008309D01*
X017273Y008301D01*
X017272Y008299D01*
X017268Y008291D01*
X017267Y008289D01*
X017263Y008281D01*
X017262Y008279D01*
X017258Y008271D01*
X017257Y008269D01*
X017253Y008261D01*
X017252Y008259D01*
X017179Y008083D01*
X017179Y008033D01*
X017178Y008030D01*
X017177Y008029D01*
X017152Y007970D01*
X017152Y007969D01*
X017138Y007935D01*
X017137Y007934D01*
X017112Y007875D01*
X017112Y007874D01*
X017098Y007840D01*
X017097Y007839D01*
X017072Y007780D01*
X017072Y007779D01*
X016999Y007603D01*
X016999Y007569D01*
X016994Y007556D01*
X016982Y007544D01*
X016970Y007533D01*
X016962Y007529D01*
X016952Y007519D01*
X016952Y007519D01*
X016940Y007507D01*
X016928Y007507D01*
X016916Y007502D01*
X016908Y007502D01*
X016884Y007492D01*
X016883Y007492D01*
X016787Y007452D01*
X016623Y007452D01*
X016611Y007447D01*
X016458Y007447D01*
X016446Y007442D01*
X016298Y007442D01*
X016286Y007437D01*
X016138Y007437D01*
X015962Y007364D01*
X015827Y007229D01*
X015754Y007053D01*
X015754Y006852D01*
X015827Y006676D01*
X015962Y006541D01*
X016138Y006468D01*
X016146Y006468D01*
X016158Y006463D01*
X016161Y006463D01*
X016173Y006458D01*
X016176Y006458D01*
X016188Y006453D01*
X016196Y006453D01*
X016208Y006448D01*
X016211Y006448D01*
X016223Y006443D01*
X016226Y006443D01*
X016238Y006438D01*
X016246Y006438D01*
X016258Y006433D01*
X016261Y006433D01*
X016273Y006428D01*
X016281Y006428D01*
X016293Y006423D01*
X016296Y006423D01*
X016303Y006420D01*
X016307Y006416D01*
X016312Y006411D01*
X016317Y006406D01*
X016325Y006402D01*
X016327Y006401D01*
X016332Y006396D01*
X016340Y006392D01*
X016342Y006391D01*
X016347Y006386D01*
X016355Y006382D01*
X016362Y006376D01*
X016367Y006371D01*
X016375Y006367D01*
X016377Y006366D01*
X016382Y006361D01*
X016390Y006357D01*
X016392Y006356D01*
X016397Y006351D01*
X016534Y006294D01*
X016534Y006152D01*
X016607Y005976D01*
X016742Y005841D01*
X016896Y005777D01*
X016899Y005770D01*
X016899Y005762D01*
X016904Y005750D01*
X016904Y005742D01*
X016909Y005730D01*
X016909Y005727D01*
X016914Y005715D01*
X016914Y005707D01*
X016919Y005695D01*
X016919Y005687D01*
X016924Y005675D01*
X016924Y005667D01*
X016929Y005655D01*
X016929Y005647D01*
X016934Y005635D01*
X016934Y005632D01*
X016939Y005620D01*
X016939Y005612D01*
X016944Y005600D01*
X016944Y005592D01*
X016949Y005580D01*
X016949Y005572D01*
X016954Y005560D01*
X016954Y005557D01*
X016959Y005545D01*
X016959Y005537D01*
X016964Y005525D01*
X016964Y005517D01*
X016969Y005505D01*
X016969Y005497D01*
X016974Y005485D01*
X016974Y005477D01*
X016979Y005465D01*
X016979Y005462D01*
X016984Y005450D01*
X016984Y005442D01*
X016989Y005430D01*
X016989Y005422D01*
X016994Y005410D01*
X016994Y005402D01*
X016999Y005390D01*
X016999Y005382D01*
X017004Y005370D01*
X017004Y005367D01*
X017009Y005355D01*
X017009Y005347D01*
X017014Y005335D01*
X017014Y005327D01*
X017019Y005315D01*
X017019Y005307D01*
X017024Y005295D01*
X017024Y005292D01*
X017029Y005280D01*
X017029Y005272D01*
X017034Y005260D01*
X017034Y005252D01*
X017039Y005240D01*
X017039Y005232D01*
X017044Y005220D01*
X017044Y005212D01*
X017049Y005200D01*
X017049Y005197D01*
X017054Y005185D01*
X017054Y005177D01*
X017059Y005165D01*
X017059Y005157D01*
X017064Y005145D01*
X017064Y005137D01*
X017069Y005125D01*
X017069Y005117D01*
X017074Y005105D01*
X017074Y005102D01*
X017079Y005090D01*
X017079Y005082D01*
X017084Y005070D01*
X017084Y005062D01*
X017089Y005050D01*
X017089Y005042D01*
X017094Y005030D01*
X017094Y005027D01*
X017099Y005015D01*
X017099Y005007D01*
X017172Y004831D01*
X017173Y004829D01*
X017177Y004821D01*
X017312Y004686D01*
X017317Y004681D01*
X017322Y004676D01*
X017330Y004672D01*
X017332Y004671D01*
X017337Y004666D01*
X017345Y004662D01*
X017347Y004661D01*
X017352Y004656D01*
X017360Y004652D01*
X017362Y004651D01*
X017370Y004647D01*
X017372Y004646D01*
X017377Y004641D01*
X017385Y004637D01*
X017387Y004636D01*
X017392Y004631D01*
X017400Y004627D01*
X017402Y004626D01*
X017407Y004621D01*
X017415Y004617D01*
X017417Y004616D01*
X017422Y004611D01*
X017430Y004607D01*
X017437Y004601D01*
X017613Y004528D01*
X017879Y004528D01*
X017913Y004542D01*
X017923Y004538D01*
X020909Y004538D01*
X021086Y004611D01*
X021221Y004746D01*
X021294Y004922D01*
X021294Y005178D01*
X021279Y005214D01*
X021279Y005578D01*
X021274Y005590D01*
X021274Y005598D01*
X021249Y005658D01*
X021249Y005965D01*
X021279Y006037D01*
X021279Y006293D01*
X021249Y006365D01*
X021249Y006483D01*
X021176Y006659D01*
X021041Y006794D01*
X021006Y006879D01*
X020871Y007014D01*
X020694Y007087D01*
X019976Y007087D01*
X019988Y007093D01*
X019989Y007093D01*
X020013Y007103D01*
X020014Y007103D01*
X020038Y007113D01*
X020039Y007113D01*
X020063Y007123D01*
X020064Y007123D01*
X020088Y007133D01*
X020089Y007133D01*
X020113Y007143D01*
X020114Y007143D01*
X020126Y007148D01*
X020129Y007148D01*
X020153Y007158D01*
X020154Y007158D01*
X020178Y007168D01*
X020179Y007168D01*
X020203Y007178D01*
X020204Y007178D01*
X020228Y007188D01*
X020229Y007188D01*
X020253Y007198D01*
X020254Y007198D01*
X020278Y007208D01*
X020279Y007208D01*
X020303Y007218D01*
X020304Y007218D01*
X020328Y007228D01*
X020329Y007228D01*
X020353Y007238D01*
X020354Y007238D01*
X020378Y007248D01*
X020379Y007248D01*
X020403Y007258D01*
X020404Y007258D01*
X020428Y007268D01*
X020429Y007268D01*
X020453Y007278D01*
X020454Y007278D01*
X020478Y007288D01*
X020479Y007288D01*
X020503Y007298D01*
X020504Y007298D01*
X020528Y007308D01*
X020529Y007308D01*
X020553Y007318D01*
X020554Y007318D01*
X020578Y007328D01*
X020579Y007328D01*
X020603Y007338D01*
X020604Y007338D01*
X020781Y007411D01*
X020782Y007412D01*
X020791Y007416D01*
X020792Y007417D01*
X020801Y007421D01*
X020936Y007556D01*
X020950Y007590D01*
X020956Y007596D01*
X021029Y007772D01*
X021029Y007772D01*
X021114Y007687D01*
X021373Y007537D01*
X021662Y007460D01*
X021961Y007460D01*
X022249Y007537D01*
X022508Y007687D01*
X022719Y007898D01*
X022869Y008157D01*
X022946Y008446D01*
X022946Y008744D01*
X022869Y009033D01*
X022719Y009292D01*
X022508Y009503D01*
X022249Y009653D01*
X021961Y009730D01*
X021662Y009730D01*
X021373Y009653D01*
X021114Y009503D01*
X020798Y009110D02*
X020205Y009110D01*
X018046Y009110D02*
X015567Y009110D01*
X015492Y009184D02*
X015212Y009300D01*
X014910Y009300D01*
X014631Y009184D01*
X014417Y008971D01*
X014301Y008691D01*
X014301Y007829D01*
X014417Y007549D01*
X014631Y007336D01*
X014910Y007220D01*
X015212Y007220D01*
X015492Y007336D01*
X015706Y007549D01*
X015821Y007829D01*
X015821Y008691D01*
X015706Y008971D01*
X015492Y009184D01*
X015780Y008791D02*
X017520Y008791D01*
X017361Y008473D02*
X015821Y008473D01*
X015821Y008154D02*
X017208Y008154D01*
X017297Y008344D02*
X017297Y008344D01*
X017095Y007836D02*
X015821Y007836D01*
X015673Y007517D02*
X016949Y007517D01*
X015814Y007199D02*
X013741Y007199D01*
X013741Y006880D02*
X014576Y006880D01*
X014631Y006934D02*
X014417Y006721D01*
X014301Y006441D01*
X014301Y005579D01*
X014417Y005299D01*
X014631Y005086D01*
X014910Y004970D01*
X015212Y004970D01*
X015492Y005086D01*
X015706Y005299D01*
X015821Y005579D01*
X015821Y006441D01*
X015706Y006721D01*
X015492Y006934D01*
X015212Y007050D01*
X014910Y007050D01*
X014631Y006934D01*
X014351Y006562D02*
X013771Y006562D01*
X013821Y006243D02*
X014301Y006243D01*
X014301Y005925D02*
X013821Y005925D01*
X013821Y005606D02*
X014301Y005606D01*
X014429Y005288D02*
X013741Y005288D01*
X013741Y004969D02*
X017115Y004969D01*
X017026Y005288D02*
X015694Y005288D01*
X015821Y005606D02*
X016941Y005606D01*
X016658Y005925D02*
X015821Y005925D01*
X015821Y006243D02*
X016534Y006243D01*
X016392Y006356D02*
X016392Y006356D01*
X016377Y006366D02*
X016377Y006366D01*
X016362Y006376D02*
X016362Y006376D01*
X016342Y006391D02*
X016342Y006391D01*
X016327Y006401D02*
X016327Y006401D01*
X016312Y006411D02*
X016312Y006411D01*
X016307Y006416D02*
X016307Y006416D01*
X015941Y006562D02*
X015771Y006562D01*
X015754Y006880D02*
X015546Y006880D01*
X014449Y007517D02*
X013741Y007517D01*
X013821Y007836D02*
X014301Y007836D01*
X014301Y008154D02*
X013821Y008154D01*
X013821Y008473D02*
X014301Y008473D01*
X014343Y008791D02*
X013780Y008791D01*
X013741Y009110D02*
X014556Y009110D01*
X015653Y009747D02*
X023071Y009747D01*
X022934Y009935D02*
X022934Y009935D01*
X022892Y010065D02*
X015816Y010065D01*
X015821Y010384D02*
X022811Y010384D01*
X022811Y010702D02*
X015821Y010702D01*
X010301Y010702D02*
X009821Y010702D01*
X009821Y010384D02*
X010301Y010384D01*
X010307Y010065D02*
X009816Y010065D01*
X009653Y009747D02*
X010381Y009747D01*
X008470Y009747D02*
X005121Y009747D01*
X005085Y010065D02*
X008307Y010065D01*
X008301Y010384D02*
X004948Y010384D01*
X004654Y010702D02*
X008301Y010702D01*
X008556Y009110D02*
X005121Y009110D01*
X005121Y008791D02*
X005937Y008791D01*
X005769Y008623D02*
X005769Y008623D01*
X005619Y008473D02*
X005121Y008473D01*
X005074Y008154D02*
X005300Y008154D01*
X004982Y007836D02*
X004924Y007836D01*
X004663Y007517D02*
X004583Y007517D01*
X006311Y008260D02*
X009061Y008260D01*
X009821Y005606D02*
X010301Y005606D01*
X010381Y005288D02*
X009694Y005288D01*
X010381Y004969D02*
X008757Y004969D01*
X009526Y004651D02*
X010381Y004651D01*
X010360Y004332D02*
X009763Y004332D01*
X009821Y004014D02*
X010301Y004014D01*
X011741Y002740D02*
X012381Y002740D01*
X012381Y002421D02*
X011741Y002421D01*
X011754Y002103D02*
X012368Y002103D01*
X012301Y001784D02*
X011821Y001784D01*
X011821Y001466D02*
X012301Y001466D01*
X012301Y001147D02*
X011821Y001147D01*
X013821Y001147D02*
X014301Y001147D01*
X014301Y001466D02*
X013821Y001466D01*
X013821Y001784D02*
X014301Y001784D01*
X015061Y002010D02*
X015061Y001510D01*
X015821Y001466D02*
X016301Y001466D01*
X016301Y001784D02*
X015821Y001784D01*
X015821Y001865D02*
X015826Y001870D01*
X016189Y001870D01*
X016301Y001917D01*
X016301Y001079D01*
X016321Y001030D01*
X015801Y001030D01*
X015821Y001079D01*
X015821Y001865D01*
X015561Y002510D02*
X015061Y002010D01*
X014368Y002103D02*
X013754Y002103D01*
X013741Y002421D02*
X014567Y002421D01*
X014863Y002740D02*
X013741Y002740D01*
X013741Y003058D02*
X014413Y003058D01*
X014301Y003377D02*
X013821Y003377D01*
X013821Y003695D02*
X014301Y003695D01*
X014301Y004014D02*
X013821Y004014D01*
X013763Y004332D02*
X014360Y004332D01*
X014597Y004651D02*
X013741Y004651D01*
X015526Y004651D02*
X017362Y004651D01*
X017332Y004671D02*
X017332Y004671D01*
X017417Y004616D02*
X017417Y004616D01*
X015763Y004332D02*
X021113Y004332D01*
X021126Y004651D02*
X024541Y004651D01*
X024541Y004332D02*
X022509Y004332D01*
X022782Y004014D02*
X024541Y004014D01*
X024541Y003695D02*
X022914Y003695D01*
X022946Y003377D02*
X024541Y003377D01*
X024541Y003058D02*
X022888Y003058D01*
X022726Y002740D02*
X023800Y002740D01*
X024322Y002740D02*
X024541Y002740D01*
X023189Y002421D02*
X022342Y002421D01*
X021889Y002103D02*
X022947Y002103D01*
X022836Y001784D02*
X021911Y001784D01*
X021911Y001466D02*
X022811Y001466D01*
X022865Y001147D02*
X021911Y001147D01*
X020061Y001510D02*
X020061Y003260D01*
X016811Y003260D01*
X016061Y002510D01*
X015561Y002510D01*
X017006Y002550D02*
X017076Y002620D01*
X018627Y002620D01*
X018580Y002601D01*
X018341Y002361D01*
X018270Y002190D01*
X017718Y002190D01*
X017706Y002221D01*
X017492Y002434D01*
X017212Y002550D01*
X017006Y002550D01*
X017505Y002421D02*
X018400Y002421D01*
X020701Y002651D02*
X020701Y003182D01*
X020754Y002987D01*
X020902Y002730D01*
X020892Y002730D01*
X020701Y002651D01*
X020701Y002740D02*
X020896Y002740D01*
X020735Y003058D02*
X020701Y003058D01*
X020709Y003695D02*
X020531Y003695D01*
X020840Y004014D02*
X015821Y004014D01*
X015821Y003695D02*
X016341Y003695D01*
X016023Y003377D02*
X015821Y003377D01*
X015821Y001147D02*
X016301Y001147D01*
X023166Y002405D02*
X023166Y002405D01*
X024541Y004969D02*
X021294Y004969D01*
X021279Y005288D02*
X024541Y005288D01*
X024541Y005606D02*
X021270Y005606D01*
X021249Y005925D02*
X024541Y005925D01*
X024541Y006243D02*
X021279Y006243D01*
X021216Y006562D02*
X024541Y006562D01*
X024541Y006880D02*
X021005Y006880D01*
X020257Y007199D02*
X024541Y007199D01*
X024541Y007517D02*
X022173Y007517D01*
X022657Y007836D02*
X024541Y007836D01*
X024541Y008154D02*
X022867Y008154D01*
X022946Y008473D02*
X024541Y008473D01*
X024541Y008791D02*
X022934Y008791D01*
X022825Y009110D02*
X024541Y009110D01*
X023487Y009382D02*
X023487Y009382D01*
X023424Y009428D02*
X022583Y009428D01*
X021449Y007517D02*
X020897Y007517D01*
X003419Y001466D02*
X003311Y001466D01*
X002861Y002740D02*
X002322Y002740D01*
X001800Y002740D02*
X001581Y002740D01*
X001581Y003058D02*
X002861Y003058D01*
X002861Y003377D02*
X001581Y003377D01*
X001581Y003695D02*
X002861Y003695D01*
X002895Y004014D02*
X001581Y004014D01*
X001581Y004332D02*
X003028Y004332D01*
X003308Y004651D02*
X001581Y004651D01*
X003311Y010702D02*
X003328Y010702D01*
M02*
