G75*
%MOIN*%
%OFA0B0*%
%FSLAX24Y24*%
%IPPOS*%
%LPD*%
%AMOC8*
5,1,8,0,0,1.08239X$1,22.5*
%
%ADD10C,0.0080*%
%ADD11C,0.0000*%
D10*
X001061Y000510D02*
X001061Y011510D01*
X025061Y011510D01*
X025061Y000510D01*
X001061Y000510D01*
D11*
X001411Y001510D02*
X001413Y001560D01*
X001419Y001610D01*
X001429Y001660D01*
X001442Y001708D01*
X001459Y001756D01*
X001480Y001802D01*
X001504Y001846D01*
X001532Y001888D01*
X001563Y001928D01*
X001597Y001965D01*
X001634Y002000D01*
X001673Y002031D01*
X001714Y002060D01*
X001758Y002085D01*
X001804Y002107D01*
X001851Y002125D01*
X001899Y002139D01*
X001948Y002150D01*
X001998Y002157D01*
X002048Y002160D01*
X002099Y002159D01*
X002149Y002154D01*
X002199Y002145D01*
X002247Y002133D01*
X002295Y002116D01*
X002341Y002096D01*
X002386Y002073D01*
X002429Y002046D01*
X002469Y002016D01*
X002507Y001983D01*
X002542Y001947D01*
X002575Y001908D01*
X002604Y001867D01*
X002630Y001824D01*
X002653Y001779D01*
X002672Y001732D01*
X002687Y001684D01*
X002699Y001635D01*
X002707Y001585D01*
X002711Y001535D01*
X002711Y001485D01*
X002707Y001435D01*
X002699Y001385D01*
X002687Y001336D01*
X002672Y001288D01*
X002653Y001241D01*
X002630Y001196D01*
X002604Y001153D01*
X002575Y001112D01*
X002542Y001073D01*
X002507Y001037D01*
X002469Y001004D01*
X002429Y000974D01*
X002386Y000947D01*
X002341Y000924D01*
X002295Y000904D01*
X002247Y000887D01*
X002199Y000875D01*
X002149Y000866D01*
X002099Y000861D01*
X002048Y000860D01*
X001998Y000863D01*
X001948Y000870D01*
X001899Y000881D01*
X001851Y000895D01*
X001804Y000913D01*
X001758Y000935D01*
X001714Y000960D01*
X001673Y000989D01*
X001634Y001020D01*
X001597Y001055D01*
X001563Y001092D01*
X001532Y001132D01*
X001504Y001174D01*
X001480Y001218D01*
X001459Y001264D01*
X001442Y001312D01*
X001429Y001360D01*
X001419Y001410D01*
X001413Y001460D01*
X001411Y001510D01*
X001411Y010510D02*
X001413Y010560D01*
X001419Y010610D01*
X001429Y010660D01*
X001442Y010708D01*
X001459Y010756D01*
X001480Y010802D01*
X001504Y010846D01*
X001532Y010888D01*
X001563Y010928D01*
X001597Y010965D01*
X001634Y011000D01*
X001673Y011031D01*
X001714Y011060D01*
X001758Y011085D01*
X001804Y011107D01*
X001851Y011125D01*
X001899Y011139D01*
X001948Y011150D01*
X001998Y011157D01*
X002048Y011160D01*
X002099Y011159D01*
X002149Y011154D01*
X002199Y011145D01*
X002247Y011133D01*
X002295Y011116D01*
X002341Y011096D01*
X002386Y011073D01*
X002429Y011046D01*
X002469Y011016D01*
X002507Y010983D01*
X002542Y010947D01*
X002575Y010908D01*
X002604Y010867D01*
X002630Y010824D01*
X002653Y010779D01*
X002672Y010732D01*
X002687Y010684D01*
X002699Y010635D01*
X002707Y010585D01*
X002711Y010535D01*
X002711Y010485D01*
X002707Y010435D01*
X002699Y010385D01*
X002687Y010336D01*
X002672Y010288D01*
X002653Y010241D01*
X002630Y010196D01*
X002604Y010153D01*
X002575Y010112D01*
X002542Y010073D01*
X002507Y010037D01*
X002469Y010004D01*
X002429Y009974D01*
X002386Y009947D01*
X002341Y009924D01*
X002295Y009904D01*
X002247Y009887D01*
X002199Y009875D01*
X002149Y009866D01*
X002099Y009861D01*
X002048Y009860D01*
X001998Y009863D01*
X001948Y009870D01*
X001899Y009881D01*
X001851Y009895D01*
X001804Y009913D01*
X001758Y009935D01*
X001714Y009960D01*
X001673Y009989D01*
X001634Y010020D01*
X001597Y010055D01*
X001563Y010092D01*
X001532Y010132D01*
X001504Y010174D01*
X001480Y010218D01*
X001459Y010264D01*
X001442Y010312D01*
X001429Y010360D01*
X001419Y010410D01*
X001413Y010460D01*
X001411Y010510D01*
X023411Y010510D02*
X023413Y010560D01*
X023419Y010610D01*
X023429Y010660D01*
X023442Y010708D01*
X023459Y010756D01*
X023480Y010802D01*
X023504Y010846D01*
X023532Y010888D01*
X023563Y010928D01*
X023597Y010965D01*
X023634Y011000D01*
X023673Y011031D01*
X023714Y011060D01*
X023758Y011085D01*
X023804Y011107D01*
X023851Y011125D01*
X023899Y011139D01*
X023948Y011150D01*
X023998Y011157D01*
X024048Y011160D01*
X024099Y011159D01*
X024149Y011154D01*
X024199Y011145D01*
X024247Y011133D01*
X024295Y011116D01*
X024341Y011096D01*
X024386Y011073D01*
X024429Y011046D01*
X024469Y011016D01*
X024507Y010983D01*
X024542Y010947D01*
X024575Y010908D01*
X024604Y010867D01*
X024630Y010824D01*
X024653Y010779D01*
X024672Y010732D01*
X024687Y010684D01*
X024699Y010635D01*
X024707Y010585D01*
X024711Y010535D01*
X024711Y010485D01*
X024707Y010435D01*
X024699Y010385D01*
X024687Y010336D01*
X024672Y010288D01*
X024653Y010241D01*
X024630Y010196D01*
X024604Y010153D01*
X024575Y010112D01*
X024542Y010073D01*
X024507Y010037D01*
X024469Y010004D01*
X024429Y009974D01*
X024386Y009947D01*
X024341Y009924D01*
X024295Y009904D01*
X024247Y009887D01*
X024199Y009875D01*
X024149Y009866D01*
X024099Y009861D01*
X024048Y009860D01*
X023998Y009863D01*
X023948Y009870D01*
X023899Y009881D01*
X023851Y009895D01*
X023804Y009913D01*
X023758Y009935D01*
X023714Y009960D01*
X023673Y009989D01*
X023634Y010020D01*
X023597Y010055D01*
X023563Y010092D01*
X023532Y010132D01*
X023504Y010174D01*
X023480Y010218D01*
X023459Y010264D01*
X023442Y010312D01*
X023429Y010360D01*
X023419Y010410D01*
X023413Y010460D01*
X023411Y010510D01*
X023411Y001510D02*
X023413Y001560D01*
X023419Y001610D01*
X023429Y001660D01*
X023442Y001708D01*
X023459Y001756D01*
X023480Y001802D01*
X023504Y001846D01*
X023532Y001888D01*
X023563Y001928D01*
X023597Y001965D01*
X023634Y002000D01*
X023673Y002031D01*
X023714Y002060D01*
X023758Y002085D01*
X023804Y002107D01*
X023851Y002125D01*
X023899Y002139D01*
X023948Y002150D01*
X023998Y002157D01*
X024048Y002160D01*
X024099Y002159D01*
X024149Y002154D01*
X024199Y002145D01*
X024247Y002133D01*
X024295Y002116D01*
X024341Y002096D01*
X024386Y002073D01*
X024429Y002046D01*
X024469Y002016D01*
X024507Y001983D01*
X024542Y001947D01*
X024575Y001908D01*
X024604Y001867D01*
X024630Y001824D01*
X024653Y001779D01*
X024672Y001732D01*
X024687Y001684D01*
X024699Y001635D01*
X024707Y001585D01*
X024711Y001535D01*
X024711Y001485D01*
X024707Y001435D01*
X024699Y001385D01*
X024687Y001336D01*
X024672Y001288D01*
X024653Y001241D01*
X024630Y001196D01*
X024604Y001153D01*
X024575Y001112D01*
X024542Y001073D01*
X024507Y001037D01*
X024469Y001004D01*
X024429Y000974D01*
X024386Y000947D01*
X024341Y000924D01*
X024295Y000904D01*
X024247Y000887D01*
X024199Y000875D01*
X024149Y000866D01*
X024099Y000861D01*
X024048Y000860D01*
X023998Y000863D01*
X023948Y000870D01*
X023899Y000881D01*
X023851Y000895D01*
X023804Y000913D01*
X023758Y000935D01*
X023714Y000960D01*
X023673Y000989D01*
X023634Y001020D01*
X023597Y001055D01*
X023563Y001092D01*
X023532Y001132D01*
X023504Y001174D01*
X023480Y001218D01*
X023459Y001264D01*
X023442Y001312D01*
X023429Y001360D01*
X023419Y001410D01*
X023413Y001460D01*
X023411Y001510D01*
M02*
