%
M48
M72
T01C0.0315
T02C0.0360
T03C0.0440
T04C0.0900
T05C0.0910
T06C0.1300
%
T01
X9061Y3760
X11061Y3760
X13061Y3760
X15061Y3760
X15061Y1510
X13061Y1510
X11061Y1510
X17061Y1510
X15061Y6010
X13061Y6010
X11061Y6010
X9061Y6010
X9061Y8260
X11061Y8260
X13061Y8260
X15061Y8260
X15061Y10510
X13061Y10510
X11061Y10510
X9061Y10510
T02
X5841Y6602
X5053Y6610
X5061Y5618
X5841Y5618
T03
X19061Y1510
X20061Y1510
X21061Y1510
T04
X3991Y3740
X3991Y8480
T05
X21811Y8595
X21811Y3425
T06
X2061Y1510
X2061Y10510
X24061Y10510
X24061Y1510
M30
